<mxfile host="Electron" agent="Mozilla/5.0 (Windows NT 10.0; Win64; x64) AppleWebKit/537.36 (KHTML, like Gecko) draw.io/24.7.17 Chrome/128.0.6613.36 Electron/32.0.1 Safari/537.36" version="24.7.17">
  <diagram id="fIKRYZ0cLvCDJmmrUyc1" name="Page-1">
    <mxGraphModel dx="3804" dy="2304" grid="1" gridSize="10" guides="1" tooltips="1" connect="1" arrows="1" fold="1" page="1" pageScale="1" pageWidth="850" pageHeight="1100" math="0" shadow="0">
      <root>
        <mxCell id="0" />
        <mxCell id="1" parent="0" />
        <mxCell id="dBWfP9nQoVJAbgOZJAba-2" value="escam" style="rounded=0;whiteSpace=wrap;html=1;" parent="1" vertex="1">
          <mxGeometry x="360" y="-1090" width="130" height="30" as="geometry" />
        </mxCell>
        <mxCell id="dBWfP9nQoVJAbgOZJAba-6" value="mainwindow.h" style="rounded=0;whiteSpace=wrap;html=1;" parent="1" vertex="1">
          <mxGeometry x="340" y="-960" width="170" height="30" as="geometry" />
        </mxCell>
        <mxCell id="dBWfP9nQoVJAbgOZJAba-7" value="mainwindow.cpp" style="rounded=0;whiteSpace=wrap;html=1;" parent="1" vertex="1">
          <mxGeometry x="340" y="-930" width="170" height="30" as="geometry" />
        </mxCell>
        <mxCell id="dBWfP9nQoVJAbgOZJAba-51" style="edgeStyle=orthogonalEdgeStyle;rounded=0;orthogonalLoop=1;jettySize=auto;html=1;exitX=0.5;exitY=1;exitDx=0;exitDy=0;entryX=0.5;entryY=0;entryDx=0;entryDy=0;" parent="1" source="dBWfP9nQoVJAbgOZJAba-10" target="dBWfP9nQoVJAbgOZJAba-47" edge="1">
          <mxGeometry relative="1" as="geometry" />
        </mxCell>
        <mxCell id="dBWfP9nQoVJAbgOZJAba-53" style="edgeStyle=orthogonalEdgeStyle;rounded=0;orthogonalLoop=1;jettySize=auto;html=1;exitX=0.5;exitY=1;exitDx=0;exitDy=0;entryX=0.5;entryY=0;entryDx=0;entryDy=0;" parent="1" source="dBWfP9nQoVJAbgOZJAba-10" target="dBWfP9nQoVJAbgOZJAba-45" edge="1">
          <mxGeometry relative="1" as="geometry" />
        </mxCell>
        <mxCell id="dBWfP9nQoVJAbgOZJAba-54" style="edgeStyle=orthogonalEdgeStyle;rounded=0;orthogonalLoop=1;jettySize=auto;html=1;exitX=0.5;exitY=1;exitDx=0;exitDy=0;" parent="1" source="dBWfP9nQoVJAbgOZJAba-10" target="dBWfP9nQoVJAbgOZJAba-42" edge="1">
          <mxGeometry relative="1" as="geometry" />
        </mxCell>
        <mxCell id="dBWfP9nQoVJAbgOZJAba-55" style="edgeStyle=orthogonalEdgeStyle;rounded=0;orthogonalLoop=1;jettySize=auto;html=1;exitX=0.5;exitY=1;exitDx=0;exitDy=0;entryX=0.5;entryY=0;entryDx=0;entryDy=0;" parent="1" source="dBWfP9nQoVJAbgOZJAba-10" target="dBWfP9nQoVJAbgOZJAba-14" edge="1">
          <mxGeometry relative="1" as="geometry" />
        </mxCell>
        <mxCell id="dBWfP9nQoVJAbgOZJAba-56" style="edgeStyle=orthogonalEdgeStyle;rounded=0;orthogonalLoop=1;jettySize=auto;html=1;exitX=0.5;exitY=1;exitDx=0;exitDy=0;entryX=0.5;entryY=0;entryDx=0;entryDy=0;" parent="1" source="dBWfP9nQoVJAbgOZJAba-10" edge="1">
          <mxGeometry relative="1" as="geometry">
            <mxPoint x="-335" y="-820" as="targetPoint" />
          </mxGeometry>
        </mxCell>
        <mxCell id="dBWfP9nQoVJAbgOZJAba-57" style="edgeStyle=orthogonalEdgeStyle;rounded=0;orthogonalLoop=1;jettySize=auto;html=1;exitX=0.5;exitY=1;exitDx=0;exitDy=0;entryX=0.5;entryY=0;entryDx=0;entryDy=0;" parent="1" source="dBWfP9nQoVJAbgOZJAba-10" target="dBWfP9nQoVJAbgOZJAba-26" edge="1">
          <mxGeometry relative="1" as="geometry">
            <Array as="points">
              <mxPoint x="425" y="-540" />
              <mxPoint x="285" y="-540" />
            </Array>
          </mxGeometry>
        </mxCell>
        <mxCell id="dBWfP9nQoVJAbgOZJAba-58" style="edgeStyle=orthogonalEdgeStyle;rounded=0;orthogonalLoop=1;jettySize=auto;html=1;exitX=0.5;exitY=1;exitDx=0;exitDy=0;entryX=0.5;entryY=0;entryDx=0;entryDy=0;" parent="1" source="dBWfP9nQoVJAbgOZJAba-10" target="dBWfP9nQoVJAbgOZJAba-23" edge="1">
          <mxGeometry relative="1" as="geometry">
            <Array as="points">
              <mxPoint x="425" y="-540" />
              <mxPoint x="15" y="-540" />
            </Array>
          </mxGeometry>
        </mxCell>
        <mxCell id="dBWfP9nQoVJAbgOZJAba-59" style="edgeStyle=orthogonalEdgeStyle;rounded=0;orthogonalLoop=1;jettySize=auto;html=1;exitX=0.5;exitY=1;exitDx=0;exitDy=0;entryX=0.5;entryY=0;entryDx=0;entryDy=0;" parent="1" source="dBWfP9nQoVJAbgOZJAba-10" target="dBWfP9nQoVJAbgOZJAba-19" edge="1">
          <mxGeometry relative="1" as="geometry">
            <Array as="points">
              <mxPoint x="425" y="-540" />
              <mxPoint x="-193" y="-540" />
            </Array>
          </mxGeometry>
        </mxCell>
        <mxCell id="dBWfP9nQoVJAbgOZJAba-60" style="edgeStyle=orthogonalEdgeStyle;rounded=0;orthogonalLoop=1;jettySize=auto;html=1;exitX=0.5;exitY=1;exitDx=0;exitDy=0;entryX=0.5;entryY=0;entryDx=0;entryDy=0;" parent="1" source="dBWfP9nQoVJAbgOZJAba-10" edge="1">
          <mxGeometry relative="1" as="geometry">
            <Array as="points">
              <mxPoint x="425" y="-540" />
              <mxPoint x="-411" y="-540" />
            </Array>
            <mxPoint x="-411" y="-496.9599999999998" as="targetPoint" />
          </mxGeometry>
        </mxCell>
        <mxCell id="dBWfP9nQoVJAbgOZJAba-62" style="edgeStyle=orthogonalEdgeStyle;rounded=0;orthogonalLoop=1;jettySize=auto;html=1;exitX=0.5;exitY=1;exitDx=0;exitDy=0;entryX=0.5;entryY=0;entryDx=0;entryDy=0;" parent="1" source="dBWfP9nQoVJAbgOZJAba-10" target="dBWfP9nQoVJAbgOZJAba-34" edge="1">
          <mxGeometry relative="1" as="geometry">
            <Array as="points">
              <mxPoint x="425" y="-540" />
              <mxPoint x="602" y="-540" />
            </Array>
          </mxGeometry>
        </mxCell>
        <mxCell id="dBWfP9nQoVJAbgOZJAba-63" style="edgeStyle=orthogonalEdgeStyle;rounded=0;orthogonalLoop=1;jettySize=auto;html=1;exitX=0.5;exitY=1;exitDx=0;exitDy=0;entryX=0.5;entryY=0;entryDx=0;entryDy=0;" parent="1" source="dBWfP9nQoVJAbgOZJAba-10" target="dBWfP9nQoVJAbgOZJAba-39" edge="1">
          <mxGeometry relative="1" as="geometry">
            <Array as="points">
              <mxPoint x="425" y="-540" />
              <mxPoint x="911" y="-540" />
            </Array>
          </mxGeometry>
        </mxCell>
        <mxCell id="Q7GEe4TqaoBqQ411YMws-25" style="edgeStyle=orthogonalEdgeStyle;rounded=0;orthogonalLoop=1;jettySize=auto;html=1;exitX=0.5;exitY=1;exitDx=0;exitDy=0;entryX=0.5;entryY=0;entryDx=0;entryDy=0;" parent="1" source="dBWfP9nQoVJAbgOZJAba-10" target="Q7GEe4TqaoBqQ411YMws-17" edge="1">
          <mxGeometry relative="1" as="geometry">
            <Array as="points">
              <mxPoint x="425" y="-540" />
              <mxPoint x="1385" y="-540" />
            </Array>
          </mxGeometry>
        </mxCell>
        <mxCell id="dBWfP9nQoVJAbgOZJAba-10" value="mainwindow.ui" style="rounded=0;whiteSpace=wrap;html=1;" parent="1" vertex="1">
          <mxGeometry x="340" y="-900" width="170" height="30" as="geometry" />
        </mxCell>
        <mxCell id="dBWfP9nQoVJAbgOZJAba-13" value="" style="shape=image;verticalLabelPosition=bottom;labelBackgroundColor=default;verticalAlign=top;aspect=fixed;imageAspect=0;image=data:image/png,iVBORw0KGgoAAAANSUhEUgAAAK0AAAD2CAYAAACk5gd3AAAAAXNSR0IArs4c6QAAAARnQU1BAACxjwv8YQUAAAAJcEhZcwAADsMAAA7DAcdvqGQAABZLSURBVHhe7Z1fjBRVvsd/o7nZm5sIRqNmoygOg7P2zoOOyRCHGwirDIHhAYzjw+YmTNjswLxIuwnGSYxEgxniJGvjywBmde7LPoBxyIaBOK2LkAuEiaIPOGRkmIW74sZ/cRjjfVGZe36nzuk+XV3VXVVdPV2n5vshJ13nT1VNd3/7V79TnN+vmq5fvz5/8+ZN0mV+ft6zMPoVgDgxddXU1FT2qsstt9wiS1M2m4USgVU0CZVDtMAqblGvAFgDRAusA6IF1gHRAuuAaIF1VL17oO+XRQU3J0DcBBJtVN2x3iFaEDeBRRvW4Op9IFoQN/BpE8rVq1fpwQcflEaDy7p162h2dlb1Jgv++z7++GNVK4f7eExcxCbacAb1BO1QX4YuO06oLt1XbChhev9qMX417Z9WDSd2GMfZIfZOByzabdu20ffff0+jo6P04Ycf0sjIiOpNFh999BE9vvo/PYXLbdzHY2KD3YNKOENIvuriVzfbi21eHJ/vo8753GVd7RNj+0SrrMi+zk6jvwD38XFV3+XcfGdhP4Go5wqVdPHII4/M79mzR9WShxDl/L/96t/lq8arLQ5CW1ohxhK4LoxcbWzcQn10kT7X1lPQ1kZ0eMxoYE4cpUN9fWKs4vIkne3M0EpVpZZdtGuj2k4RuVyOPv30U9qyZYtqSR6PPfYYnTvzPwWLqy0st3FfrCjx+uIM8bakurjbzLHeeFjazty8U9V9/GpYUdGbk9bX3NexvJ3lJjk1vP322/Jz5Fcb0Na1HhZWE8rSmhaVt3XRuOuVOUvZlcoXPbqF5s/sohbV47CRtvQdoqPaSZ0eo8P0DHWXDNpIB+cv0zOHV8rj+LjBVvPcc8/R66+/Tr29vaoFNPDuQScJA0nCD6XOQ0c9J1Abd+fo4t79xE7CiaEstb3oFjbTQrvOOMe5uCl9wuU7BsKfVbVkY7oEpqsQN4FFKy73oUpghB/637mLtLdwO8CgpVvY1sM0dmI/7b2Yo92V/FV5nE46VDDN6eDkyZO0fPlyVUsubh/W7ePGSSDR6st+2BKUll0vUlt2W/E2VgFhRV9so+ymLNEz3eVWVoi5uM80jR0+S52ZwrQsFfCtLr79lWT8Jl11E67ybX3hIbqImiyV2srrXrgmYoLLuU41GXP38QTMnJCVT8T0uagvffe7+H0Jf1bVkgn/jZUmXdznr4XwBF4ww6Pc1rNSW/G14uEBCE0DJ2IARCOwaLX1NA2nVxvDdbcFBiAuEI0LrAPuAbAOiBZYB0QLrAOiBdYB0QLrgGiBdUC0wDqaZmdncZ8WWAUsLbAOiBZYB0QLrAOiBdYB0QLrgGiBdUC0wDogWmAdEC2wDogWWAf+G7dBfPLJJ2oLMI8++qjaqg5E2yBYtLfddpuqLW5++OGHUKKFewCsA6IF1gHRAuuAaIF1JE+0M8PU1TVMM6q6KJi7RPn8JZpT1bqxUOepM6FE23X77XS7UbJ51QFSwnU6b4Gow1najkG6MDsrs1PPXhikyaFFZhFTzNylPL3zzjn6p6rXwo8//qi2yqnUF5To7sGVKZrItFAzb/MlvWCBs6QN8Mxwl2GZu2iYFa4u/8NZY6y5f/sATXDbomOOLuXfEcLhkqdL2tzxJV22cTkvbKFuZpG5xqvL/6Xzxlhz//HP6Aa3ebDk4fX0dNdvaamqR+WXX36hr7/+Wj7/zA23cR+PqYVwop0YoHYtrp5JGnx2vWjMU1YILXPEscAXBiepR/kNzf3jjlXmciRDA28oOYvjTHVze47Wu/ZnC97hjFpc3JijJauepqeffpqEduiz83yZFpdrIbQlj+v2OTp33pGtFJlok+XxJfTZJSXnG5/R3H3cvorude0fhyirceutt9L9998vv0tTuLzNbdzHY2qhBvdgK43uFO7BzDRNinapX0Hzhq3UMTJWbkF7Rogmpx13whhPrv0XLUvvo3uXOJtL7r2PlgoR/zA3R3NLf0sP32u0//OLcgt6TlzUeSy3G+Nlm1lfINzCjVOwTHT3oLmFMhNTdEVVy2DBto/S1guL3ILWAxbs+Bd0X9fCWdCwmMKNU7BMdNHmx2iko5VWSPEOkL7yz7w3ShO93eKyL+jYShuk06vanc1S5P6j9J6a0fmOW0TMXf+Cbixjy7uElojLvb7yF9q5Ylhm2e5sliL3F5ZZ+ce+4+qEFm6cgmVCLZjhS31RUL10RPqkAmlV9QSq2J4Xky32CpgOfnjbZCsdOEC0cyfRgfF+ZxLH5LOO+yAojDP7U0jJghlpOY1Jkrikd61/mKQmS/qW0ePSVyW6LiZb7BUwS5ctE+OW0KpVROfPE63S+zLXzzvug6AwzuxX8MRu/LOipJcJP3jVArkVYRfMYJVXg8AqryJY5QVSD0QLrAOiBdYBn7ZBINymFEzEQKqBewCsA6IF1gHRAuuAaIF1QLTAOnD3oEFMT0+rLcC0tLSorepAtA2CRRvmi0ozYT8LiLZBpE20X331ldoKxz333APR2kIaRXv33XerWjA4XiyKaDERA9YB0YK68tJLL6mt+IBoQd3Qgo1buOFFy6ExOsKWS5rSzKicDDJczW+7rnxOf/vLWfpO1WzGLdQ4hRtqIsbJN9oHMsXYMEE+myXKFeupgYXqjmWLEffk47uzf6E3T39DdNca+uMfOulO1W4LiZ2IvTdKNHihVKDrlWD9s8lkKdvltGfzMzRc2Ja7O2M89yvNQuN5fBPXufzP4ZMBhy2pOu+M+De8c4AmVHKSrr17i5bW61glf69Twl6A7uz8A73wxzV0l6oDf0KJdnQiQy0+Zsc/m8wktR7gtl4a6WHTpbZlHjDOLjNFu/V+OgGI3M/MQlPh+Cb6XHIMn49F5ZMBRwhtp7xqOO1HMmYOh2bqPzBIHSo5yfjvtd3zz6ZT/HvVuRdhnjO2nGFKVML5tJznQG2WYVqgkmwyKvfBilYhAmOb+zi7DI1Qj96Pw9B1AhB31hm/45sYeRZofTf1iqNPn/LJgMP5FuS5HWuprxgVqZRNx/x79ftbZLB7EKZEJZRozaQaJbCgomaTUdZM7ieLh3hqOb4v6yknz9dNY/LHUHQbQO3wxMtd4iKUaJ8dJBpoL/1yeSLmWJoA2WTcuLLTVCTs8WUGHLHPWp8MOOKHkJWOMYv3Ag12CKvsznPpTvtUKZsOKOGVV15RWw7uei2EEi37ldKP05dpUXpIfGnN/bQ7U8youHMqE9ASCsFwntue4vHkhEj1Fgh6fCGoYlZHoiNy5l96Dnn3IydkJgQofoHqvO00uvUA9S9Tx2H4nL2O69L1V30TyudYMcB3D/a9eZq++eY0vblvH/3tc9VhMVqocQqWSc/aA3Yh6niLKm6w9gBrD8AiAqu8GkQaLW0UsDTRItIm2lqAaC2BvyhQBKIFqQYTMWAdEC2wDogWWAdEC6wDogXWgbsHDeL2ff9SW4CZfeHXaqs6EG2DYNHOD/5G1ezmxo3ank7GnwVEawFpE+3777+vauF48sknIVpbSKNon3jiCdUSjA8++CCSaDERSwBNTU1qy27m5+dDlahAtCA2vIR5xx13eLZziUp40RrJOsKGSTcMXiDuFREBYuXmzZsl5c47nShmfnX3cYlKSNHmKdszSYMcYMhhJ2HCpCGcAJygHav3U3H9l6gL14Hdh6amHaKWbEwretddpRkcuG72c4lKONHKkG+V+6C5n8ZT/qTwhWR6/2ohzE10SNWZEzs2ER13vuDLuYu0aUeyZfvzzz8XypdffllWzH4uUQklWk5UMaHzFKz5L1rLllNZUN9sMNK6ujK2uNLDlI93tQXNWOPqL7Sb8BjV55mppkG07DpD85dz1KnqbGWPHuqjLRudWkv3M9R58XPDCicPtyWtVqISSrQciaqzrsyOrKZfqfaSbDBCFOWZW1wZW/oN++w53on85bosgTPWGP1yP51lRlMho03SaXmI2s5O0mVVTSLnzp0LVaISfiLmhZldJWzmFr/xpkUMmrGGMfIjFLLM6HwGlTLagJrhe65hSlTiEW0JYTO3eIxnwcaeUUYRJKNNEpn+nC52ZmilqiYR886Ads/MYvZziUr8ohWCK8vcoq+/XlbNazxbxrAZZbzQWWZ0Eo4wGW0azkba0neIjqq51/TYYTrb9hAlORTS9Fe/+640yy7XzX4uUYlftF6ZW1h8ZsYWc/bjNX5t1Iw1As8sM5rSDDGyJOQ2nLx7sDJLZ89maWVTE/GNgo0HjxNtcm55rcy20fGDalaWUNyi/Pbbb2U7v7r7uEQlXWsP2K2wJMuMufaARVnLl9ho9NqDNWvWqJZgnD59Wvq2WHsAGsZPP/0UqkQFq7waRBpXeUUhiqWFaBtE2kRbCxCtJfAXBYpAtCDVYCIGrAOiBdYB0QLrgGiBdUC0wDpw96BBvPbaa2oLMM8//7zaqg5E2yBYtK+++qqq2U2t/7nAnwVEawFpE20t/40L0VpCGkUbNcNMWNFiIgZiw71etlqJCkQLYsNLmA3PMGNdsg1eFG7b32wx7hiwhGSYiQCEEwAzkwyX1bRfJjjwyzCTzMwzphVNToYZUEf66HjhCz1Du1r8M8wkNfOMmT0mMRlmNJ7ZX9zt0rois0x0/DLMJDfzjLagQUtUIonWM/uLEAUyy9TCIdqkLvmrHd+gFL8MMwnKPOOVRaZSiUo098C0Wjr7CzLL1MBGOliwQMepLbtN+bR2wfdcw5SohBcti8oz+wsyy8TDSsoUs9AV8cswk6DMM+adAccNKy1mP5eoRLO0XtlfhOCQWSYiJ3bI5ByS6TE6fLaNHmrxyzCT3Mwzpr+arAwznCnGK/sLMstEZ2WGLqpMMpxlpu34QSFN/wwzSc084xYlMsxUgt0KSzLLaNK49iBqhhmsPQANwyuLTKUSFazyahBptLRRiGJpIdoGkTbR1gJEawn8RYEiEC1INZiIAeuAaIF1QLTAOiBaYB0QLbAO3D1oELjlVQpueVkA/nOhCP5zwRLSJlr8N+4iII2iRYYZYB1ea2YrlahAtCA2vITZ8AwzscILt5HEI1W4Y8CSm2EG4ouBZGaMCYtpRZOdYaa5n8YtCnNJIknNGBMWM3tMYjLMeGZxKVjaPGVFWyF4kdvNDDE6oNCK7C4LSXIzxoTFbUmrlaiEs7QVs7g4Ea808IZo43RInL9gnPqbbcjukiASlDEmLF5ZZCqVqIQTbaUsLoxwFQ4MTlKPGUKe+OwuIC74nmuYEpXafVoXzS0ZtWVgTXaXBJCgjDFhMe8MaBfSLGY/l6hEF607i4tEuAKcKGP2CGUGdjq+a9KzuzSc5GaMCYvpryYnw0zFLC48EeNGtqLCv+WMh+3s8yY8u0sCSGrGmLC4RZmIDDN8l8CmLC5JJo1rD5BhBliHVxaZSiUqWOXVINJoaaMQxdJCtA0ibaKtBYjWEviLAkUgWpBqMBED1gHRAuuAaIF1QLTAOiBaYB0QLbAOiBZYx8KLNp8trPYqe+gyAAFYYNHyettJGlSPEc1hJbhAfCaBlmqWjit9Wrsq0grwElF3Wyn5rGgvHKv6+MpU29/v/fm1V2dhRStDbzLUgrWNEkd4PTSi6n54jSt5WrsoR3qJOlpXCC2M8Sp81X6BBieHSgJJWbBD1Ft8EmaV8VWpsL/f+wv6vv0IJVozGjebn6HhwrboNPMfyOhbHfTI43hb/LI4PkzHi0X8laUJKbwAD62uOk583kMjvbSbg/LW54wr2BWamigaCRbLUOsFGn+21Wlg/MYHjaCucD6/vzvo+/YjnKXV0bgyEpef66m2h4QAZViNE7DID2LOiF/+mFSteCPUSitUBEOHjhfDYvLYyL8xQDT4rBF3pw3KGHWreDwW7E46QOMy2tSNezwbmDAR1OXnqyfhRKujcVe0CvEZ27JzPXX3Ok8evzKVoW7xa55k1bJLkGmBQOuFaWULNFP/OAuum8aklZyh90YnaEI/QFtGRA9Qe+Fq5xp/yj+C2rm0O+3FB3S7z6ea60SsPq3QL01dydPYpLCszRto6+QY5a9MUaa73r+9xUu5lTVhQzIhvhMtKlX0Fa/saqfG/6/Y9ImgNn3pcqutz6eqdSJW0TZv2Eo0NESTWzeID6OZuDom/HSeH4CAlMwHquBhZWeGs4alEwZkpKPi5+85fnXwCOqw54uDWEXL4eJipkVbVUYPro4Iq1tI8AFKkJdafakWl1u/u03e44QfubPcyvJnPtCuLusyOpqz/KhOD7zHB4+grnQ+v/cX9H37gUXgwDritbQALAAQLbAOiBZYB0QLrAOiBdYB0QLrgGiBdUC0wDogWmAdEC2wjnCi5cUcWLwdE9XCVDQ+43wXaZvjvRfelITblBzHXG4YlGrvQ/Sbmqn5fLC0jSNomIvnOF4sw4+8Uu38qAC5SJsXY/OiFd1O1OMyMmXhNrx0tHB841kZQQkbblPr+QShRMurivTKnK69e6XVHeZfLf+ipRWuEI4jcN6E+pUtdotdIUylhCDjCgvxub+XCsuX+bFZxuOv+POvHG6zglq1mn0tuYuw4TZ+5wtBKNH2HyiGy4z//k754JCpbv7FqBCLSuE44kPYOZARP0rnV3Ykg2eJCWUEDFNxj+NF3btpSi8JbBdW94Be0O1EjziwKJw6C9Y/3EYx8x6JI9GG0A8sDPo+XBTOp+oBqc09EAJ+1vwLK4XjNLdQRoZwOH7W+lyIN5dagoaplI/LO8++Em3iktwxQQNyxTavgxUCK6xvbacBafmqhdswLFQl/goPLDSvlrWF2xjnUy1BWUCfVnyg8pfLb4zfdMDV+YuCoGEqatyZYRqa1AaDBWP4kvyA7YKF5CsjB5VqUZntZrgNT6aGqFU+FlY21DncxuN8IQgv2qiPCBXuQVZ+qixetg7mZWzx4RumIn3J4g86UDgMX2bLfF1xyebIBhn6VAF5PpeA+KpoHr8CocNtvM4XknCiFb/i3b3OZaPrr6VP5KuKE5ehLi3Gs3MXKZXCVEy8x7nCYfgye0G5W4W0U/wZi0lXlQ+Zw/2F42Ccgy/7K+oWbuN9vnDWC+E2wDoW0KcFIB4gWmAdEC2wDogWWAdEC6wDogXWAdEC64BogXXgPxfqzO37/qW2gB+zL/xabQUDlhZYByxtndGW9lr/f8hXUOSB4f+Tr7C0IPVAtMA6IFpgHRAtsA6INqVcfespeuCBBwrlqbeu6g566qm3SNWITg7I/oGTqm4BEG0KYcGuPbaZTl27RtdkGaHWl9cWhathAfdO0Z5T12hwnWqzAIg2dZykgy8T7fnzdlquWojW0eCpPUTH/l60sCzYtcdo86l3aXtxoBVAtGnj6j9o6rHN9Du3EJc/SK0fX6Z/yMox+pOlgmUg2sXIx0Sb97TSy38yfFuLgGjThrSox+jvbjVKC7ySHuRttsTbB+nU5mO01qYZmAKiTR3raIdwX0ut6EkaWCsc3c2/M/xcoe/tf6Y9U73lE7SEA9GmkOXb33WsaOGWVy/RyDV6t8yBXU7b3/W5s5BgsGCmzmDBjD9YMAMWDRAtsA6IFlgHfNo6g3Cb6sCnBakHlhZYBywtsA6IFlgHRAusA6IF1gHRAuuAaIF1QLTAOiBaYB0QLbAOiBZYB0QLrKMpm81i7QGwCKL/Bwn2ax5eph4tAAAAAElFTkSuQmCC;" parent="1" vertex="1">
          <mxGeometry x="-196.5" y="-729.9999999999999" width="123" height="174.9" as="geometry" />
        </mxCell>
        <mxCell id="dBWfP9nQoVJAbgOZJAba-14" value="dialogrms.h" style="rounded=0;whiteSpace=wrap;html=1;" parent="1" vertex="1">
          <mxGeometry x="-220" y="-819.9999999999999" width="170" height="30" as="geometry" />
        </mxCell>
        <mxCell id="dBWfP9nQoVJAbgOZJAba-15" value="dialogrms.cpp" style="rounded=0;whiteSpace=wrap;html=1;" parent="1" vertex="1">
          <mxGeometry x="-220" y="-789.9999999999999" width="170" height="30" as="geometry" />
        </mxCell>
        <mxCell id="dBWfP9nQoVJAbgOZJAba-16" value="dialogrms.ui" style="rounded=0;whiteSpace=wrap;html=1;" parent="1" vertex="1">
          <mxGeometry x="-220" y="-759.9999999999999" width="170" height="30" as="geometry" />
        </mxCell>
        <mxCell id="dBWfP9nQoVJAbgOZJAba-18" value="" style="shape=image;verticalLabelPosition=bottom;labelBackgroundColor=default;verticalAlign=top;aspect=fixed;imageAspect=0;image=data:image/png,iVBORw0KGgoAAAANSUhEUgAAAPIAAAB/CAYAAADVRp+iAAAAAXNSR0IArs4c6QAAAARnQU1BAACxjwv8YQUAAAAJcEhZcwAADsMAAA7DAcdvqGQAAA+5SURBVHhe7Z1NTBxHFsff8GVvpEhAkksuBmOMhJxDTLDW9iqOQyCyjRQbBR/2EuQD2IfEo0jOLtJKyJKz7MZSBLsHBw4We8nBRI4jga2FYMeRTKQQ7EMQEgYMvjgXG4iiJGvzMVuvurqnaWaG7plhprvm/7NL0/XR1T31+t+vqnroCv1x/58i+QX5tLa2Rqurq0QRorz8PArxv1BIpjMF+fkUygtRJCIKMOJjLbJGa6trtLK6IstyyBfl8vPyRXaElpeXZbntf9hOy8+WaXVtlQoKCsSnUWeeKMusrqzKPCZP1cNHCXGcjys+19RxI2pfPk5hYSGtrKzIY5jnxecoz1lEuczyyrLYJyKPy3n8j8+Ly3C8IL9Afg+5Lx9J/M8L5cl9Of/XX3+V34fbRJ6UgNvrueeek/Vwm8n9BE+fPhVFInLfosIi2ratSO7L5Z4+E3niPPhY1rmK78nf3Ww33pf/87kWFhUa5cV5cnk+zm/iXEJ8HgLzGHl5efRs+Znc5rYw63n67Jmsl78fty2X43Ph+rhcUZEoL+zGdfP3Ndo8ItPZVnyeXBeHZ6IuPj5vczmuiwOfe0SU4+/P+5rfj6+Jbdu2yTJcv0wTx+XA9XOaPC7XI44tbSTifH5cv3kufJ68zUh7iX/c9py2shy95qT9RLsVifbmY/P58jW3fdt2WS/Dx/r9f78b17iAk/la49w1kWZdf6Icf8/CgkKjbnneIk9s87lzkHX99rs8DqevCPuyvQr4ehTnxd+Hy5htz+dgXiMM53EZhq9hbgMux2XYlpzPbcnXH58H24nbmq9BaUPVxpy/rWi70TbiIMY3BQAEFuP2DgAINBAyABoAIQOgARAyABoAIQOgAQlnrc2p/2TBhDgAmWFTISerRb4HQMgAZAZXQvbqmM19IGQAMgOEDALFL7/8QgMDA/KTefnll6mhoUH+4spv9Pb2UlNTE7344osqZT2PHz+mq1evUmtrq0pJnrQI2VkmsZDnaKR3mGZVjCmtbaZ3Xy0xIov36Iv+WapofpfMpI1wHeNUmrAM0JFHjx7RTz/9RK+88orcHhoaov3798u432ChXvvqKzr+zjsbxJwoLxk8z1o7tRkVrUpwRSnVNrfKO1Fraz2VjPVT78ickVXyKr3bCoGC2LAHrqmpkR64rKyMXnjhBeM3zz6EBcpCZcGycE3SLWLGk5DjiTg1yqmuuZZKZx8IPwuAe3788Ud68uSJFLRfcYp5K0TMuO5a20Vr38OZZi8bv2vt7BYv0r0v+mmhppXqytfnz4300rDZD6+op9a6crHhqEN2x8doQRbiYlyPitjySmtrhfefRZdcA+7fv0/ffPMNvfHGG7R7926V6l9MATPpFjHj2iObgmV42wwmzni6KK+LdsErZsfp3qLKsBCiFkItEeKV5YR3Xxz+QpVbn1cnRub2sTkILqOjo3JsHAQRZwIf/bKrlEqL1aaduRE5+9frmCCzWFwS/ryCdpoeWIyxayoWaGFJbHNeaS3tVXklr9aIkkAHeFzM4+MgYO9O27vZ6cSVkLmH7CV4ZnGeZhdKqNjZ3eVu8TBRvfTIzVRbqtJBztPY2EjPP/+8ivkX55jYOWZOF5sK2d6N9hLcY3Z/68h0qhZLwrOWlpJ01FLsMnU9JcVUInz1A3OmTIh/fFZ5aM5bGKO7Km/x3ji61prAj6DMZ8l+xSlik60Qs+uudSxv60yLVSY2CzTWz91lDjxpZZucslO+l2ppjPq53MgClcT0yMas9+Kwqk8+gzZvCiKvvoJmVd6I6Fija60H4+PjcsLLz/CPPZwiNjHFzGXSwaaz1gyXcHrZRGnRz7hVZwc5g71ANa0xvD8AAcZHk11bz9zdsWhXHQCNcOWRGbOU3Qs70zbGs+2RjefTY9bYuoLq4Y2BhiQUMgAgGORU1xoAXYGQAdAACBkADYCQAdAACBkADYCQAdAACBkADQgtLS3hOTIAAQceGQANgJAB0AAIGQANgJAB0AAIGQANgJAB0AAIGQANgJAB0AAIGQANgJAB0IBA/ETzH/+8qLbAZvz1L+fUln/55JNP1BbYjI8++khtJSYwQu78+wUV05eff/5ZbSUHt1NQhPzxxx+rmL6kak9uJwg5gLDhv/76axXzxltvvQUh+4xU7QkhBxTT8HV1dSrFHSMjIxCyD0nVnl6EjMkuH8JvKPYSgL+JZbNEIRkgZB8Sy7ilpaUx0zkAfxPLZum2J4TsQ9bW1tYFcx1g/nTmcQD+xmmvrbBn5oT84BI1NFyiByqaPDeoLRSSy9mEQm0iph/2u/NLL72kUg04bs/noAfCrge7aUbF4tp5ppsOWukHqdvcIV66D7DbaqvsmTkh7zxDQ0NnaKeKJsuNtqNE140vPN01QUfb9JPyysqKFR49erQh2PM5BJ2Z7oNCfEepV8WZ2Haeoe73rtDJaXXRX99D4fdY/PHS/YHdVltlT9dCDhcXU8Ml5U/ZuxY3kBmVSI8bpnBDMRWLsuHhB3TJ2jbzhUdWn5fCRp6V74obdK23lY4fMWK7jp2kAxP3fWOwdCEvRg/BDSnbTxZpsGxWbO0/vHndm7Dr7B2KTHfRARV3befKats+NuKlZ4lYNksUksG1kLvudhK1/0uYTRj49Jd04u4QnXG61+8nqeqzJVrqb6G+5tNE5vZFR5f6+3aaOibyluLku2XXbtozOknTKqoL3333nafghnTYb+eZIcNm0m7VojpWeL27ulPBsvMuOnvnbzRZqbrQlcIL/+esSI2X7g9i2SxRSAb3XWvRNf6sc5Kai/fSlyc+i22ofSfobU6vqKJ99m2ZaWNfJ31Qr7Zj5ec4/AzRS3BFOuwnva3yyM19RJMzxg3YTd1pItrlnqauA6MUvmgMreKl+4FYNksUksHTGHnnrmq15RNm7tPEgWqqVFFdsM9gRruy0WDP5+CWlOzHIt7L3lZ5ZOGF7TfgLb02TDvPdNOFiS46J7vc7IWFaCcuUPdInHSfjLnstkqnPe14ELIYCzUT9S/1U3X7aU9joPRxhI639tI1dbOdGbxCo3t2+6YLlS7s46UnT56oVAOO2/M5uCMN9jO9tODBf7+k741NQbqvjTh2ll3sMFnOdmaQrozuod11cdJ9cmHYbZU+e67Hw2QXW6pLjIjEmIjHR3vDwnyZ50jPdaKjxlioMryHrveoGRGNcBr28ePHMp0/nXkc3JCy/UT3+Vx1O+1VXuT0VLXyyDzZlVrdcta6MkyjQoyVwq48QR3bzkeoZ7qLJlS6HAtP94jUeOn+wGmvdNjTCX5r7SPM3+a+/vrrKsUd3377rRxb4bfW/iJVe+K31gFneXnZUwD+JpbNEoVkgEf2Ean+2Rs8sr9I1Z5ePDKE7CPY8KkAIfuLVO2ppZCBO4IiZOAOrYQMAEgMJrsA0AAIGQANgJAB0AAIGQANgJAB0IBAzFrjcYV73D6uyCawp3u0evyEHxC4w8sPCLIJ7OkOL/aEkH1EJn/Sl01gz83R8ieauWb4TKxMkE1gz8RgpQlNiPU3qokC8DexbJYoJAOE7ENiGRcrTQSXWDbDShM5gPMdTlhpItg47YWVJiRYacKezyHw3GhT9gzRQeuNeXY7czBXj3CZbi1cEK985rDbCitNKLDShGYrTbCIpUkNm945a39jXquVHoncoWhWjPQb16zrQr4Sd91bNOPVkxnsttoqe7oWMq86EF0Rgl+4hpUmtgrjgnMf3JCy/WSR9K80cePaBHWl40V5R3oo+h7GaZr06Vs03YRkcC3kM+daqG9QWXR4kPpaznleqcACK00kJNbqA4mCG9Jhv/SvNME35lEKmytEiLC+g9VLR1V6tMvNxEufoe6DnH6NjkfsN4d45TNDLJslCsngvmtdf4xa+gbla06HB/uo5Zi5VIQNrDSRFvgZopfginTYT3pb5ZHTttKErdsrX2lrznscoR7LS12nPeH3VFc5XjrDL6fn9ON0zRoLJyqfGWLZLFFIBg9j5Ho61tJHg8PDNNjXQrGug4yDlSZkcEeK9mMRb/VKE7uO0ckDE3R/g9AqqTr2am1x0vkF96M0uaGrFq/81mK3VfrsuR5Pk131H3TSZHMzTXZ+IC6LbICVJlJZmSBl+6V9pQnDnhdMF2lfIeJGW7Sb7SJ9prvN5mm5y36AqvkOH6+eDGK3VdZXmpDsfJtO7NtHJ0xrZgGsNLE+j4NrUrHfFq00caRnmk5eqZT2XLdCRGW1beWIMO25njh9126yjbV5GlzNTserJ4M47ZX9lSaGw1R8sYrupuExkhdy7be5W7YyQZbs5wT2TMyWrzQhJ0nOZfciyAVirT6QKLgF9ssOsWyWKCQD/vrJR2Tyz96yCey5OV7tCSH7CDZ8KkDI/iKT9gyMkIE7giJk4A6thAwASIy3x08AAF8CIQOgARAyABoAIQOgARAyABoAIQOgAXj8lAT83mGQmM3e5Yw23Bwv78OGkJOAL8LXXntNxYCTH374wZWQ0YbxcdOGdtC1BkADIGQANABCBkADIGQANABCBiBZ5i9TU9NlmlfRbAIhB4j5y020Y8cOKzRdVpeQ84K61S7z22+peK6gvrcVcqgBIOSAwCI+NNBItx8+pIcy9FHV+UNRMZuwqFumqOP2Q+o8rNJyAHmTayHqs9rnIfXREOWKlCHkQHCLes4TdXx6ispUCtFh6rzdQTRwM+qJWcSHBqjx9lU6FS2YA8zTzQHRPrc7RatEOdxpxNf3ZJpI3vtUL+Zye9SDRx34LWq3yqt0Lm+lqTp8BIQcBObnaKqmkd50irOsnKrGp2lORgbow5wUsWD+Jg2MV1F5nO9dduqq5aUf9lXR+R6l2PHzNN1gpv+ZPv83D0/m6XKTdO3WPp2HhbAPTdP7Zh23G2ngQ3+MjU0gZF0YJ2rsEBepzy6wjFFTSeVqcwN2b9ryOdHUnNFGNR3UZrrw8kqq4U++KZAtneEbKX1OLWYdh87TuHUD9QcQchCQnneAbjoVKj21uoDZY5/qpNuNA3Qo12a54rUPYw03TG/aYQjWK0L00fkJDuu78dkGQg4Eh6lNDIfXe1vu7omBc+ObtnEzdyM/pY6plo2TYFqj2udQ+7rJrVvtKm4blsyLwbTovMSn7E1qpPNk9r4l8kbhSPMZEHJA4HGe9LZm986YoqWrGwbEZXTqapwZbY2R7dMxFe3+itBCDXS47BS9X3XearcPp6s28cii/T7toKmWaD3tt4yJRXvaDp88PzbBXz8lAf5yJzH466fUwV8/AZCDQMgAaACEDIAGQMgAaAAmu5IA75vaHDeTXSAxXia7IGQANABdawA0AEIGQAMgZAA0AEIGQAMgZAA0AEIGQAMgZAA0AEIGQAMgZAA0AEIGIPAQ/R+/b3Tz5yFy3gAAAABJRU5ErkJggg==;" parent="1" vertex="1">
          <mxGeometry x="-280" y="-406.96" width="172" height="90.26" as="geometry" />
        </mxCell>
        <mxCell id="dBWfP9nQoVJAbgOZJAba-19" value="dialogaxes.h" style="rounded=0;whiteSpace=wrap;html=1;" parent="1" vertex="1">
          <mxGeometry x="-278" y="-496.96000000000004" width="170" height="30" as="geometry" />
        </mxCell>
        <mxCell id="dBWfP9nQoVJAbgOZJAba-20" value="dialogaxes.cpp" style="rounded=0;whiteSpace=wrap;html=1;" parent="1" vertex="1">
          <mxGeometry x="-278" y="-466.96000000000004" width="170" height="30" as="geometry" />
        </mxCell>
        <mxCell id="dBWfP9nQoVJAbgOZJAba-21" value="dialogaxes.ui" style="rounded=0;whiteSpace=wrap;html=1;" parent="1" vertex="1">
          <mxGeometry x="-278" y="-436.96" width="170" height="30" as="geometry" />
        </mxCell>
        <mxCell id="dBWfP9nQoVJAbgOZJAba-22" value="" style="shape=image;verticalLabelPosition=bottom;labelBackgroundColor=default;verticalAlign=top;aspect=fixed;imageAspect=0;image=data:image/png,iVBORw0KGgoAAAANSUhEUgAAAQIAAAE4CAYAAACwrv2bAAAAAXNSR0IArs4c6QAAAARnQU1BAACxjwv8YQUAAAAJcEhZcwAADsMAAA7DAcdvqGQAABSiSURBVHhe7d1NaBxH3sfxvx54eB6ek0nIYU9+iR09CB+MHAyPvMQ4iRVs+bA2OIe9ZPBBsg/JKoGEFTwgfAhaIkjk3YNjHxydcrDAysGysZTEcdhNQNjKJQi0Umz5kr0kRLk8l4Toqaqunulp9bxU97xUT38/0Gi6ZkYaj7t/XVM9Xf++8fHxbQFQaH3bir0NoKD+zf4EUGAEAQCCAABBAEAhCADUP2vQ19dnb6XDCQkgHxoGQdp9WWcIQQDkQ1NB4NoxCJ9DEAD5wBgBCmNzc1P27t1rDnB6OX78uGxtbdl7/aJf38OHD+3aTvo+/ZhWaUkQuB3478iY/Y8Il6OXN+x91e6MqfvH7ti1uA25fDTye45eVi1AbToIXnvtNfnpp59kfn5evvjiC5mdnbX3+uXBgwfyP0d/nxgGuk3fpx/TMvqjQS3B3WJ+hkut9Wh7pS3J7e1RGdqeWberZl09fvS2XbfWZ7aHhka3R4eij7X0feo5VU9RbTOxXwHUc+jQoe3JyUm75h+1o2//+3/8p/kZSmprhVp7q5G0g8fX691OFg8CxezYo+qeivWZoe0h9aDwZ8X69sxQLAQARx988IHZRr/55hvb4qfojh+93Wq19lajeqeu3tHDJd4WfWyyhCDYsXPrdfsY0zOYUS1WQmgALj766COzfeqfeRAGQLtCQGt6jEB9DC/Tt8MlFF/PZGNBbsirMrJf3d4/om7dkIXoAMDQgBywNwFXb775pqgegZRKJdsCj84aDMmA3bs3Fm6IvDoiOgdUEsjIqyLj05FBw69WZd3eBFzpMwWHDh2ya34LBwa//sffzVJrADEz2zNIFNydbqn9qxuNEdjBwx1LeD9jBMjm3r17248fP7Zr/koaE0hqa4WGPYLoxwCXpXl3ZOzAuBy8fVVOmtVP5NrQjKiciCTLuswMXZNPTKdgv/zpf0fl2qk+qTqzuHFZLtc60whE6NOG+lSiz6I9gcOHD9tWMbfb0jMwcVCDvjtcwn2yXtvO9STxI3517+D2qMTOEgTWZ4aqTzGaXkTk90QHFIE69PZSKpXsmp/0a6x31Nf36ce0SlMXHelHxI/y9doqP2v+agAe4SvGAJoLgvAoHz3AJ7Vpej3eUwDgN2YxBsBHAwAEAQCFIABAEAAgCAAoBAEAggCASN/W1hbfIwAKjh4BAIIAAEEAQCEIABAEAAgCAApBAIAgAEAQAFAIAgAEAQCCAIBCEAAgCAAQBAAUggAAQQCAIACgEATonEdXZHj4ijyyq/AHQQBjeNcu2RVZxpfsHR21JOMERVcQBAgcmZKVrS3Z0svKlKxOd3aHfHRlWAXQOZm16+gsggA7fbcmywP7ZZ++rbvz5Z7CuDpmB4IdN2wflis6NWzX/8p45LHR5w9OyLJuS7Dv4qIJoCN2HZ1FECCwPCGD4Q57blWm3jihGlVXXe28A3NBT2FlalXO2c8MZscNexBzAzLxVxsR6vesjej2GTkRez47ur8IAgSqPhqckfkL6qPBow1ZVe0mE5R9r5yRI7MLO4/051SHfnUj+CgRebzEng9/EQTYad9+GVhek+/s6g46BAbn5cwKR/peQRBgp6UFmT3SL8+aQJiQsNf/6O68LJdGVJdfOXJGXjGDCLY9uFnNPH9e7tpRx5qPQ9cRBAhUjRGIzC1elH1ql5/RZxDOBe2DEwMyN6NiYN9FeXug8vgLawM1egTq+Xr8YLDR43QnYzgYTLSvozunL4uL2ocA6BEAIAgAKAQBAIIAAEEAQCEIABAEAPgeAaxdf/mXvZV/W3/+nb2FZhEEMHQQbE/9t13rnp9//tneSkf/OwgCdwQBDJ+C4NNPP7Vrbl5++WWCICWCAIZvQfDSSy/ZluZ89tlnBEEGDBZih76+Pnure7a3t50WZEMQwEtJO/tTTz2V2K4XZEMQtIqdr6/jM/B26++22W+//Va1PP3006Zd/4zfpxdkQxCksTQeXLcfLl5fPJ9mivCTMqY+HuiPCMFyVC5v6PY7TbSPqbWQa3tF9Gj/zDPP2NaAXo/erxdkQxA4MhNo6Ik7wvn91DIndh4/z2SbInxUbpd3tH/In/bb5oT2O2OnRDWatvWZb+XUWLBru7ZH/frrr+Xl+++/37FE79cLsiEIHN2dF5la0TP0VpyYqazfNVN5B0vYUWg89Xfk8bXaNX2fbSv/njo6M0X4Hfnk2qj84WSwtn/kVRn69p+y4dxeLQia5hdkQxA4ml8ekP12rr4dylN5q2WuJLO2SEjjqb+rH5/crqcGX5O3w98TzjRsflE7XJNTtvt+NOj/W7Xarf3PycGvVmXdrpY5tn/99ddOC7IhCFzpST3tzR2iU3c/2185EkeP5LWm/o4+PqldTw2uOvnnwt9j5verM9NwJnfkavloe1sOjr9mxwJO1mhvPf2dAJcF2RAEjqKz8jZFh0Crpv5WAVGuPWCW6o8o7XFABobszSo12jf+Kd8ODah7Yxzbo2cEwo9I0SV6v16QDUHg6I0pkYnBSukvbWm8en2HZqb+biQ2tXhbnbwq5fG7jQW58dVBeU4PFt4ZS2g/KX8YvSaf2PaNhRvy1cHnZL/qPbi1V4t+/v/xxx9ta0CvR+/XC7IhCBzpz/um9Ffk6HRO7Fz/SZqe+ruR6qnFzdLgtGDqKcLXV+XbU/b03oFxOXj7qtp9lQMDie0nr94Wse0Hxg/K7avBSKBre1R8R//hhx9Mu/4Zv08vyIZrDWDsilxroHfQbu1c4bUGL7zwgm1pzpdffmnGCvS/g2sN3NEjgJd++eUXpwXZ0COAEe0RdBOXIXcHQQDDpyDIgiBIhyCAoXegXkEQuCMIADBYCIAgAKAQBAAIAgAEAQCFswYw3nvvPXsr/9555x17C80iCGDoIHj33XftWvdk/UKR/ncQBO4IAhg+BUGWrxgTBOkQBDB8C4K0lY4IgnQYLISX4vMNNFqQDUEALyXt7FQ6ah+CoFXsNOTtm1W4hm793TaLz0lIpaP2IgjSyEOlo6oaCLtkuFERhCrNVDSq1U6lozwiCBzlptLRd2syMBe+xjkZmLjQsCBKNSodFQlB4Cg3lY5OzMhM+UU+K/2p51BvhEpHvYAgcJTLSkeP7sq8VKZUbw6VjoqEIHCVu0pHOkBUDHx4UZrPgVoVjah01KsIAkf5qnSkQmDXtPSvLMpFp95AFJWOioAgcJSbSkemF5IyBBIrGqnbVDrqWQSBo7xUOgoCZ1mFVuXxTZ9CrFHRiEpHvYtrDWD4dq1B2kpHXGuQDj0CeCmpmlG9BdnQI4DhW48gDXoE6REEMHwKgiwIgnQIAhh6B+oVBIE7ggAAg4UACAIACkEAgCAAQBAAUDhrAIPTh8VGEMDgC0XFRhDA8CkI+Ipx5xEEMHwLAioddRaDhfBS0pwD9RZkQxDAS0k7O5WO2ocgaBU9NRiVjlomPichlY7aiyBIIw+VjszEpWlfI5WOioYgcJSbSkdLC/pF2te4IlOr01Q6Qk0EgaN8Vjr6TtbqFWbJhEpHvYAgcJSvSkeP5MqwDo0FGWlYAyGOSkdFQhC4ylWlo31ycVEHx4gsNOpBVKHSUdEQBI7yVekodEJGSsuy1rg+WgIqHRUBQeAoL5WOHl0Zj/QAlmRh9oj01+zKxFDpqHAIAkd5qXSkciNS5Uif5nAofUalo8LhWgMYvl1rQKWjzqJHAC8lVTOqtyAbegQwfOsRpEGPID2CAIZPQZAFQZAOQQBD70C9giBwRxAAYLAQAEEAQCEIABAEAAgCAApnDWBw+rDYCAIYfKGo2AgCGD4FAV8x7jyCAIZvQUClo85isBBeSppzoN6CbAgCeClpZ6fSUfsQBK1ipyF3mc6wJbr1d9ssPichlY7aiyBIIxeVjiqWdI0Ep7Cg0lHREASOclPpyNIhMC2lFPMkUumoSAgCR7mpdKTovzvdvyKLb/Tblnag0lEvIAgc5aXSkQ6BC/KhLDY9dXEclY6KhCBwlYtKR49Uz2VZ5clg5LETMqh6Gs2h0lHREASO8lHpKCx1Zhf9N/VzFy/a+11Q6agICAJHeal0lAmVjgqHIHCUl0pHmVDpqHC41gCGb9caUOmos+gRwEtJ1YzqLciGHgEM33oEadAjSI8ggOFTEGRBEKRDEMDQO1CvIAjcEQQAGCwEQBAAUAgCAAQBAIIAgMJZAxicPiw2ggAGXygqNoIAhk9BwFeMO48ggOFbEFDpqLMYLISXkuYcqLcgG4IAXkra2al01D4EQavYacjbMmNQPd36u20Wn5OQSkftRRCkkYtKR0syHn2NTdRBqKDSUdEQBI7yVemoFHmdi+JW4oBKR0VCEDjKU6WjzqDSUS8gCBzlpdJRoFIQZdg5Nah0VCQEgatcVDrSTshMGBpbczIwccGhB0Glo6IhCBzlo9JR3LPSn/qPUumoCAgCR7mpdLQ0HhlbuFv/I00clY4KhyBwlJtKR+ojRfmx6mPEwFyzvQeFSkeFw7UGMHy71oBKR51FjwBeSqpmVG9BNvQIYPjWI0iDHkF6BAEMn4IgC4IgHYIAht6BegVB4I4gAMBgIQCCAIBCEAAgCAAQBAAUzhrA4PRhsREEMPhCUbERBDB8CgK+Ytx5BAEM34KASkedxWAhvJQ050C9BdkQBPBS0s5OpaP2IQhaxU5D7jpXcGbd+rttFp+TkEpH7UUQpJGLSkdK5HW6TWdOpaOiIQgc5abSkQ6ByOtcdCtzpFDpqEgIAkd5qXS0tLC643W2B5WOegFB4CgflY6WZGF2WSYGE8KkaVQ6KhKCwFVuKh1FCqCaadAb1F6oQqWjoiEIHOWy0tG+V+TMkVXZcHndZVQ6KgKCwFE+Kh2dkJHSrEyHgwhUOkIDBIGjvFQ6OjGzImfmB4PHmR4JlY5QG9cawPDtWgMqHXUWPQJ4KamaUb0F2dAjgOFbjyANegTpEQQwfAqCLAiCdAgCGHoH6hUEgTuCAACDhQAIAgAKQQCAIABAEABQOGsAg9OHxUYQwOALRcVGEMDwKQj4inHnEQQwfAsCKh11FoOF8FLSnAP1FmRDEMBLSTs7lY7ahyBoFTsNeappAbPo1t9ts/ichFQ6ai+CII0cVDqqrqXg+jqpdFQ0BIGjvFQ6qqqloF9jSeRIf82J2BNQ6ahICAJHeal0VEU9b3q2JG87lz1rBpWOegFB4CgflY6qLf11QqXXG83PYmxQ6ahICAJXual0ZKXqDVDpqGgIAkd5q3SUrjcQRaWjIiAIHOWj0pGVdmyASkeFQxA4ykulI5UCcuVCyt4AlY4Kh2sNYPh2rQGVjjqLHgG8lFTNqN6CbOgRwPCtR5AGPYL0CAIYPgVBFgRBOgQBDL0D9QqCwB1BAIDBQgAEAQCFIABAEAAgCAAonDWAwenDYiMIYPCFomIjCGD4FAR8xbjzCAIYvgUBlY46i8FCeClpzoF6C7IhCOClpJ2dSkftQxC0ip6bkEpHLROfk5BKR+1FEKSRg0pHJiDKr9GhBoJBpaOiIQgc5aPSkZ6vMDJzsq6l0GQNhAoqHRUJQeAol5WOojUTWo5KR72AIHCUj0pH++Ti4tuyNmhDQ9dV+PCianVBpaMiIQhc5aTS0dK4+fyiQmNFpo4sV8KnKVQ6KhqCwFEuKh2pvzm9GoaJ7h2oMFiddhwwDFHpqAgIAke5qHQUf+yju/U/0sRR6ahwCAJH+ah0FHus6ZE0rpNYRqWjwuFaAxi+XWtApaPOokcALyVVM6q3IBt6BDB86xGkQY8gPYIAhk9BkAVBkA5BAEPvQL2CIHBHEABgsBAAQQBAIQgAEAQACAIACkEAgCAAQBAAUAgCAAQBAIIAgEIQAHC76EhXnEV9jar47vrLv+wt1LL159/ZW8nYDhtzrSbtHATPP/+8XUPcgwcPCIIWaCYI2A5ra2Y7jCMIWsglCJ5c/C/zExW7r/yf+UkQZJMmCBgjAEAQACAIACj5C4J7E7J7926zTNyzbc3YvC5nz16XTbsKdJVn22N3gkC/CXZndtup78lEaU0m7z+RJ0+eyNRx2+yqgKGwef1s1ft99rr918ffCxu0TiHbCyIHGLMU7A3oXo/g8KTcVzuz3qGf3J+UtVITG9/mY1mTftm7x66jKToEjt06XXm/n8xK/6VjlTAI6VCwQZs6ZHPIhGRJZLb8/jyRWVlUh53i8OOjwZ7zclOHwd/skamqx3BWgu1V9QaOXZKH8rGUdLs6iv296ihnHxc/wu04+m/K9bfU73l4SY6p5+3YGXrOPbl6SWTy/fNSyc/jMqXeb7n1efX7dOyWnL5/U84XKmg35fNb6v25P6XelYrjU8F6dU+qehu7PhG2Rw9iajstP962J27PfvFnjGDPXul/uC6PzQ6/Lq+H6Xz/tNx6S+/IwcZ7OOxJ3Dwvvz9/s5zgT2b75dLVZjJ8j5x/v/J7bvb6Vq97UYdPy4vxf2b5/dZuyVuFDAFl83O59bB2L3NPrW1MHUjWh8P2P8rH5iCmDjJnTdei/Jyp47W2Z7/4N1houv/2qK8X3Qsob7Ax0aQtfSyy9ti7NzgXHoqcnlQbuYcbaEccPiB77c0dam1j6kAyFnYh9h6Qw/qnDhWJtGsu23MX+RME5shl/0Oi4wdmqe62GeWubJi06ihv70KEOfLfks/je3jV+616DOen5P7pW3KsaKOEtd4frVXbWDPbc5d5EgTB5//+19XnWPMfc0ma6uVHuryb6oOeOrAFIolb1R7lYSq3x3EZm5TY0T54v+X0i5FxA90Nfl8m10oFGDeJsu/PsQn1rlTcm7DrtbaxJHtelNMS23Zdtucu6l4Q2MG6YADlb3KgPFIdjAXoswjBfWqpGuyz9pyX1/srv+Ot9f4grVX7+5Nr5a5YuT1KP/ePQXetCBu9/pxrjvb2PdkdDJEnjI/skfM3a5xR6GHm/YlsM3opybAcr7WN1RSMP0W33Yl7TW7PXcZFRy3ERUfZcNFRa3DREYBUCAIABAEAxghaymWMALUxRpBNmjEC5ixsMYIgO+YszK6tQQCgNzFGAIAgAEAQAFAIAgAEAQCCAIBCEAAgCACI/D+/VeFAAcTd4QAAAABJRU5ErkJggg==;" parent="1" vertex="1">
          <mxGeometry x="-94" y="-406.96" width="218" height="263.63" as="geometry" />
        </mxCell>
        <mxCell id="dBWfP9nQoVJAbgOZJAba-23" value="dialogdac.h" style="rounded=0;whiteSpace=wrap;html=1;" parent="1" vertex="1">
          <mxGeometry x="-70" y="-496.96000000000004" width="170" height="30" as="geometry" />
        </mxCell>
        <mxCell id="dBWfP9nQoVJAbgOZJAba-24" value="dialogdac.cpp" style="rounded=0;whiteSpace=wrap;html=1;" parent="1" vertex="1">
          <mxGeometry x="-70" y="-466.96000000000004" width="170" height="30" as="geometry" />
        </mxCell>
        <mxCell id="dBWfP9nQoVJAbgOZJAba-25" value="dialogdac.ui" style="rounded=0;whiteSpace=wrap;html=1;" parent="1" vertex="1">
          <mxGeometry x="-70" y="-436.96" width="170" height="30" as="geometry" />
        </mxCell>
        <mxCell id="dBWfP9nQoVJAbgOZJAba-26" value="dialogdsc.h" style="rounded=0;whiteSpace=wrap;html=1;" parent="1" vertex="1">
          <mxGeometry x="200" y="-496.96000000000004" width="170" height="30" as="geometry" />
        </mxCell>
        <mxCell id="dBWfP9nQoVJAbgOZJAba-27" value="dialogdsc.cpp" style="rounded=0;whiteSpace=wrap;html=1;" parent="1" vertex="1">
          <mxGeometry x="200" y="-466.96000000000004" width="170" height="30" as="geometry" />
        </mxCell>
        <mxCell id="dBWfP9nQoVJAbgOZJAba-28" value="dialogdsc.ui" style="rounded=0;whiteSpace=wrap;html=1;" parent="1" vertex="1">
          <mxGeometry x="200" y="-436.96" width="170" height="30" as="geometry" />
        </mxCell>
        <mxCell id="dBWfP9nQoVJAbgOZJAba-34" value="dialogioctrl.h" style="rounded=0;whiteSpace=wrap;html=1;" parent="1" vertex="1">
          <mxGeometry x="516.5" y="-496.96000000000004" width="170" height="30" as="geometry" />
        </mxCell>
        <mxCell id="dBWfP9nQoVJAbgOZJAba-35" value="dialogioctrl.cpp" style="rounded=0;whiteSpace=wrap;html=1;" parent="1" vertex="1">
          <mxGeometry x="516.5" y="-466.96000000000004" width="170" height="30" as="geometry" />
        </mxCell>
        <mxCell id="dBWfP9nQoVJAbgOZJAba-36" value="dialogioctrl.ui" style="rounded=0;whiteSpace=wrap;html=1;" parent="1" vertex="1">
          <mxGeometry x="516.5" y="-436.96" width="170" height="30" as="geometry" />
        </mxCell>
        <mxCell id="dBWfP9nQoVJAbgOZJAba-37" value="" style="shape=image;verticalLabelPosition=bottom;labelBackgroundColor=default;verticalAlign=top;aspect=fixed;imageAspect=0;image=data:image/png,iVBORw0KGgoAAAANSUhEUgAAAQAAAAE5CAYAAAB/B/4DAAAAAXNSR0IArs4c6QAAAARnQU1BAACxjwv8YQUAAAAJcEhZcwAADsMAAA7DAcdvqGQAAB3JSURBVHhe7Z1NbBzHmYY/7iGHBbKgqPiwAQJT/BGBgXIwZQuItLDiKKQhUUBEIdQhlxA6kNIh9sCAsuFJMKAssyFgkMlBIjcwmIsPoiEqgChBpGhHxooGKIs+RBiA4o8lLCAfIlHMBthDbJhbX3X1TM1Md7N7/rq6632CCqere0ZT4663vqru/t6mHQEBAKzkn9RfAICFQAAAsBgIAAAW47sG0NTUpF5VBpYWADCfQAGotA+zdkAAADCfXQUgaiDgvgcCAID5QACAFfz973+nGzduyL/Md7/7Xert7aVvfetbctskpqam6PTp0/Sd73xH1RTz7NkzunbtGg0NDamayqlaAEqPCRaAL2hxapPaho7RPlVDXyzS1MKG2iBqeW2AfvrKHrXlxQv6/MMZur+lNlteo4GfvkJB76gf3J4H1DLwUwr8yiB2nj59Sl9++SV9//vfl6/n5+fpBz/4gdw2De7g1//0Jzr1k5+UiUDQvopgAfDC2UXyr1v8tvX6Qp0Xmzt3Ju+I/1ds3tmZnJzZWdlS2ztbOyszkzszhYpitlZ2ZiYnd+7kP0Ag6lb07cjwd9K/QxSqeS+Ikw8//HDns88+U1vm8de//nXnv/7wB/nXxauuWkJfBhQduwje3i06CEaM5A82qL1HHz330CvHXiO6vyLG1lLE8Yv3aU/PEB3Lhw+CPa/QK/o2ALvwl7/8hZ4/f06tra2qxjx4dOdRnkd7HvVrPvIrQk0B9M6uH11apx/r/bHaFODF5/ThzBYd1KcDEg7xF4mOlYTVvsdryGPukzs7aM+LhQrVX9tD9+870w1nqrEt6hcoPwFp7yHx8fJYaifa2NhDPfnvGvC5mAIkhkePHtGf//xn+uEPf0j79+9Xtebidnym1p2fCRUBuB2d4dducSndDk1LCzWrl8Vs0da2eqnjezwjOqPopBwh8OLI0MBr9GLhQ/r8hdotPvP+Vpuzr6edtmSUsY+ODfWIvt5Crw2I+nxosUUvWo6JY1lsdvtckCSWlpbk3D8Jnb8RxHsn4NYWefVz0dOpxaun+x4veLEtYod2anP7sJgaHGzXhUR08m61c1+bOPIFbft24hZqb1VD+q6fC5LEP/7xD9q7d6/aMhs97NenA7VkVwHgSD5KCc2eVmpv2aDN0sn+i8e0sbWHmktDar/jAYjAyZMn6dvf/rbaMpfSOX/pmkCtCBQAPdyPUsKxh1452E4bC4siyHZxwm0xVHvM893jp2hRFwExP/+ct/c0iyM0gRD1Dza0kbtS6vW5IBb4UqB7L4CplHZ+l3qIQKgpgNfoXlrndcyu7BPz7B6ihakpefPD1NQCkZhr+94HwMfLObh7vCiLRK2yM4r5vL5vZoPaBwIWDPPsozYR0t+f4c/SlcWl0s8FJvLgwQO5EGgyfJNPaed3cUWAj6kFTUFXARjeWzqqB9UV/np+LADAIOJdBAQAxMquAuCO6vqA7lXH8HZpZAAAMBffKQAAIP1gCgCAxUAAALAYCAAAFgMBAMBiIAAAWAwEAACLgQAAYDFN29vbuA8AAEtBBACAxUAAALAYCAAAFgMBAMBiIAAAWAwEAACLgQAAYDEQAAAsBgIAgMVAAACwGAgAABYDAQDAYiAAAFgMBAAAi4EAAGAxEAAALAYCAIDFICOQ4fzmP8fUKxAnv/r3C+pVuoAAGA4LwOh/XFJboBL+9re/qVeVwf8NIAAgFiAA1cMCcOfOHbUVjR//+McQABAfEIDqcQXg2LFjqiYci4uLqRcALAICa2Aj7CjFBiAAwBq8OnlLS4tnPRcbgADEyeZl6u29TJtqE9SXb775pqjs3btX1vPf0n1cbCCVAtDc3FxWei9zN1ugbL4uK7ZqjFUd+hYNH5mgdbUlt5uaqEmWYbHlUqv66tFH95deeknVOvC2vp+LDaRSALa3t2l7ZZQOHRqlFX4tyvz5NlrIDhDNONsrozkayNZYAtrO0/z8eWpTm2llfeKI6JwnaEptM7eGTxDddDrO2vhDOjHsdN1a1deCr7/+Ol+ePn1aVvT9XGzAoinAAs1ND1Jfj7PV9mY/HcqtF4/WcgTPUra3EDnkNYL35aOHXpIBhRrxL2dVRKFHAEXHa9GGXt89QsuqOkl0vH2PdtbG6bDa5lH7+tQQnTrubHX0naHDDx+J6KBG9esTdEREGxPDbmTQRK4uOGKk6osiknJYVKIUG7B3DaCtgzLLq7ShNvMs56jrihMlbM8M0vQAd14xdehepQsqmthe6afZc6qjL4/Qah/Xj5PSFgEfP0KZsmijuF5GKc4b0kXHfjqwlKM1tZmnmvqlLOVOqc55c4imLonOLoTh59kDImBw6m8e8PgMjU8//TRSsQEsApZyqJ/edGP4nj4apByt310X/z9NA/rI7YqHmGa8Vej5DpvieK1eRhvTcyJCKK4HETg8ThdUZECdGSf6YIEQE5ETaq3g+OQkuYd4wdf0oxQbsFcAZGfsona1uSvaeoJT9BEfFLH+iB4ezlCn2sxTq/o8x2lSjv6n6HqIRUN9hd+ZmhUXfT8XG7BIAHqob3Ca5tRkfPP2LC1nOoIX7BbmaJojgqM8XRih34VdM5TTi8Lx8t8a7KMeWT9Lt9XCg6x3Xiac43RqaIquu/Pyuau0dGA/ddSs3gcxBRie4Fk/C8EajR9+SI8CFgH0+f3z589VrQNv6/u52IBVEUDP+AyJOF6qffdIhmbGPcZw0XG73VGBLxrIVf0eGhfz9Zx6ryyBl/uKjy/8W6J+JkMj3U79udVMItcA5MJbZ5aWxLy8Uy3IHZ+8SSIWl4txnTwvn3SC8VrVeyKmAJTtlMc2NXXS1TN/pLd91aJ8EfDZs2eynv+W7uNiA3gWQIdX6M8RXTHoUh6eBage91mA119/XdWE45NPPpFrAXgWAIAU8NVXX0UqNoAIwHAQAVQPHgf2BwJgOBCA6kFCEH8gAIbDJx+IHwgAACB1YBEQAIuBAABgMRAAACwGAgCAxUAAALAYCAAAFgMBAMBiIABJQE81Vg16OrIa5EPcvNyrno5UKdLqhV/7w/4uSW13A4AAxEAhV6BTap2bNBA3sYl8PFnPkswl2gnddn6etrdXaDTEM81FHVV2SP3f4u9RklPRj7CdvpSY2m06EIA40LMLqbwBDRWBIgZpxv0u2/N0vk7PQev5FzkRCidCWM1XqOxMDc2q3Jh2mw4EIG74pGcRGFOjmh6ueoxMhfBT379Jl3t1EeERLtqolkeNsE6mY6e4n1v0b0cchfsGc7Su3rCxmqELFzKUK1QQ9b9Jbfrorv8O+ezJop3nOB+jk7Sl9wMnq89tj+8amTq123QgACaQz1DMWYN9sg8rnPBT7efsQjLvWBudvzBI026+M05lNngh5KhWSHbqmKcI8pmO+d8Qn8viJDrIOc5spP7tmYxHRuUA2ruIZmUutE1aJzHa9/RRZva2bNvC3DRlOvQvy7+DV/Zk0c4rBb+H+Z/t9f6u8tjdaEy7TQcCYBIcCvtlH3bRR8aBaRLDqHPCcwZjzjwsXnKHGnQNEALpoXF1Ym9vz1Bm5Bxd/h9RLTpYPnOx6Lmy87FIye/meBz0jEdLisqZkWXMv3mbZolzMbYLGeC2CUHIFfwaJFGyJ3t9111pXLtNBwJgAnqGYjW6OScnF+2E487fPUv9K2pffmRk3KSnxQYo4REdMrD3uJ2mj+akADkdIjTckVigRLifkV+ujVgT1jc3hAxEyM5cc+rcbsOBAMSOCncvnKc2ORXYJfuw5ltQmlW45y1eUByg3Ohb4UaphWxhzswj83KGOr6ntksR4pOVoTJ3CF4BL8zpw8EClaOxsRx1qd4umiumOGOU4/m/U+Ugf4eA7Mlehi5RaGi7zQYCEAdqEUuG8c1j1CVGdCdBsTjJtGzCsuiLTm3n6UKm8N6yrMJtb1L/oUPUn3c22QUR5ub/LTnnDghvubeOdKvv1U2z/Vcir5zzOsAyacYrsmK5ZP7PiN/BL3sy/wYi0uFpkrsIGJkGt9tkkBAkTYiRrXmsi1b8LqXxFKLmWY/5CoT8UHM7hq3tDgEigBQhF/94KqG2PXGjj4qvlxVwLo9100gS3E1sbfcuIAIAwGIQAQBgMRAAACwGAgCAxUAAALAYCAAAFoOrADHw29/+Vr1KH7/85S/Vq2LS3GbGr92mAwGIAe4Mv/71r9WWOVTrocftChIAE9vM1LPdpgMBiAGTBaAaF90kC0C92m06EIAYMF0Ajh07pmrCsbi4mAoBqEe7TQeLgKCMnZ2dSCUteLUtqKQBCAAow+tkb2lp8aznkha82pb2dkMAQBnffPNNUdm7d6+s57+l+7ikhdJ22dDuRApAcWJMLadbEPxIaDUJHUO9f4GyRiaNvEXDTU3UJMuw2ApGH+VeeuklVevA2/p+LvGjt4/LEZpYL61PY7urJ3ECwJ2/e7ZfS5vFOd26w4lAHXFEaYCm1bZJ3Bo+QXTTOWnXxh/SieHgrvD111/ny9OnT8uKvp+LGQyJJrqd8x693WFLu6sjcQLwuxGi0Sv6M+9OFh3iDLOlo3R+uySd9KVLoj4rRutCFCEfEw/7fg+xkdl6i3L0mcItuj41RKeOO1sdfWfo8MNHJAdIH9wRLmwxE1vbHY3ECUBOy4mXR+aQC8oT55VOOkddV1QUwSmgB4KSPZa8P8kpYDr204GlHK2pTS8+/fTTSMUMpuiECvePOPF/Maltd3XYuwioCwmn1KYcrXNqaCCvbUcp8XOcJvMj8006kP25WgOIhlfbgkoaSJwA6Nli8+hptUEw64/o4eEMdapNL/SVbn2x1S36fi5m0UmZw+qlTurbXRmJE4C3xHR/pMgtx0mrLa2leLPEgy5UOml20uGIgFNDV/J+ozlOp4am6Lpa/1qfu0pLB/ZTh7PpiT7Pff68OPMub+v7ucTOrWHKr++tz9HVpQO0v8OCdteAxAkAL7at9M/mU2PzyjvNqHl523m6MprLO+sEppPWU3PzR3DG2LDv91gElFcBpJOP87k1yD1ZM45P3iQxQZbz487sAbo5qVbGfCg90Z89eybr+W/pPi6x05mhh6p9TZ1ZOnBzUsieBe2uAXY+C8Cr+zVPEx0e058FeP3111VNOD755BM5J076swD1aLfp2LsICHz56quvIpW04NW2oJIG8DRgDJgeAVRCGiKASkh6BAABiAGTBaAakiwA1QABAJHgEyatBAlAmoEAAAASBxYBAbAYCAAAFgMBAMBiIAAAWAwEAACLwVWAGMBlwPSBy4AgNNwZcCOQOeBGINBQTBYA3AocDdwKDCJjugDAGSgccAYCqcTr2fegkha82hZU0gAEAJThdbLDGai8pAEIACijNPcdnIHgDGQUxjkD8b6o36cm3KLhIxNarns/Jxw4A8EZyJvECYCRzkAbq5SZ0b/POar311mfOCJO6hM0pbYZPyccOAPBGciPxAmAkc5APeM03qNeUzt1NcAeqOPte7SzNk6FDNh+TjhwBmLgDORN4gTAeGegzds0Sx7fsdH4OeHAGcgXr7YFlTRg7yJgXZyB2KNAdP+iCCV58LXtKCV+4AxUKYkTAHOdgUTnbx6jrpV5MsI60M8JB85AvuhtSl67KyNxAmCkMxCvFcTe+f2ccOAM5FTDGciLxAmAic5AjlAs00i3+jyPY2qNvArQmaWlpSx1inkvdwA/Jxw4A8EZyA87nwXgERvOQGW498TDGSgccAYCqcTLBSeopAWvtgWVNICnAWPA9AigEtIQAVRC0iMACEAMmCwA1ZBkAagGCACIBJ8waSVIANIMBAAAkDiwCAiAxUAAALAYCAAAFgMBAMBiIAAAWAyuAsQALgOmD1wGBKHhzoAbgcwBNwKBhmKyAOBW4GjgVmAQGdMFAM5A4YAzEEglXs++B5W04NW2oJIGIACgDK+THc5A5SUNQABAGaW57+AMBGcgozDOGUgmBC18n2ZpMlBH1ifoCKe/UqWQBrvEISefKA/OQHAG8iZxAmCkM9DCnMxL6HyfFRrNjdXXGWgtRweU401RGuxb1/NOODs7azT+8JKshzMQnIH8SJwAmO8MtEGryxnqqGeyweOTVMhvqaXBLqpfo5zMjgtnIAbOQN4kTgDMdQYSIiEFZY76tseFLDUIToNNZ6gvn+96nSaOcMh7nU7tONlxi4AzkC9ebQsqacDeRcCaOwMJkZhnQemjuebeupuDOog5bqfo/n98W8t330Fv3+MR6hRdz8+Fo8HXtqOU+IEzUKUkTgDMdQZy6aG+wWVa9Q9HagQvcF2izJoz3y2HjTGWKFc65MEZyBe9Tclrd2UkTgBMdAbavJzVRvwFmps+RF31VCN5FaC8869PDGsjH8+BD1OmE85ATjWcgbxInACY6AzUJs6qgiuQ/LC6WoTJk1n8L9vpXuJy5r1imqvV8Qq4IxBwBoIzkB92PgvAq/twBirDvScezkDhgDMQSCVeLjhBJS14tS2opAE8DRgDpkcAlZCGCKASkh4BQABiwGQBqIYkC0A1QABAJPiESStBApBmIAAAgMSBRUAALAYCAIDFQAAAsBgIAAAWAwEAwGJwFSAGcBkwfeAyIAgNdwbcCGQOuBEINBSTBQC3AkcDtwKDyJguAHAGCgecgUAq8Xr2PaikBa+2BZU0AAEAZXid7HAGKi9pAAIAyijNfQdnIDgDGYV5zkAFFrLiO1Xz74SixAlnVwegtDvklPwecAYKTeIEwEhnIAV3/jEaLOQRrBcRHYDgDARnID8SJwBGOgMJWJjGulZo/q0uVVNHIjkAwRmIgTOQN4kTABOdgbjzn6MrPo5B9aJCByA4A/ni1bagkgbsXQSsmTPQJt2eXaZlMQ2R0US3ihRE5FBfqncA8oOvbUcp8QNnoEpJnACY5wzkWoKpIqYjMlKYP6/215uIDkBwBvJFb1Py2l0ZiRMAE52BGk00ByA4AznVcAbyInECYKIzUKOJ6gAEZyA4A/lh57MAvLoPZ6Ay3Hvi4QwUDjgDgVTi5YITVNKCV9uCShrA04AxYHoEUAlpiAAqIekRAAQgBkwWgGpIsgBUAwQARIJPmLQSJABpBgIAAEgcWAQEwGIgAABYDAQAAIuBAABgMRAAACwGVwFiAJcB0wcuA4LQcGfAjUDmgBuBQEMxWQBwK3A0cCswiIzpAgBnoHDAGQikEq9n34NKWvBqW1BJAxAAUIbXyQ5noPKSBiAAoIzS3HdwBoIzkFGY5wy0QFnt+zQ391KjsobdGm6ipiMTKt89nIGcAmegsCROAMx1Bhqkmfx3mqdGWARw579EQ+QmwYUzkNs54QwUlsQJgKnOQI1mfeIIXcqs0b0LGVUDZ6Bi4AwUhsQJgInOQA5OxuDQU5Iq4M7/c/oj3eNhzg84AxUDZyBP7F0ErJkzECOikHz4z1OSc3VcA1inuatLtJTtdOa2nVlaWspS55E/0f+qI6qFr21HKfEDZ6BKSZwAmOcMVEo7ddXVHti1BFNlbZwOHx6ntXs/oX9RR0jgDFQMnIE8SZwAGOkMtJB11hCYzds0u5yhDq9ZQl2BM5AEzkCRSJwAGOkM1N5FuQH1WUKMMjPjYlLQeOAM5EyJ4AwUHjufBeDVfTgDleHeEw9noHDAGQikEi8XnKCSFrzaFlTSAJ4GjAHTI4BKSEMEUAlJjwAgADFgsgBUQ5IFoBogACASfMKklSABSDMQAABA4sAiIAAWAwEAwGIgAABYDAQAAIuBAABgMbgKEAO4DJg+cBkQhIY7A24EMgfcCAQaiskCgFuBo4FbgUFkTBcAOAOFA85AIJV4PfseVNKCV9uCShqAAIAyvE52OAOVlzQAAQBllOa+gzMQnIGMwjxnIMFCNtr3qYqoTjhwBoIzkDeJEwAjnYG488vUhM538vYNqDXhnXDgDARnID8SJwAmOgMtzOVodCWeRKAF4AxUDJyBwpA4ATDPGWiB5qaXaaS7REzqToVOOHAG8sWrbUElDdi7CFhTZyDNGFREI7lAMakFtXHC8YOvbUcp8QNnoEpJnAAY7wzU9ib1HxJi0rAliYhOOHAG8kVvU/LaXRmJEwDznIF6qG9wmsbcdYFGOANFcsKBM5BTDWcgLxInACY6A/WMr1D/bLfzWd2z1F/vBcGITjhwBoIzkB92PgvAq/twBirDvScezkDhgDMQSCVeLjhBJS14tS2opAE8DRgDpkcAlZCGCKASkh4BQABiwGQBqIYkC0A1QABAJPiESStBApBmIAAAgMSBRUAALAYCAIDFQAAAsBgIAAAWAwEAwGJwFSAGcBkwfeAyIAgNdwbcCGQOuBEINBSTBQC3AkcDtwKDyJguAHAGCgecgUAq8Xr2PaikBa+2BZU0AAEAZXid7HAGKi9pAAIAyijNfQdnIDgDGYVpzkCl30eWeucGvzXspMASpZAGG85AToEzUFgSJwAmOgNxnkLnuzhlZpDoUFcdcxRz55emN86JeI9tcGQ1nIGczglnoLAkTgBMdAYqQrxnbHqQLtTRHuzW9Yc0vuYkviwAZ6Bi4AwUhsQJgHnOQMUsSIV6q45ZgfnEXqJsZyHk9RzY4AxUDJyBPLF3EbCmzkCKBoz+Dlq4uzZOD0/sPr+NAl/bjlLiB85AlZI4ATDZGaj+o78HHX105vBDelR6wsMZqBg4A3mSOAEwzxlI0bDR33G8ueQOcXAG4tU+OANVSOIEwERnINH75SJho0b/45NrdOZqp7MG0HmVzqgFQTgD8e8BZ6Ao2PksAK/uwxmoDPeeeDgDhQPOQCCVeLngBJW04NW2oJIG8DRgDJgeAVRCGiKASkh6BAABiAGTBaAakiwA1QABAJHgEyatBAlAmoEAAAASBxYBAbAYCAAAFgMBAMBiIAAAWAwEAACLgQAAYDEQAAAsBgIAgMVAAACwGAgAABYDAQDAYiAAAFgMBAAAiwn9NCBbIYNgdrOXbv7Nl+oV8GP7V/+qXnmD83B3oticRxKAV199VW2BUj777DMIQA0IIwA4D/0Jcx7qQABqRBQBeHL+n+VfUODly/8n/0IAqiOqAGANAACLgQAAYDEQAAAsJlkC8PEIvfzyy7KMfKzqwvD4fTp9+n16rDYBiBWDzsfGCwA3XnXiaJ35YxoZXKWLd5/QkydPaPQNVR0VC8Xg8funi37v0++r1pf+FkpgI4lrGtAGFlks+gHiiQAOXqS7ohNzR35y9yKtDoY46R5/QavURfta1TYIBXf+ozdOFn7vJ9PU9e7Rggi4sBgoga1YXBOIFMdBoun87/OEpmleDDd2EP8UoPUsXWMR+L0aiYoihNPknKdi9D/6Lj2gD2iQ68Wo9d9Fo5o6rnREKxvtH9P774jPefAuHRXvK+sEqeNjmnyX6OJ7Z6mgm2/QqPi96cZHxb/T0Rt08u41OmuVwD6mj26I3+fuqPhVCrwx6mwXR07F59j7I269PniJ8zR/vKr3PJ/NwYw1gNZ91PVgjb6QHX2NfuGq8d2TdOMd7sDOSXvQjRyunaV/O3str9hPprvo3ckwmt1KZ98rfM61tJ/tHDUdPEk/Km1m/vdmbtA7VnZ+weOP6MYD/6iy1e8cEwPIWq9b/zP6QA5eYnA5LUOJ/HtG3/A7n83BrEVAGearUZ4Lj/r5E7UEXVkHPyBa/cKoHzYxPCA6eVGc3IadmA3jYCftUy/L8DvHxAAy7IYM+zrpIP9lMSGtnolyPseEGQIgRyr1H0JfH5ClODyT5ENWV1nFqK52AQ050t+gj0p7dtHvLSKEs6N09+QNOmrb6p/f78PU6hwLcz7HiAEC4Mzvu34h5qnyP8i7FCqa10Lbx2IiJwYyB01hi+p1DFPh+vEGDYvpfvHo7vzedPJH2roAh7vv0cXVQQvWRXTU73N0RPwqBT4eUdt+55gXrT+ik1Ry7kY5n2MiHgFQi3DOwsjvqTO/8uzM9fmqgLNPlKJFPEXrWfpFV+Ez3lnrctRZ1L93cTUfcuXrdfi9P3PCMhtOdp7HytFd/SYvO0veHusfrXT2ms8VghQjfx/tnOEySL30ht855ouzvqSfuyMfhzyfYwQPA9UIPAxUHXgYqDbgYSAAQGggAABYDAQAAIvBGkCNiLIGAPzBGkB1RF0DQE7AGgIBqB7kBKyeuggAACB9YA0AAIuBAABgMRAAACwGAgCAxUAAALAYCAAAFgMBAMBiIAAAWAwEAACLgQAAYC1E/w8oDFZdBRK3lwAAAABJRU5ErkJggg==;" parent="1" vertex="1">
          <mxGeometry x="490" y="-406.96" width="223" height="272.65" as="geometry" />
        </mxCell>
        <mxCell id="dBWfP9nQoVJAbgOZJAba-39" value="dialogsettings.h" style="rounded=0;whiteSpace=wrap;html=1;" parent="1" vertex="1">
          <mxGeometry x="826" y="-496.96000000000004" width="170" height="30" as="geometry" />
        </mxCell>
        <mxCell id="dBWfP9nQoVJAbgOZJAba-40" value="dialogsettings.cpp" style="rounded=0;whiteSpace=wrap;html=1;" parent="1" vertex="1">
          <mxGeometry x="826" y="-466.96000000000004" width="170" height="30" as="geometry" />
        </mxCell>
        <mxCell id="Q7GEe4TqaoBqQ411YMws-23" style="edgeStyle=orthogonalEdgeStyle;rounded=0;orthogonalLoop=1;jettySize=auto;html=1;exitX=0.5;exitY=1;exitDx=0;exitDy=0;entryX=0.5;entryY=0;entryDx=0;entryDy=0;" parent="1" source="dBWfP9nQoVJAbgOZJAba-41" target="Q7GEe4TqaoBqQ411YMws-11" edge="1">
          <mxGeometry relative="1" as="geometry" />
        </mxCell>
        <mxCell id="dBWfP9nQoVJAbgOZJAba-41" value="dialogsettings.ui" style="rounded=0;whiteSpace=wrap;html=1;" parent="1" vertex="1">
          <mxGeometry x="826" y="-436.96" width="170" height="30" as="geometry" />
        </mxCell>
        <mxCell id="dBWfP9nQoVJAbgOZJAba-42" value="myqspinbox.h" style="rounded=0;whiteSpace=wrap;html=1;" parent="1" vertex="1">
          <mxGeometry x="-11" y="-820" width="170" height="30" as="geometry" />
        </mxCell>
        <mxCell id="dBWfP9nQoVJAbgOZJAba-43" value="myqspinbox.cpp" style="rounded=0;whiteSpace=wrap;html=1;" parent="1" vertex="1">
          <mxGeometry x="-11" y="-790" width="170" height="30" as="geometry" />
        </mxCell>
        <mxCell id="dBWfP9nQoVJAbgOZJAba-45" value="myqchartview.h" style="rounded=0;whiteSpace=wrap;html=1;" parent="1" vertex="1">
          <mxGeometry x="179" y="-820" width="170" height="30" as="geometry" />
        </mxCell>
        <mxCell id="dBWfP9nQoVJAbgOZJAba-46" value="myqchartview.cpp" style="rounded=0;whiteSpace=wrap;html=1;" parent="1" vertex="1">
          <mxGeometry x="179" y="-790" width="170" height="30" as="geometry" />
        </mxCell>
        <mxCell id="dBWfP9nQoVJAbgOZJAba-47" value="lsc.h" style="rounded=0;whiteSpace=wrap;html=1;" parent="1" vertex="1">
          <mxGeometry x="340" y="120.00000000000003" width="170" height="30" as="geometry" />
        </mxCell>
        <mxCell id="dBWfP9nQoVJAbgOZJAba-52" style="edgeStyle=orthogonalEdgeStyle;rounded=0;orthogonalLoop=1;jettySize=auto;html=1;exitX=0.5;exitY=1;exitDx=0;exitDy=0;entryX=0.5;entryY=0;entryDx=0;entryDy=0;" parent="1" source="dBWfP9nQoVJAbgOZJAba-48" target="dBWfP9nQoVJAbgOZJAba-49" edge="1">
          <mxGeometry relative="1" as="geometry" />
        </mxCell>
        <mxCell id="dBWfP9nQoVJAbgOZJAba-48" value="lsc.cpp" style="rounded=0;whiteSpace=wrap;html=1;" parent="1" vertex="1">
          <mxGeometry x="340" y="150.00000000000003" width="170" height="30" as="geometry" />
        </mxCell>
        <mxCell id="dBWfP9nQoVJAbgOZJAba-49" value="ESLSCDLL" style="rounded=0;whiteSpace=wrap;html=1;" parent="1" vertex="1">
          <mxGeometry x="340" y="200.28000000000003" width="170" height="30" as="geometry" />
        </mxCell>
        <mxCell id="dBWfP9nQoVJAbgOZJAba-50" value="&lt;i&gt;see software_structure.drawio&lt;/i&gt;" style="rounded=0;whiteSpace=wrap;html=1;" parent="1" vertex="1">
          <mxGeometry x="340" y="230.28000000000003" width="170" height="30" as="geometry" />
        </mxCell>
        <mxCell id="dBWfP9nQoVJAbgOZJAba-64" value="" style="endArrow=none;dashed=1;html=1;rounded=0;strokeWidth=4;" parent="1" edge="1">
          <mxGeometry width="50" height="50" relative="1" as="geometry">
            <mxPoint x="-840" y="80" as="sourcePoint" />
            <mxPoint x="1060" y="80" as="targetPoint" />
          </mxGeometry>
        </mxCell>
        <mxCell id="dBWfP9nQoVJAbgOZJAba-65" value="&lt;font style=&quot;font-size: 30px&quot;&gt;user interface&lt;/font&gt;" style="text;html=1;align=center;verticalAlign=middle;resizable=0;points=[];autosize=1;strokeColor=none;fillColor=none;" parent="1" vertex="1">
          <mxGeometry x="-830" y="-496.96000000000004" width="200" height="30" as="geometry" />
        </mxCell>
        <mxCell id="dBWfP9nQoVJAbgOZJAba-66" value="&lt;font style=&quot;font-size: 30px&quot;&gt;driver&lt;/font&gt;" style="text;html=1;align=center;verticalAlign=middle;resizable=0;points=[];autosize=1;strokeColor=none;fillColor=none;" parent="1" vertex="1">
          <mxGeometry x="-760" y="150" width="90" height="30" as="geometry" />
        </mxCell>
        <mxCell id="F_fzNBpN82EhKqrzM02S-1" value="" style="shape=image;verticalLabelPosition=bottom;labelBackgroundColor=default;verticalAlign=top;aspect=fixed;imageAspect=0;image=data:image/png,iVBORw0KGgoAAAANSUhEUgAAAhQAAAJOCAYAAADvb550AAAAAXNSR0IArs4c6QAAAARnQU1BAACxjwv8YQUAAAAJcEhZcwAADsMAAA7DAcdvqGQAAC1sSURBVHhe7d0PjFXnfSf83wzOW+q8LTRxnZds0jh4CK9madNii2zgVaKkYSimr9ZEBUurVY2SFkOltUdVkRbJm9qJXaLyyh0sNWC8jrAspYqxitN3MTIou2q05vXSmEguDOKPaaxupG1CG6gUCavG857n3HNn7gz3ztw7z51hBj4fdDTnPPfec88599zzfO/zPPfS86Mf/WjkT//0TwMAYLp63n777ZGnnnoqhoaGqiIAgM70vvfee9UsAMD0CBQAQLbea9euVbMAANPTOzIyUs0CAEyPQAEAZGs7UPT09GRNAMDNq6NBmSl7TGcCAG5uHXd5pMaGTiYA4OZnDAUATKFZV36zaa5J2/TGG29US9dLt3Vru7seKDpb3ZF4qGdN7LlQLdZd2BNrmpVP15GHGl7wh4pnnQ0XYs+ahhNtzZ6iBID5KtWXk01z0fe///349Jr/q2moSGXptnSfbuit/k7LxOOXllPQyT6ufY/EayOvxSN91XKOFE7ui3ilesFHzvfHuZlOFGUgWhbDjzacbM9HHJ6dJAMApXvuuSf+v9f++3Whoh4m0m3pPt0w7UAxMTSk5RQm5pzzw3F8dX8sqxZTWHlkfTU/Iy7EngcHY8UrI/FM4/PM+PMCwPUmhoqZCBPJtAJFPTzUWyMmhoukWVn7GrtCqvk9Y90Waxr7QsrWgHrXQpPujPX3x9bjg/Fg0/6T8d0SD1UPPvLQWFlPvXCq7ai7cDhePL417p8kPEy6/iNj+5NuurBnTfPna7rftXU89FB6TK2s+XMBcCtpDBUzESaSaQWKom4alebrU93E5XzHY3D4/iKkjMTIK1vj+ODusQp02Yux+XzVrfBKxBPXVfLr45mR87H5xWXFNo2FhlqYWBYvbj5fe2wx1VsU1j9Tra9Y4db9TzSM5Wi1HRM0tog0Men6n4h4vlr//vt64sF4vsnzTbbfx+NUf3rMM8WeT/ZcADfG6IecKSbml6wxFLNndQztqNf298fWOBXnUsV44VwxV1TCy6oT8L79cXz4fO1+4/TFI68Vler5oThVVNJlqKhaEh5tNlBjdBDnfbG/KqppsR0THR+OZlsxarL1P/9IsbWFcv2rY/OGavva3u+GxyQtnwvgxqh9yJl6onsauzkauz+6qeNAkV7jTqaZt3VswGWaxg1cmKDvkXh+aHXsf7lpu0LNuEGc56O4e2f6NsTm1fuj5VPkrn9UG/vdtecCYL6aOGZi4piKbin/t9F2k2DxQXda04zp+0SsKD53X9/N0eDInoZm/gtx+MXjsbp/2WjFf91jGwdxlq0YZWkH+uKRR2vdFeOGLBSV+560nL3+Qjv7nXTjuQCYt1oNwJyJUNF79erVePfdd6vF9qT8MTGDTCxrdp/mGprui6npQMeW1scz54eiWMHo468beLj+EzE8uv5lMbjilXit7OZI3SCvxIqGx5YPXb8jhmIwlqWyB4djxXQ+1a9/ZrR7ZXS7HozYUA5q6ML629nvpCvPBUAyer1tMc1F995773Vhoq4eKtJ9uqHn1VdfHXnppZdi//7Je9jrByuFhInHbbKysb9tpQsAYB7q/chHPhLvf//7q0UAgM51PCiz3urQ2ODQrCxJyxNbLgCAm0/bgWL02wRlaqhNk5VdvwwA3Kzmye9QAABzmUABAGQTKACAbAIFAJBNoAAAsgkUAEC2jv4vDwCAZrRQAADZehcsWBBz9T81AQDmBy0UAEA2gQIAyCZQAADZBAoAIFsHgeJIPNTTUw7grE9r9lyIuLAn1vSsiTRbu099fgYdeahhOx4qnjXDuO2fO4481BMPjduxJsc2HYd0p2nvwyy9Xh25EHvWNJxna/YUJclc3NZKefybbfNc0NlxS+dd+b5ulH2e3Sit9r2dYzKHzzeYozpsoVgdQ+fH/kvy1x7pi+h7JF4beS3S7KxIF7X7Il6ptmHkfH+cmzRRTLwwTFie7e1v0/r7t8b+lxt27MK5OBXH48XDY1e4C+dOxer+ZXN2HzpWVljLYvjRsXNs5PmIw5O+vp2YgUoibfOyF2Nzw/vilRXDcb66eb5J593x4fFbf+Tl/bH1/vU3z3kGzIj51+VxfjiOr+6PohqtKS5yjxTXupvOsv5Yferc6CfdC4dfjBVDQxGjF/sLURTF5g03y9X9Qux5cDBWvDISzzS+nnP69a1v8/hKdv0zz8S8PSXTebf/5SJ61R2Jl/dvjZQnACbThUAxyae+cU3BmV0Tdevvj63HB+PBZk943fOlbbsv9hef7AeXFWUPfW3Cctqixu2v5veMdamMa/5tWP+aPXsaHje+mX58V8U09W2IzfFi1BokauGhf8MnYsXoxf58DB9fEZ8oK7Lp7sO5qrAy7viN7cf47pfG5yqkx3Rjhy8cjhePt1FxnW/c/rH9SttY3+7a61qWltv60ENrivL74r7rXvtMU25z4/NX5/9152jt3Bm3OamLoew2aXVeNS9vfgwmuO75J0jn3er9Mdo4duTl2L/1/iogNXntJ6yr7XOl6XY0OV6zYapjUt+PI2P3u65bCIjeS5cuxdWrV6vFqVQX4+pN1eqaVVO8CRubgl+JeKIrb8L18czI+dj84rIJ29Ds+ZYV930ltta7ap75TxOWm9UExT4O31+tY2scH9xdXWDS+mufoNNtzxeV/f6yvHBkdwyueKX2mGJqutqO9cUnVhyvGiSK8FDEiw196+P+rafiXDqM4y70E01jHybcNnJ+KE7dV6sMxnW/FM97anWMdr2klpNI3S7d0Njy1FSxX09EPH/dfqVWgWq70+u7/4mxSqx4zKn+58vyV6Z87aehYZsv7EkVYXpvNFSio8+fWi2anaMRjzw6vnur7GJ49JHoa3pepTCxLF7cfH5C+WTHoK7Z80+8U19s2Lw6TpUnWbUtTRNT83W1d65Mth2Nx6sbxl+zalMKlnXtHJOk4dwr3hsx+GCT4wu3tt477rgjFi5cWC1OZfwYikmvyVWf/+ib+b7is+GEvtnp64tHXqu9sU/dV4WKrj1fsY876lfo+4sKqKrA0/pXD0X9pr5HHi1uq5TNxPd1/VPL6MU5hYcVnyj2unyq8gI9On6iqWnsQ3n8Gj5t9z0Sj26tAk1D98uRl0/F5kc3p40oP0F3tdvl+FRjD4r9er6oaNNs434lowN1GyuLZPXMdgs1bHPfI68V74sUWho1PH+rczTty2jL05F4+VT1GjU7r6pWkUebDWRoeQwqbb5H+jaMvb7nikTQ9DRrta52zpVJt6Pbr9f4a1ZtaniN2jwm4869xvcGMGqGx1BsHRs8maZufSqsK97Yzw+tbvh0N8PP10qxHa8Vz/d8PFhelCZvuelAdXE+UoSH+qfE8mI/fHh2x0+Mdr+kym5zbFiflouKNFVuZctJdb8cE5vaO5GarEcH6p6P4pSYHX2fiBVFdTQaatrS7BxdHzuGTpWfjC/seSJObd4wWnG1fV61fQzaeI/UX+8jU72+TdbV9rlyg96rTXW6LSloVbPAqJkLFOXFdn+L5sMMR/Y0NDWmTz3Hq286zNDz1aX1Hx+M3dVFPV34J34KTJ9QzxdX8npzcbby4jwY9w029Cqk7dg/GIOj4yc6MNk+VMdvtEIvKqgnRgfjpWbw4oPmg/XKLi2fipd3D6dUU6v8svXVmv7rLU51xXbsmawiTRoH6paf4MvSWZCCQBSfbtvs75/kHK21CuyO3U2C4rjzqgpe162jnWMwyfOPV3u9B9OJ1+r1bbmuNs6VtrdjFrS9LQ3fsKpaiVqPnYFb0wy2UKyPZ8q+xtpYh3Lqxkf39Z+I4XrzZM+yso+5/Ppqy+dL4w6qJs2my+0q1v9KrcJL636wqOpHm01Hm5p7YtngiubN0dOSLsbFR83VjZ/s0vYXf1qOn5jMJPuQbqu6kMp9KfuVx/qxywqvqKTqlV1aPrX/1HWVX5b1z4x2Y9WPZ8+DUXzKrW5vZf2OGCqC17Ly/sOxouWn8+m+9q2V3RyvRNxX396e++LU0PMtvlo5yXsiNaOv2B/7Vzw69tim51Xq7nslVjSso3Zat3MMJnn+CdLru3rS7ofW65r6XGl/O2Zeu9uyOlYM11qKesqxRvP4mzwwQ3pOnz498uyzz8af/dmfVUW0JTUxLxuOR7s2eIxbXfqGxMv3d2tQL91zJB7qeSL6z/sNDpjM/PsdijniyO7B8b+HATlSF1N9MCbAPCRQtG38d//v2781XnmtGvUN01adV6mLqf4tAoB5SJcHAJCt99q1a+VXpQAApqvnzTffHHnuuefia1/7WlUEANCZ0S6Pxx57rCoCAOiMQZkAQDaBAgDIJlAAANkECgAgm0ABAGQTKACAbAIFAJDNL2UCANlGfynz8ccfr4oAYG771BPrqrnu+B+PvlrN3Txm+xh1/EuZ3/3ud6s5WvnN3/zNag6AmSBQTG1eBIp77723WmKi73//+wIFwAwTKKY228fIoEwAIJtAAQBkEyhmWeoO6XQCgLlOoLgB0jiLdicAmA8Eivno4t4YGNgbF6tFAGbRdK7Bt8B1e+4Fih9+M774sY/Fx6rpi9/84Vj5F78Z1VL7pvs4bi1CGvPMwOLFsXjwWLVUc2ywKJvD5/HFvQOxOG13NQ3snfvvuPI4N0wTDnnXzcdjVDfHfinzv8XOz/6X+O2/fjvefjtNB2L5+b+rbgNg1KotsWV4d4zWN0Uo3j28KlZVi3NNqihXHtoYJy9fjsvldDD6d66c+xXmql1j23xyVwzvnrnANm+PUWUOdnksj4/fVc3G52LXrs8Vf38Y3/zDx+ONNx6Pz1atFj/85hdHWzE+9rEvRtmQUbVGfHNnKttZxJPrH3fTSZ+sR9PsYIyG52bl5afwwRgcqJc3SdsT7jN47GLsHZ1vuE/1+MWLB0YvaOOTdYvy9OmpfI6GN2V9ufq7N33Katzmiess7zeNbRy3/sb7F4/ftjNOnNgZK4uy+fSJgFvZ8tiwMeLQq7Xz9djTO6N/Y1FQ1+w9UBbP0vt0nGNRbF7s2rc9llYlEWtjqKigix2YsM7aNNMtAdPy1tk40d/XsA+FcfvecA0u5gZHy4v9ea0qTo4NFmUTj9P8P0a9CxYsiJ6enmrxRvtcDPy7b8WWFBJ2/reqLLkrvvTUH8c99/xx/PXbb8dffumuuOtLf1m1YhTTgeXx+DPV/YvwcH4gle8q1nb9424uxQm7sriIHKyl2ZO7hmNTeYa1Ki+cGI7l+6r0e3BLHNjU+Aao1O9T3r4toj5fJvO07rOxo56gT26MQ9tqF52l24/Wysp198fOp4s1F2+CbTv742BVfrD/bLxVe5bmikr97IZ036HirdT6uaa7jWPrb7z/0ti+b1esqj6JHN0+7nIBc9bd23cUn2CfjmPF+2z38K54ePR3jObI+7Tu4oUYXrUx1k18ay3ti/4T1XM1fW/OAdUHjbIS3zQcux5eW92QpH1vdq1NH3I2RXFAa/tTTENrao8oA0h509EYd6mZz8eoMudaKD63qwoJA0drrQ/jgkWDxrEWW74VcfbvauMkivDwUGrUuBWUJ2BxEanO76XrNsaqA4eLi0uL8rTQeMKu3RBbYjguTDwj6/e5e3lRyTbMp9vSuuNAbKq/wYo304n6yZ7eKKNvvAMRwxfiYnozlPevBZe1Q+kCNImG7Z70uaa7jY3rr98f5q21sWFLca6nSm1HwyfbufI+7cRcfW8W2zXW5TEhLKV9b9jusWvwq3EoGvanLoWTMnxNcXxbmePXr7n7LY/P7SrHUPy7bx2N6yJFChONYy3++o/jnuomZkHjG6ycijdHukitPBQbT9bfeMUn/vLOa2OovM+GOFxecJq0iEym2XNVN01quo+DeWbtw+m9tiU2TDzB59L7tPyUfSiq3pkxZYW8PO6uFue8xtaC6SiO08HGFuNGN8ExmluBIgWFxhaJH/5dnL1nWXy8Wow3zsfoEM17fjs+X/Vg/PC//pd4ozbbXOPjbiblCbgzUotlcvHVQ3Fiy4ZY26q8tjjm2OE40Nhi0Y4J6x6nYV3lc5Yze2Ow7ChMF6yTsWvVcFz4+2Kx4U05et+JJnuuyUz3cTkXCrhRlm6Po00r8Ln0Pl0bRe6JneO6QmrdBbFx3fgxCXNZec1sqNwn7PvotXbputgYzY/J3duPxsHY1GSs1vw/RnMrUNz1+fjts1uqgZbFlFohnvpSlLnhri/Ff6jGV3zxv34+/sPy2kDLdL8/PL+8dQtF4+NuukGZtQE7w5tqTY0rUx/oULqstCovFCf/WH9gxMGjjQOA2jF+3eWUBmoVF7Ud/WPr3na2v/bJp3jDxc6V1X1XxqGN+2L7Z7fHvpTSJ973Oi2eq7q1tWk8Lm1/ajou7mtQJvPf3HufprEbJzceGrv+lBegeTBmadJr5vh9H7vW1sZlNR6TxkGZa4eaf3tj3h6jiv9ttMvSr1tO9nPZ6bZOfgEzHeuu/ZfxqbkzjV/sOEQAzC3+t9Gp+d9GbwEpJLQ7AcB8oIWiy6ZqoQAgnxaKqWmhAADmnd5Lly7F1atXq0UAgM5Nq8uDyenyAJhZujymNtvHqONAAQA3mkAxNYECAJh3DMoEALIJFABANoECAMgmUAAA2QQKACBb77Vr12JkZKRaBADonBYKACBb74IFC6Knp6daBADonBYKACCbQAEAZBMoAIBsAgUAkE2gAACyCRQAQLYZ++/Lb7vttvi5n/u58LVUAJg70o9Zph+1fOedd+Ldd9+tSvPNyC9lpiDx/ve/vwwVwgQAzB2pXk71c6qnU33dLV3v8kgbuXDhwmoJAJirUn2d6u1u6PovZXYz7QAAM6tb9XbXWyhSQAEA5odu1dtdDxTGTADA/NGtetvXRgGAbAIFAJBNoAAAsgkUAEA2gQIAyDYjv5QJANxatFAAANm6/kuZAMCtRwsFAJBNoAAAsgkUAEA2gQIAyCZQAADZBAoAIJtAAQBkEygAgGy9ly5diqtXr1aLAACd673jjjti4cKF1SIAQOd0eQAA2QQKACCbQAEAZBMoAIBsAgUAkE2gAACyCRQAQLbea9euxcjISLUIANA5LRQAQLbeBQsWRE9PT7UIANA5LRQAQDaBAgDIJlAAANkECgAgm0ABAGQTKACAbAIFAJDNL2UCANm0UAAA2fxSJgCQTQsFAJBNoAAAsgkUAEA2gQIAyCZQAADZBAoAIJtAAQBk80uZAEA2LRQAQDa/lAkAZNNCAQBkEygAgGwCBQCQTaAAALIJFABANoECAMgmUAAA2QQKACBb76VLl+Lq1avVIgBA53rvuOOOWLhwYbUIANA5XR4AQDaBAgDIJlAAANkECgAgm0ABAGQTKACAbAIFAJCt99q1azEyMlItAgB0TgsFAJCtd8GCBdHT01MtAgB0TgsFAJBNoAAAsgkUAEA2gQIAyCZQAADZBAoAIJtAAQBk80uZAEA2LRQAQDa/lAkAZNNCAQBkEygAgGwCBQCQTaAAALIJFABANoECAMgmUAAA2fxSJgCQTQsFAJDNL2UCANm0UAAA2QQKACCbQAEAZBMoAIBsAgUAkE2gAACyCRQAQDaBAgDI1nvp0qW4evVqtQgA0LneO+64IxYuXFgtAgB0TpcHAJBNoAAAsgkUAEC29N+MjixZsiTOnDlTK8m0aNGiag4AmA+uXLlSzU1f7+nTp+OBBx6oFgEAOqfLAwDIJlAAANl6r127FiMjI9UiAEDntFAAANl6FyxYED096cseAADTo4UCAMgmUAAA2QQKACCbQAEAZBMoAIBsAgUAkE2gAACy+aVMACCbFgoAIJtfygQAspUtFOfOnSsXAACmo2fRokUjv/ALvxCnTp2qivIU66vmAID54MqVK9Xc9PWmlRiUCQDkMCgTAMjW+773vS+WL19eLQIAdK43fcOjv7+/WgQA6Fzv7/7u78Ztt91WLQIAdK73y1/+skGZAECW9ItWI0uWLIkzZ87USjL52igAzC9d+dro6dOn44EHHqgWAQA652ujAEA2gQIAyCZQAADZBAoAIJtAAQBkEygAgGwCBQCQTaAAALIJFABANoECAMjWG//rcLz27deqRQCAzlUtFP+z9gcAYBqqQPGR2h8AgGmoAsUv1f4AAEyDQZkAQDaBAgDIJlAAANl64//YEGse6K8WAQA6p4UCAMgmUAAA2QQKACCbQAEAZBMoAIBsAgUAkE2gAACyCRQAQDaBAgDIJlAAANl6imlkyZIlcebMmVpJpkWLFlVzAMB8cOXKlWpu+npPnz4dDzzwQLUIANA5XR4AQDaBAgDIJlAAANkECgAgm0ABAGQTKACAbAIFAJBNoAAAsgkUAEA2gQIAyNZ7eN+/jm9/+9vVIgBA53r/56fT/+Xxb6tFAIDO9X7qk+nPwnIBAGA6ej9SzQAATJdBmQBANoECAMgmUAAA2XrvqGYAAKZLCwUAkE2gAACyCRQAQDaBAgDIJlAAANkECgAgm0ABAGQTKACAbAIFAJBNoAAAsvUU08iSJUvizJkztZJMixYtquYAgPngypUr1dz09Z4+fToeeOCBahEAoHO6PACAbAIFAJBNoAAAsgkUAEA2gQIAyCZQAADZBAoAIJtAAQBkEygAgGwCBQCQrfdf/+Ej8dq3v10tAgB0rjdejfjI/+3/8gAApq83oj/+99urJQCAaeiNdR+J91cLAADTYVAmAJBNoAAAsgkUAEC23tNPbYiF1QIAwHRooQAAsgkUAEA2gQIAyCZQAADZBAoAIJtAAQBkEygAgGwCBQCQTaAAALIJFABAtp5iGlmyZEmcOXOmVpJp0aJF1RwAMB9cuXKlmpu+3m9961vxhS98oVoEAOhc7yc/+cn44Ac/WC0CAHTOGAoAIJtAAQBkEygAgGwCBQCQTaAAALIJFABANoECAMgmUAAA2QQKACCbQAEAZBMoAIBsAgUAkE2gAACyCRQAQDaBAgDIJlAAANkECgAgm0ABAGQTKACAbL3vvfdejIyMVIsAAJ3r/dnPfhbvvvtutQgA0DldHgBANoECAMgmUAAA2QQKACCbQAEAZBMoAIBsAgUAkE2gAACyCRQAQDaBAgDIJlAAANkECgAgm0ABAGQTKACAbAIFAJBNoAAAsgkUAEA2gQIAyCZQAADZBAoAIJtAAQBkEygAgGwCBQCQTaAAALIJFABANoECAMgmUAAA2QQKACCbQAEAZBMoAIBsAgUAkE2gAACyCRQAQDaBAgDIJlAAANkECgAgm0ABAGQTKACAbAIFAJBNoAAAsgkUAEA2gQIAyCZQAADZBAoAIJtAAQBkEygAgGwCBQCQTaAAALIJFABANoECAMgmUAAA2QQKACCbQAEAZBMoAIBsAgUAkE2gAACyCRQAQDaBAgDIJlAAANkECgAgm0ABAGQTKACAbAIFAJBNoAAAsgkUAEA2gQIAyCZQAADZBAoAIJtAAQBkEygAgGwCBQCQTaAAALIJFABANoECAMgmUAAA2QQKACCbQAEAZBMoAIBsAgUAkE2gAACyCRQAQDaBAgDIJlAAANkECgAgm0ABAGQTKACAbAIFAJCt64FiZGSkmgMA5rpu1dtdDxTXrl2r5gCAua5b9XbXA8U777xTzQEAc1236u2uB4p33303rl69Wi0BAHNVqq9Tvd0NMzIoM6Wdn/3sZ+VGGlMBAHNHqpdT/Zzq6W72KvS8/vrrIy+88EI8+eSTVREAQGdmpIUCALi1CBQAQDaBAgDIJlAAANkECgAgm0ABAGQTKACAbAIFAJBNoAAAsgkUAEA2gQIAyCZQAADZBAoAIJtAAQBkEygAgGwCBQCQTaAAALJ1N1Bc3BsDA3vjYrVYalbWLTO5bgCgbTPfQrF0exw9uj2WVotdNZPrBgDaNvOBot6KkP4uHoxjVXEUc4P15fK2xbG4nAZi78Qmh1aPbWyhaLaO626vr+Ni7B1oXB8AkKPn9ddfH3nhhRfiySefrIpau3TpUjXX3B3/fDAGtkXsa2w1SBV5VfbW4OI4vOFyDK0tyo8NxuLDG+LyUBTh4HBsKGZSceP9G1sejjV77MMXqvv2xdNN1zFWfvfegXj6bH/EhqFiHUUgGbgQDzc8x1T7BgC3sjvuuKOaa67jQDHpCpuFgcay0RCxtsgEA3Hh4aOxPYrbV+6ME9Xda7bEwXo4qGv12LTufRHbWqyjSA7lffueHox4eHnsfrovjqYgkv6W6QQAmMyU9X9hdr/lsfbh2DV8OI4V/w4Pb4x19dSxalecvHw5Lo9OE8JE0uqxdS3WcffyiLNvpccsj7uXrouNaR1vnY3+DcIEAHTLLH9tdGms2zgchwcPx/DGdbVWjKV90X9iZzw95YCGJo+tm2QdS9dtjNi9u3pMWkfE4cMRy++u7gAAZOt+oCgq9pWjgyOvH/iYKvjhAxE7ttcjwdoYOrkrhjfVH1NMLb4Kev1j6yZZRxE2Ul/IxqpJIy0eGF5+fQsHADBt3R1DAQDcdObeGAoA4KYkUAAA2QQKACCbQAEAZBMoAIBsAgUAkE2gAACy9V74p3fjytX3qkUAgM71/vu//Gl89+/eqRYBADpXdnn8nx/Q8wEATJ8kAQBkEygAgGwCBQCQTaAAALL1xO/9vyOfu/ydOPSf/5+qqLXp/Pflp06dipdffjn+9m//Nq5cuRKLFi2KX/3VX437778/VqxYUd1rbphP2zpfOcYA80879f+MBYpr167Fn//5n8fbb78dv/M7vxMrV66MX/qlX4qf/vSncfLkyXjppZfiYx/7WPzBH/xB3HbbbdWjboz5tK3zlWMMMH+1U//PWJfH0NBQLFy4MJ599tn4rd/6rbjzzjvjfe97X/k3Lafyn//5n489e/ZUj5iGY4OxePHicho81mS5TV3d1mluQ0sX98bAwN64WC3Omi4/76ycDzezG3UeALRpRgJFatb+0Y9+FDt27Iienp44duxYbN68OT796U+Xf9NyKv+jP/qj8n7p/p07FoObhmPXyctx+fLlGFo7cbm62xQmbmsz7W9rwzac3BXDu1UASXeP8Q2kUgdoaUYCxXe+852yWTv57ne/Gzt37oyLFy/Gv/zLv5R/03IKFUm6X+pT79jFCzEc/dG3tMVymxq3dSpTbmvjNizdHkePbo8ON+em1NVjDMCcNCOB4gc/+EF86lOfKuefeeaZ8u9EqYk7uffee+PNN98s55tKnwqrLoTFiwejFkOOxeDKnXEiDsSmVD4wGF8at9z+p8jGbZ3K5Ns6YZs+8+/js+V2FOXF8sDeaovK/RmIcnHcvlVlSWN5uc7rXdw7UD2umKr9HVfW+BzF8RkcqJUPHrsYe0fnr799tLxRq+1sU9eOcbmte2PvYJNtbbaN1f3LzS1vr58/6RhU8y327frjWzxmW/FanNgZK4uy0dezMp9eD4CZMCOBIg20+8AHPlDO//3f/335d6J6eboo/vM//3M5f71aJd1/sNaNcXLXcGwqr65rY+jkrli1alecLMovHx2Kb45bbr9loHFbpzL5tk7YpgNr4ucaymPn08XepErpUGw8eTS2L037djZ2pPum6eTGOLStCiAN+5y6TlaV62lQVCjbdvbHweqxB/vPxltF8dLtR2uPSdPB/uIpq5roxHAs35fKtsSBTdsi6vP1Lpn67eXj0n3qFW/Sajvb171jXCgq9LMbGra13IcW27i0L/pP1I7NxVcPRf+WiMPljr0VZ2N53N3qcU2P79LYvm/s9T26veEMm2evB8BMKAPFW5dHyoVuSaP3/+mf/qmc/+hHP1r+naheni6Kv/iLv1jOXyd1IRQX8Ier8RBL122MVQcON1xc8zVu61Qm3dbJLN0e+1IYWrwyDm3cV4SJoqzsHqlaM9KUWiJS5Tdhn5tKFWX52FpFs3ZoqIgthcZPrpsORAxfqFU0qzbGuvScdy8vKsSG+XRbUi9L1m6ILcWWXajnwFbbWd3cjq4e48ZjU9+Hltu4NjZsKfalOAhvne2PDQ8vj+GUKNL9+/tiaavHtTq+rcyz1wNgJvT+m4/+b/GB27vbUPHrv/7rxUWu1lC/devW8u9Ev/d7v1f+feONN+LXfu3XyvkboXFbp5KzrUv7+qu5BvXWjNFpiopr1NoYKu+/IQ6XFUtRkaXKa2Vq/ajW1axlY7qmvZ01s3KMW2xjUU/H2beOxeHh5XH30nWxcbgIpG+djf4N1R40fVyT41u7dwvz6/UAmAm9Q+sWxZoiVHRT+pGi9LsC7733XnzhC1+IP/mTP4mPf/zj5e8LpL9peWBgoLw93S/dv6myyXpn1FuKU7P1iS0bunrxbNzWyUy5rZM6FoObIg5ePhj9O7fV+rwn7NuosvxQvFq1YZf7XJsdU1RWg+VKUkV2Mnatqj7BNnyybfq4dhw7HAfSeuoNS622swMzfown2cbUqhW7d8fwxnWxtPiXFg8fjlh+d7qxxeOaHd/q9YhmrQHz7PUAmAkzMoYi/eLhXXfdFU899VSMjIyU4eHgwYPx+uuvl3/TcipPt6f7tf6FxOICXXyyG95Ua95dmfqp2/0+aJsmbmsz7W1rK0WYWJzSRPXJN/Wlr0yfeMfvWzmVg/nq96mVbTvbf/0n26JSKe5QPa7qRvns9tjRXxsw2PJxrRQVVP1x5aaOG4PSajvbN/PHeJJtTMeqqMk3VjV7WjwwvLyq6Fs8rtnxTfdfWhzjLbXuhnGDMufZ6wEwE3qKSn7khRdeiCeffLIqaq2TX8p899134xvf+MboLyPec8895cUvNdGmZu30SXSu/DLifNrWrktN82lc4Ax/xfWWPsadmKXXA6ATbf309kwFirr0I0XpdwXSVwHT6P004C71kadm7c4/ic6s+bStXTPLFdgteYw7IVAAc9CcCBQAwPzWTv0/I2MoAIBbi0ABAGQTKACAbL1/8Rd/EefPn68WAQA615t+ybK/v8mvOAIAtEmXBwCQTaAAALIJFABAtt5r1661/P8VAADaoYUCAMjWu2DBgujp6akWAQA613P69OmRZ599Nh577LGqqLX0W94AwK1nyv8crJNAAQDQjDEUAEA2gQIAyCZQAADZBAoAIJtAAQBk80uZAEC29ItWI0uWLIkzZ87USuaxCxcuVHOT6+vrq+YAgG64qX6HQqAAYD5ot76aS6aqOwUKAJhlqb6aT3VRO9trUCYA3AL+4R/+YVpTuwQKALhF3HnnnR1NnRAoAIBsAgUA3MK+8pWvVHN55l6guLg3Bgb2xsVqEQCYGfUw0Y1Q0dm3PFJlv3JnnKgWV+06GUe3L62WuiQ9x7aIfUe3R6drbvdbHrfffns1BwAz58Mf/nA1N17zb02ci7967lKs+fLq+GBV0k1pgGXjuIhmIeKrX/1qNVfz4x//OD70oQ+19S2PjgLF4OKBWH7yaNQyxLEYHIwYGlpb3tY1sxAo/tWv/Eo1BwAz46eXLrUdKP7x+HPx7Pd+EvHLn4nfn6VA0Y5OAkXvpWKHr169Wi1OpT/6Rmv5taNh4uLegVi8eHE1DcTe1F9Rdl0MxuBArXzw2MXYOzp//e2j5Y3SfarbRtcLADeZD67+cvzH3/9M/HK1PB911EJxbHBxbDpQzGw5GJdbtUwcG4zFhzfE5YcvxMDKQ7ExtWi8VZRtGo5d9fndy+Pkvoht9dtTSEmP2xRx8OTy2F22UPTF04sPx4bLQ0V0KbTRctFuC4UuDwBmQ0ddHv94PJ57OeL+GWyhmI4Z6fIYVVb+RbKoB4tU2TeMrYhVu2qBoR4AGsNAfb7x9vJBx2Jw8e5Y/p2NcejJ6vbGdZa2xMF6wGii3UAx1UEBgJl0owLFjHZ5VH87s3YoLl8+GFsOHI5jZZhILQ2Xi7JiOrkrVlV3y5aCSVrn6NQ6TAAA7UuDMidOOToKFAONgxwuXojhVcvj7jS/amOsq/ohLr56aEKrQpuOHY4DaT0frZaX9kX/iZ3x9MRxFQBAtonf6Ji43KmOAsXG4U2jAygXp1aJfdtj6dLtsaN/Z6ysyred7W+/haIIDPXHleMnxo2PWBtDJ3fF8Kbq9jT5fQoAbkLpWx5ff/Z78ZOffC+e/frX46/OVTfMsHqIyA0TyY3730bbGGTZKWMoAJgP2hmT0G1zcwwFAECDGxcolm6Po11snQAAJpdaHDqZOtF77dq1GBkZqRYBgJtR6rqYztSunjfffHPkueeei8cff7wqmr+MoQBgPmi3vppLpqo7b9ygTADgpmFQJgCQTaAAALIJFABANoECAMgmUAAA2QQKACCbr4028DsWADA9N9UPW+USKACYDTflD1sJFGMECgBmQ6pv5lNd0s729i5YsCB6enqqRQDgZpT++/LpTO0yKBMAbhF33nlnR1MnBAoAIJtAAQC3sK985SvVXJ78QHFxbwwM7I2L1WJbpvMYAKCr6mGiG6Gio9+hGFi8OE5U88mWg5dj6O4iHGyL2Hd0eyytyqeUAkWnj5kF7X7L4/bbb6/mAKC1D3/4w9XceM2/NXEu/uq5S7Hmy6vjg1VJN6UBlo3jIpqFiK9+9avVXM2Pf/zj+NCHPtTWtzw6CxQDe8dCQD0U7IvYdosFin/1K79SzQFAcz+9dKntQPGPx5+LZ7/3k4hf/kz8/iwFinZ0Eiim3+Xx1tk40d83PhCkoLB4cSwup8E4VhVHMTc4Wr44Bl+ripNjg0XZQOzV/wHALeqDq78c//H3PxO/XC3PRx39sNX4Lo9Vsevk0dge9daGvnh68aaI1A2yNmWLgVh5dkdcHro79g6sjLM7auWlxtaNlWdjx+WhqN90I7XbQqHLA4B2dNTl8Y/H47mXI+6fwRaK6Wi7y6OjQDFZl8fEro90ewoLJ5fH7sbypLxtZxFOthT5Y26EiaTdQDHVQQWAydyoQDGjXR7T/qXMpX3Rf+JsvFUtdmzVrji4azg2DY51jAAAsyMNypw45Zj+GIpjh+PAquVxd7VYCxg74+kqH1x89VCc2LIh1i5dFxtjrLzR3duPxsHYFAMGUADArJr4jY6Jy53qveeee+Kll16qFqdQBIaV9cGVabjEuG9prI2hk7tieFPt9pU7++NgOWhiaWzfN1Y+cVDm2qGD0b9zpVABwC0rfcvj689+L37yk+/Fs1//evzVueqGGVYPEblhIul54403Rg4cOBBf+9rXqqJblzEUAMyGdsYkdNuMj6FYuHBhpHEUAADT5f/yAIBbRGpx6GTqhEABALeA1HUxnaldHf309s3OGAoAZkO79c1cMlXdJ1AAANl0eQAA2QQKACCbQAEAZBMoAIBsAgUAkE2gAACyCRQAQDaBAgDIJlAAANkECgAgm0ABAGQTKACAbAIFAJBNoAAAsgkUAEA2gQIAyCZQAADZekdGRqpZAIDp0UIBAGQTKACAjv3gBz8opzqBAgDIJlAAAB37jd/4jXKq6+3p6almAQBaa+zmuK7L45Of/GQcPHiwWgQA6NyCv/mbv3nsnXfeic9//vNVEQDA9ZYsWVJOE+eT3ttvvz0WLFhQLQIAjGnVzdE4nxhDAQBk6zl37tzIN77xjXjssceqIgCAzvQWqlkAgOmI+P8BE/sOX6HGZpAAAAAASUVORK5CYII=;" parent="1" vertex="1">
          <mxGeometry x="510" y="-960" width="282" height="312.74" as="geometry" />
        </mxCell>
        <mxCell id="F_fzNBpN82EhKqrzM02S-2" value="" style="shape=image;verticalLabelPosition=bottom;labelBackgroundColor=default;verticalAlign=top;aspect=fixed;imageAspect=0;image=data:image/png,iVBORw0KGgoAAAANSUhEUgAAAPEAAADpCAYAAAD1TtH/AAAAAXNSR0IArs4c6QAAAARnQU1BAACxjwv8YQUAAAAJcEhZcwAADsMAAA7DAcdvqGQAABP6SURBVHhe7d1hSBznnwfwrwfHlaNQ4V7dq6iNf0H6omgJd+YP1hQNib6IQlLImy6+MPFF260QuIWAFQJ7ELCbuxc2eWENBblGiHlhEqI0Vvg3ByFKKUHYmqp5da+OWihH33nP88wzuzPj7O7ozmz2t34/MLgz8+zs5HG+8zzzmJ1pSqfT+2hg3333HT7++GM7V9qff/6Jt956y86F2993qqqpqcn8LCXuctrvv/+Od955x86Fe5P7V+/118j716RWOGuISKS/sz+JSCiGmEg4hphIOIaYSDiGmEi4iqPTUYbHy+HgN1GyIoX4qDnU+WeIiZIVOcSHbZDd9zDERMniNTGJsLu7i9bWVtOo6Kmvrw97e3t2bX3R+7e+vm7nDtLrdJm4xBbiwzW4j3HF/jLc6fStV3ZdOfp9pxGpaCWPr3g+/4ra8pvwCrdOe+rh9C21hMLoEH/yySf47bffsLi4iB9++AFzc3N2bX158eIF/vX0X0ODrJfpdbpMXI4U4mBgi11nuyCSHuS29k13e3//Ed5Lt6PpSo2i9OoWTp8HHpnPVtNWJ34xHx3jSaISvQ9N7di87taBmu4CDxOrghr+2xLw4Ycf4ssvv0RzczMuXLiA999/v25b4u7ubvz3j387EGQ3wHqdLhOXQ4dYHWs+el4HuDrncHsrh547D2rTIm5t4llPJ9rtLE5+js/P2dc1oVrgT9J479E+bns/t+b7IVMul8NPP/1kwlyvgkFOKsCGagHKcorA99N97U7BZd6y4R7tj6FnX7XEHlv7uR7sj6nm0ZnN7ffY7QJj6h2a/32Pxtz1ajJvDGxDezS2j56cWuOlt4P9Ht8OOMv82wv7DMuzfz25nP/fE7rvHmZ9yHIv3za8/6Zg3Xnn7euc+jfb9zn/xvB/W7k6HhvrMcvqzTfffGP2V/+UQHWb9//+H94yk36dhEO1xN4WV792J1dw/uhU16/9Hi653e1HwI2QfuC523a9KjB254bqKp7E59fHcOdBsT1//OAOxq5/jpN23qFa/v0tXLqnuvBqh51evF6mtuN2820TefAz9FK9f05LqtfdxT3cMaW1aPsOb0/gAP/2Vdjw8nzUrvAzpDcv2M8ew7P0TbW1sH9buf18hpedd9Xy23a+fnzxxRf46quvkEql7BKqs9HpHnTqI/vVL3ipD8Z2O+Bz/g6ebW45RbwKg1PniyE6d0GFze2WP8aDlzlcC+2iqsD/6AbEDXKIsM/Q+9dT3O7Jz6+rgFhR9/3ZJkKWOsw2xnDB3W/Vzb4+9gxhmzlIBdXdMV0Xaku/hIW/7H724NKg/7RXL/R1sL4elsDbhQ67Ro5L5BCrk/WhpkN79RD3nr2HvxSOnbHiwJOefBePim9waguqG22dw7XcS9OqvLp1Ay8vDQZa4QAVkLvqzd7Wu6DkZ1RSYd9PDuJSzx2EfWRtVdjPOrS6uoqWlhY7V7+C18ClBrviECnE6kR9pCk6t/t4W0VQOfkXvKfavdBuqMs7OGVOAGapcXLwEnDvJm7eQ3iL8viWp2v6Cg/Vm3tMFyCg1Gfo/XuWxk0bQn2yKLTSUfZd9wJ0tz/YA1AnjVt63m6jEHK1/MYdt2VuR2ePp1V+/KD42YcRaT/rj/7Tkv5zUz0rNYiVWJDVGbgsXcSd3BN2uWUH58MEBlp8AzVWYGAHZjDGO4jjDGKZdT1j+2M9/m2YASnvQJRPiYEepTCQZZaV+Qw9YGbfX35gS02l9iNYzjsA51sXqB/PZ2NM7Vdhvbd+NP+8/9+mVKzj+qP3U10P27n6pPex3CCWXqfLxCXyFyB0qWDrWm5Z8WfZzSfm8ZUmPLgQ+BNOUnS3u30T1/dtT4KohupsYCsmuvtZckArfo9vpv1/dyaqocghdltXb8MatkzT88EWujbsf2PUfzq5G/yzUpz8/13yvLpeffRjkp9HVBrvdkkkXGN2p4mOEYaYSDiGmEg4hphIOIaYSDiGmEg4hphIuKa9vT3+nZhIMLbERMIxxETCMcREwjHERMIxxETCMcREwjHERMIxxETCMcREwjHERMIxxETCMcREwjHERMIxxETCMcREwjHERMIxxETCMcREwjHERMIxxETCMcREwjHERMIxxETCMcREwjHERMIxxETCMcREwjHERMIxxETCMcREwjHERMIxxETCMcQhBpqb0eyZ0it2hbY941s/MLNtVygrad/7mn1vDFpBemAGnnc3lETrsNz7jyGGOMypLDb29rCnp40sNi+6B6EKXtcihjfsur0FdOZ/NW/ZnhlA80VgwX2fmhbwUL3jIFNWFZ6z8w0pyTr8NY/OBc/7M1dxnHPMEFfSNo5lfRDedFvNTpxsMy+UfuRy/ernNp4sAtmNnFpS1J/zz7vaxpfNgX3Kzje8uOuwPwfzFuNddBybigzHEEfRdhKdz/P4VR1Og6k5XAx287afYPG598CkA5KqQ/0+DOPsMa57hviQ+nO2Gzf40H/NdqpDtQkURXx1aLvmX4/jOJ8/GeIotl9hM3iAqS6dvh5LzalrNtPKLOLJ8R5fKS/2OlQBbr6Jjo1ljB/zHhBDXJE+22fQeU2d7fWoqK8L6B6Y/fgsC2S60r5BmJW0f/74irkOzeg0A+xqUt2affuaLP3ni+f2terjIVs4WLYxM9CFTGGld50+tgbQVVwJpBawVxyBKQiWSy3seQZqGkOSdXigjHIqu4HlY5pohphIOHaniYRjiImEY4iJhGOIiYRjiImEY4iJhGOIiYRjiImEY4iJhGOIiYSTHWL9H+ETucWN/oaMc+uX5mZ+ieFoWIe1wpY4xEra3CPGfOd1I7uJi95v3VAkrMPaiSHE3jNuM9LfBlpHt7W0P2fS9swcnHfLFrY14Nw3yVfOmZzjYRszVzN4/jyDLrUszpulPZxLYdB+cabt7DBObb5KoLVvbKzD2qk6xDMDxTOunnKn7YowKnD5QV3O3jfJN6+/c5rHNbudvY1hLF61J4NCOTUtpDBn7tXUhvGvszhlb8iW2NfQCreVoSNjHSaq6hAvIovPon4XVgXOV9Y7r78cDnvvJT116VbW/uK95d7tOD43mCOKoL6uib23OTVT+N0iayrstjJ0OKzDRFUd4mFk8B/BMQtP12n7yaLnDg9lmC5XyLYqSaCbpu/G+NDuh9n/zpPH+kZsR8E6rJ2qQ6yvS/WNwQuDTr+O42s9Gmnnr+Y7I3Z/+5GzNxl3t9XsHSAL0zaOa/b2p3EObPXnFqA2avahK9OJhUa7d04NsA5rh7fnIRKuvq6JiejQGGIi4RhiIuEYYiLhGGIi4RhiIuEYYiLhGGIi4RhiIuEYYiLhGGIi4RhiIuEYYiLhqg6x735aRFRzb6Yldm+eZ2frD2+3Wj3WYa2wOx2Ct1utHuuwdmIL8fbMgD3r6snebja43LS+yd1qNi683Wr1WIe1E1uI28aXize4W+hERt8sS3Wbr+pbs9jlC536flg1utVsXHi71eqxDhMVX3fae+P3i3OAPvPqX565Da1zTdSfq4O7VxI1mHhCrAPctYjhDdsSb6iW1qzoR860woN4aAIucICDt1utHuswUfG1xKeGcdb2jAu3qVXhTptrXh3mDWRPbeKVe2FUx90r3m61eqzD2oknxPrWsZ3OQJXuThduU6u608h02YGtLiwOfw1zCZzQrWbjwtutVo91WDu8ZS2RcPF1p4nojWCIiYRjiImEY4iJhGOIiYRjiImEY4iJhGOIiYRjiImEY4iJhGOIiYTj/50u4fvvv7evqJSPPvrIvgrHOqysUh1GwRCXoA/ADz74wM5R0IsXLyKFmHVYWpQ6jILdaSLhGGIi4RhiIuEYYiLhGGIi4eozxHX/mJeE7M5iZGQWu3bWp9y6klaROXECJ8yUUXPHwDGsQ7bEDWw1kwLmXuP169dYm8wjlTkWMY6VhDqsOsS6xZxJe+4p7b2JfNnHuZiFIWXr/zEvh7E7O2LP4mpyWwHdIhTO7iOYdRZidmIK6+tT6FXLR5yFVsg63zbCWohVLM9fxkCfM9dyZgjd+Z1DtkL1gXVYXvUtsQpbflDfIF4/3WEF6a48rtnHtuxtDGPxqgqsCuvBx7mUKCvtMS/lqINkYqpDncidM/lcxxZ21IGR6d3Cp3bZ67UhLE3oA7MFo9OT6O6exJpafn+0xW5EC67bUduYQsdhWoiWVnSs688XhnVYUfUhVmH7zL2lsL7Tv3lsi21du3SLqgIb9jiXUmWdLTUG/UvHPFL2LN+XzaJvdwd5s8y2AOpAWj/sgaG3oQ7GK94WYn45pCVpAKzDiuK/JrYtqGldzaRb6BKPcwkt20j6kDWtxQCWvV022xqYVsRM6sA05RNkDtp2tNpZOViHlcQbYvP0uwz0AxF9wh7nghJlXY3QKquuYMZcl+kDcQ2T3XnVWugu2RRulzrll2tR3HWmW1fcxu7TJaxfHggcxH0YuDyPZW+ZjlbVqRSGdVhRzC2xCulGFpv28R2FQazQx7mUKKs3U+ePeYlMHSiY6nW6fCd6sTQ0jdEWdTCuTSKfsl1BPbmDNS2j+FQdNLqb6B+UUXzrWn3b6NXXjNmD7VBfdg7qDWXL1D3WYUX8FlMJ/AZOefwWU/X4LSYiMhhiIuEYYiLhGGIi4TiwVQLvD1VZlIEtKi+OgS2GmEg4dqeJhGOIiYRjiImEY4iJhGOIiYRjiImE45+YQvDvm9GV+jsn6zC6av9WzBCH4Ldvoin3LRzWYTRxfJOJ3Wki4RhiIuEYYiLhGGIi4eIN8XF9/ArRG5RMS5x0mL3b54mDjrlkQtw2juXlcdTk2Q21/KwG9/PPP9tXB5VbR0Vvog6rD7FuCd1bzuqnOLjLdOtof0Z5VhP0Y10Ky5uR1oVDywae1XTjhr9VLpT3fF5hH5zJbDsq/bwe75P03HnzM4PMSPG2qZKfV/bHH3/g22+/VSfEZbukSC/T63SZI2EdVl+HZVQd4rQKbueCfYLDRhan7PKCKM9q0sEcuAi421FTrj/is5ou/5P9IF2+uC8b2U1cdNNa2Ac1LaQwdzOm7vd6Hu3T9gkEc5cxnwp7KJcMb7/9NiYnJ7GysuI7CPVrvUyv02VixzqsWtUh3vQ+iylMlGc1bT/BIgLbOeyzmnR5z2e1nR3GqbmHTmvs3Yd3Ow6eaI6qewhn3McB9A3gMvLYCdyvXJLgQZh4gDXWYdWSuSYux7agbotb9vlLhylLsfAehIkHuEHVug6rDnHn80U8sX3T7SeLzjVxKaWe1dR2FsMILC9V1hVslQPlzb6kBuMJvefZPuZ5PPa1z+oy5r2timDuQRjrwcc6TEzVIc4tdCLT5XR5r+Y7K3RVSz1/ybnO9S5Pr0R8VtP8/5otB7fdpZ+HnIshwi2jmNbPrrUDLxNbHei2q2AfWG0GZfQD5e+PyntgWQn6wIvt4GMdJorfYgoR6Rs4emR1AphuoIPusKr+FhPrkN9iIiKG+OhUF/H+MW5BYsE6jAVDTCQcr4lD8NYy0ZW7JqZoqr0mZoiJhGN3mkg4hphIOIaYSDiGmEg4hphIOIaYSDiGmEg4hphIOIaYSDiGmEg4hphIOIaYSDiGmEg4hphIOIaYSDiGmEg4hphIOIaYSDiGmEg4hphIOIaYSDiGmEg4hphIOIaYSDiGmEi4Qz8Bgo/nOLpqH9fRCJr//X/sKypl79/+2b6K5kghrvjcWTogjufQNgKGuDKGuE4xxA43xK/H/9H8pKITM/9nfh42xLwmJhKOISYSjiEmEu7Nhnh3FiMjs9i1s0R0eEcPcVgAkwiltKDzxFSXdmdHcOLEicI0Mmt/Q8Hf12rGrM+s2nkB2J2mhqcD3Ls0hLXXr/HaTHPomOotBtmlA53KY3LtNbJ9dpkAyYTYnN0yyIwUz3yFM5teZ5ed6J3CemGx90w5Aqd+dzE7ocqsT6FXLTeV7n1/oVzQKjKFMuqz/ytwtnXPvvbnbEaXy2A1OO+WDX6er5wzOf++kP2lN2wVt6eAyelRtNglQB+ya5PA0lP/MdG7hKG1+xgtFhQhuZZ4PY/2aXvmm7uM+ZQOhQqXCm7HnF2uKrLbFm8ZvW/Pkrp8B6Zu61S0YHRalemeNGfR+6M76v1b+NQttzaEpYlg11UFaSQFuJ+hpuy/2FVhVOC2BnS5rPrVBuf1/pb4vEI5Nel/33/q5cH9FXY0NKLdHeS7h3Am+KtoaUXH+hZ2zMwSJoQGWEsuxN6K6xvAZeSx8zddoZO4EtZV8bZ4qXkgvxMIp6J/IZhHyi2nW/LCL8Lafap+JSU+I0xwf7zz5T7PW661vXAyIoFUd3BoUjUcBxoEGerjmrjQlXFbvGILfYBt5Uw5M9kWNCm1/jyKl2lxl/A0mE7TQrejVb/WDc5oFmtDS+iVNKJlHT3EIZWz+3QJ6x2tnmsPa3UZ87qi/up/jynvvHQq0r7Rt1xzWz/zmVMwPe1SWs5gCCFlPC32ge2XEuXzwgR7B/QG9eGKuvz1t7LOZR2GzviO1ZbRaUzmU+LGMqpoifXggLpG7LVdTTWZEUB3WE8d/Hpwx+keq0vU+3pgQb1HX+/a90xsdTgtbssoPu0oli8s1/S6y06XdmS21QxI5FN2u3ryDlgZznWpt0xmZxTTk/lCt9i3/bKcAZDynxfg219ZB0Oj0uMtppV1f4fmgAwbs1DHzv0SI9d1LJkvQOju8QQwbYJLGr8A4eAXIErjFyCIjqlkQqy6lPfZChPVBFtiIuF4U4Aa4TWxg3f2qKwmd/ago2GIGeIoEg8xEdUXXhMTCccQEwnHEBMJxxATCccQEwnHEBMJxxATCccQEwnHEBMJxxATCccQE4kG/D/wDMA+Xj2GwQAAAABJRU5ErkJggg==;" parent="1" vertex="1">
          <mxGeometry x="197.08" y="-406.96" width="175.84" height="170" as="geometry" />
        </mxCell>
        <mxCell id="Q7GEe4TqaoBqQ411YMws-1" value="" style="shape=image;verticalLabelPosition=bottom;labelBackgroundColor=default;verticalAlign=top;aspect=fixed;imageAspect=0;image=data:image/png,iVBORw0KGgoAAAANSUhEUgAAAHwAAAC/CAYAAAA8YrikAAAAAXNSR0IArs4c6QAAAARnQU1BAACxjwv8YQUAAAAJcEhZcwAADsMAAA7DAcdvqGQAAAz1SURBVHhe7Z1PbBNXHse/XmmVFSdUGqrdCyF/W4sDClKkhV0QLQnKH1UEKVyJOBByaU0lKnIhoioKKlKb7iWEatuciUSiCogg0ABaQIoKXCIvSUwaLqzaghouuYDwzu/NG/t5MmNmPGN7nPf7SD953puxCf7M++Px+3liiUQiDQ+8efMGr169QlVVlaxhysHq6io2bNggS/6JpQ3kNqMBf5KPjCawcM1g4ZrBwjWDhWvGW2fpsVhMbhUGfwiIFp6EF+qMzhUWHi08C/fb0K3nsPBosa7H8OXlZWzdulWctBR79+7FysqK3Bst6O978OCBLK2F9tExQQlNuL+GPIU+KSGM/4QbJPzw4cP4448/MDExgVu3bmFsbEzujRY///wz/r7rH47SqY720TGBoS49H+YhEI9WuJXV+mydE1fTR7EzPbwoiyVi+/bt6cHBQVmKHobQ9J+r/iIeLZzqguBmJIOTSHs537YzpRf+zTffiL/n0aNHsiaaqILDlk24GcmQKy9XqBX2OvVYZ0or/IcffhB/Cz1WApbosGUTvsZwdbilbSss7OWocPz4cRgtHL29vbJGX7S40kYzc2P8lqVoY03Q7t/9jwi3iVyheBZudNG+IkrMzMygpqZGlqKLKnvHjh0iwpbuSbjaffuJqEAfx+gjWpSxy7YIXbocy12hQ6wwSiLy1a0tO0GTtrcdEx70bxjjtyxFE/ob803QaF8Y75XnL0/oKHurzVeXfcz78kyJ0WLSxmTxLNxqtWqDdaojqGxv+Uw04FWrmsFdumawcM1g4ZrBwjWDhWsGC9cMFq4ZsZWVFf4crhHcwjWDhWsGC9cMFq4ZLFwzWLhmsHDNYOGawcI1g4VrBgvXDBauGSxcM1i4ZrBwzdDq+/BUKiW3Kp/6+nq55Q/thBf6RkWJIP8PFl4mfv31V7nlj/fee4+FeyVqwjdv3ixL3vjtt98CC+dJm2aw8Ihx6tQpuVUcKkP40gja2kawJIvrFUt2MaUHFt62cSM2KpGYljsizwJ+PHsWZ0X8aJTKi11ysaQHnrRRyzt/vR+1VKCWeAzZcliE9LrqZGfhx7N4/P5JfNwIvLj3b3z3/J84SYUSsT4mbU/mMRuvz8rPtPwErIa/NNKm9AhtGKF+WnbZIwnlWPX5zQOYpbrQWMDjZBzvS7+bmj5A9e/P8cIsrmuCC58dQLMlpieJoU9ajcppJAxJ8fEV8aN4D4eS6JF9fW3/dVEnYjyOgX/JU8F4nflOqh9Gq+35Kw+H0GIeVRw2vVsW4dRi/UQYBBfeMoSHlsCH3Zg4ZkyullJIGvXCvUHt/m60jF1Z23J7xoBkypyMKcfD9vz1CnXpfiIMwu3Sa+sRn53HE1lcA8lunkD3wxK1XK+8eI7fq9/FJlksBzRJs0cxCFf49BWMtTShTogfgNVbL12bwGxvp9FVG7R0Y7+ceYl6czMX8fwJXJOfw1yPK5hGvB9P4rGcmr+Y/2/ZhX/xxRdyy8ReDouQx3BgXMykWzFstN5kj1nfPBDH+LChu7YfJ+LZ44/Nx11auPF8Gt+b33Zc4TR+fBC4ZH4s++5ONQ6WcIbuhiW5WLIJvpZeJvhaOlMSuIWXCf56tARESXgQWLhH6I1aL7BwxhM8adMMFq4ZLFwzWLhmsHDN4I9lFQp/LPMAX3hh4WWDL62WgKgJ52/LmKLDwiNGsZY2WbDwCGHJLqb0cIRPJ8wlTlZURPoJZ54UBCUWiDVrYj25yXQiAQxny1FBnexw5kmBXJsAhh7mym2Vst2zTBJItJn1iekljGS2xdPNYxyfl5ud4vj6nuDMk4KZmI2j3iXhyz3LJImm81TXi7EeShqT2+coQ5SyTuZxwp7cIJ6nZqfkeX2/cOaJD2gdutxcg2uWiVybXteEFnWb9lHWCcbQYz2P8sqs5AZ7Norb61cIVkaJ1wiDwMLVhIEcSEahWSZq+pIIh/lAkNe3w5kn3vlkCBhozmaHEjRpE2UvWSZ2bFkreSnk9QWceVIwNI6K7FCrazWiB51o9ZxlYic3a0WE068/FPz6Jpx5ogF8LT2MSRtTUXALLxP89WgJiJLwILBwj9AbtV5g4YwneNKmGSxcM1i4ZrBwzWDhmqHVLH3j2Wdyq/JZOfk3ueUP7YSnhz6QpfLx8uVLuVUY9P9g4R6IkvAbN27Ikj/27dvHwr0SNeEfffSRrPHGzZs3AwvXdtIWi8XkVvlIp9O+Igx4ll5GnKS+8847jvUUYVAc4XJJsa8FhYU8p8J58+ZNTmzaZC6yokf7PoowCCw8u37cjMq550k7+oxunbr2WKwPU7K2lKitt7q6WtaaUFndTxEGwVu4usKU1qKJteXRp330KnDVfCMXh+fQ0Vd65a9fv87Es2fP1oS6nyIMwu3S1XueSNyzQ6aRUHuGu7KaELlqfjJJ/DKFA0cv4EC7WarvPISdcwso9bfl9hb8tgiD4MJzfi/duudJFufsEEovoh9Xl/VGDO8yjxdjudh1Hf3qmVNM6hux7V4Si7JYKu7fv+8rwiDkLl1JC7IggZkTQmaHLF3DBBzuaUInj0gzil4iYjGgz9R+IgzC7dLt9zzxmx1inDzjyh2QSkZqAXM742iQxVKhzsCtoU0NdT9FGIQr3LrniSwKnLJDavejG87ZJXXGEDCOHrQVbwA3aMfkhaOYlPO01JWLuLetEaVe3qiOzy9e5KYyUlndTxEGIY/h1j1PJK7ZIbXoP5+bXaJO2lqHxxEfaC6q9Km+DqDD/FjWkNiGq6NyBldC7EKfP38u6unRvo8iDLS9lk6iw3oT/WJdS9+9e7es8cadO3fEWM7X0iuUV69e+Yow4G/LygB/PVoioiQ8CCzcI/RGrRdYOOMJnrRpBgvXDBauGSxcM1i4Zmg1S//qq6/kVuXz+eefyy1/aCf8zJkzslQ+gl54of8HC/dAlIQHubTKwj0SNeGFZp4EEc6TtjJi/777bREGLLyMOEmtzMwTOxpmlXjBvmatMjJPVJFihap97XnuLy3noJ4I5Tgppvpk5kkMu761VqVPKRkpFLtg7vJYn0locDs+i9p6KybzRF2lSosUadHafKYihWS+H9Cv7cd1dQ1cKSHZHZR8Yr6Zdz9VlzAezdSn03eR3eVQPzWZyWBJpxcxPPelItbtdUzUrJKKyTzp7E0iJZvlk/k4TpyII5mtALr3Z4ReE/crkYsWRT6C1aqXMHKM7nxgLngUixdFb2EdH34WytTkHIYXRxF46WL7KLLrHxeRvLcNjR6Xv5ongvcIg8DC65qACXFLhCWkYLTm1k7EJ66Jrnn6yhji1g1RDJnm/UqMyNzfxMJcxdoikxqu9z9xv+9JKExh8sI9JBqyXW5uatkFdMj6bFdPuNWn8O0uqp/EgbR6Erkdb+KUXZIvwiCw8Nr93WYfLrJJKK+sztBO3bxxAiR70WmlkBgyM5km1v1N3Mh335PQULrbxWHMdVgZpO0YzbSqq9iWOCy7aLd6oh6f3qX6A5jMjNX5jjehz9R+IgwCCxfZJmNXMG1033FhtxZ0DqSWnhja84zfb0NNYRJRxPSj+k4c2jmHhTWNsAHxnXIzB7f6dhw4eg/JNUlqzserM3BrqFND3U8RBsGFGxpoHD93Lokmadc4B4wu+BySyvjtCasV+7nvSUGQmAv40mpyqSu4aI29xmQu0717qE9926e0XBoqdiJOOUtur6Ngtn4zKifzxIDG8VlkU4rMitns+O0FylLpNbvxtpE6b/c9CUD76CIOXWwQ42us4SIOWRO4hrjRvZvjbqwhgW1X89fXN0KZC9C0X87G3V5HwS6UM09CJmrX0gvNPOFr6RWKU3ZJvggDbuFlgL8eLRFREh4EFu4ReqPWCyyc8QRP2jSDhWsGC9cMFq4ZLFwzWLhmsHDNYOGawcI1g4VrBgvXjIq4lr7x7P/kFuPGysm/yq38cAvXjIpq4U/7N4hHJsuWkVXxyC2ccYSFawYL1wwWrhksPA/L3x/Eli1bMnHw+2VrBw4e/B6yBMwMiP0DM7IcYVi4CyR7z+Uu3H76FE9FjKHp9J6sdAuS3zuPwdtPMbRX1kUYFu7IDEZPA4NfH0GNrAH2Yuj2IHD5p2zLJtl7LqPr9iUcyR4YaVi4E8u/YH5HFz60S6zZiqYHi/hFFC7jswqTTbDwQnkAdA024fRnylheAbBwJ0RLvoyf7CZFy2/AVtqmHuDIEG53XcaeSpitSVi4I3vRZwzXua13BgN7jIG960NlXDfOjSNfY3C+d+1kLqKwcBdqjlwyW2/mY1kvMPYUl9YM2DU4csllBh9B+MuTCoe/PGHywsI1g4VrBi9xWifwGM44wj8IoBncwjWDhWsGC9cMFq4ZLFwzWLhmsHDNYOGawcI1g4VrBgvXjFgikfB0LZ1uskI/0l5VVSVrmHKwurqKDRsKXfkD/B9TvMgHayuHWgAAAABJRU5ErkJggg==;" parent="1" vertex="1">
          <mxGeometry x="-392.26" y="-731" width="104.52" height="161" as="geometry" />
        </mxCell>
        <mxCell id="Q7GEe4TqaoBqQ411YMws-2" value="lsc-gui.h" style="rounded=0;whiteSpace=wrap;html=1;" parent="1" vertex="1">
          <mxGeometry x="340" y="-1050" width="170" height="30" as="geometry" />
        </mxCell>
        <mxCell id="Q7GEe4TqaoBqQ411YMws-4" style="edgeStyle=orthogonalEdgeStyle;rounded=0;orthogonalLoop=1;jettySize=auto;html=1;exitX=0.5;exitY=1;exitDx=0;exitDy=0;entryX=0.5;entryY=0;entryDx=0;entryDy=0;" parent="1" source="Q7GEe4TqaoBqQ411YMws-3" target="dBWfP9nQoVJAbgOZJAba-6" edge="1">
          <mxGeometry relative="1" as="geometry" />
        </mxCell>
        <mxCell id="Q7GEe4TqaoBqQ411YMws-3" value="lsc-gui.cpp" style="rounded=0;whiteSpace=wrap;html=1;" parent="1" vertex="1">
          <mxGeometry x="340" y="-1020" width="170" height="30" as="geometry" />
        </mxCell>
        <mxCell id="Q7GEe4TqaoBqQ411YMws-5" value="dialogspecialpixels.h" style="rounded=0;whiteSpace=wrap;html=1;" parent="1" vertex="1">
          <mxGeometry x="-496" y="-496.95999999999987" width="170" height="30" as="geometry" />
        </mxCell>
        <mxCell id="Q7GEe4TqaoBqQ411YMws-6" value="dialogspecialpixels.cpp" style="rounded=0;whiteSpace=wrap;html=1;" parent="1" vertex="1">
          <mxGeometry x="-496" y="-466.95999999999987" width="170" height="30" as="geometry" />
        </mxCell>
        <mxCell id="Q7GEe4TqaoBqQ411YMws-7" value="dialogspecialpixels.ui" style="rounded=0;whiteSpace=wrap;html=1;" parent="1" vertex="1">
          <mxGeometry x="-496" y="-436.95999999999987" width="170" height="30" as="geometry" />
        </mxCell>
        <mxCell id="Q7GEe4TqaoBqQ411YMws-8" value="dialoggreyscalesettings.h" style="rounded=0;whiteSpace=wrap;html=1;" parent="1" vertex="1">
          <mxGeometry x="-425" y="-819.9999999999999" width="170" height="30" as="geometry" />
        </mxCell>
        <mxCell id="Q7GEe4TqaoBqQ411YMws-9" value="dialoggreyscalesettings.cpp" style="rounded=0;whiteSpace=wrap;html=1;" parent="1" vertex="1">
          <mxGeometry x="-425" y="-789.9999999999999" width="170" height="30" as="geometry" />
        </mxCell>
        <mxCell id="Q7GEe4TqaoBqQ411YMws-10" value="dialoggreyscalesettings.ui" style="rounded=0;whiteSpace=wrap;html=1;" parent="1" vertex="1">
          <mxGeometry x="-425" y="-759.9999999999999" width="170" height="30" as="geometry" />
        </mxCell>
        <mxCell id="Q7GEe4TqaoBqQ411YMws-11" value="camerasettingswidget.h" style="rounded=0;whiteSpace=wrap;html=1;" parent="1" vertex="1">
          <mxGeometry x="826" y="-366.96000000000004" width="170" height="30" as="geometry" />
        </mxCell>
        <mxCell id="Q7GEe4TqaoBqQ411YMws-12" value="camerasettingswidget.cpp" style="rounded=0;whiteSpace=wrap;html=1;" parent="1" vertex="1">
          <mxGeometry x="826" y="-336.96000000000004" width="170" height="30" as="geometry" />
        </mxCell>
        <mxCell id="Q7GEe4TqaoBqQ411YMws-13" value="camerasettingswidget.ui" style="rounded=0;whiteSpace=wrap;html=1;" parent="1" vertex="1">
          <mxGeometry x="826" y="-306.96" width="170" height="30" as="geometry" />
        </mxCell>
        <mxCell id="Q7GEe4TqaoBqQ411YMws-14" value="dacspinboxes.h" style="rounded=0;whiteSpace=wrap;html=1;" parent="1" vertex="1">
          <mxGeometry x="1300" y="-363.9200000000001" width="170" height="30" as="geometry" />
        </mxCell>
        <mxCell id="Q7GEe4TqaoBqQ411YMws-15" value="dacspinboxes.cpp" style="rounded=0;whiteSpace=wrap;html=1;" parent="1" vertex="1">
          <mxGeometry x="1300" y="-333.9200000000001" width="170" height="30" as="geometry" />
        </mxCell>
        <mxCell id="Q7GEe4TqaoBqQ411YMws-16" value="dacspinboxes.ui" style="rounded=0;whiteSpace=wrap;html=1;" parent="1" vertex="1">
          <mxGeometry x="1300" y="-303.91999999999996" width="170" height="30" as="geometry" />
        </mxCell>
        <mxCell id="Q7GEe4TqaoBqQ411YMws-17" value="dialogdac.h" style="rounded=0;whiteSpace=wrap;html=1;" parent="1" vertex="1">
          <mxGeometry x="1300" y="-496.96000000000004" width="170" height="30" as="geometry" />
        </mxCell>
        <mxCell id="Q7GEe4TqaoBqQ411YMws-18" value="dialogdac.cpp" style="rounded=0;whiteSpace=wrap;html=1;" parent="1" vertex="1">
          <mxGeometry x="1300" y="-466.96000000000004" width="170" height="30" as="geometry" />
        </mxCell>
        <mxCell id="Q7GEe4TqaoBqQ411YMws-24" style="edgeStyle=orthogonalEdgeStyle;rounded=0;orthogonalLoop=1;jettySize=auto;html=1;exitX=0.5;exitY=1;exitDx=0;exitDy=0;entryX=0.5;entryY=0;entryDx=0;entryDy=0;" parent="1" source="Q7GEe4TqaoBqQ411YMws-19" target="Q7GEe4TqaoBqQ411YMws-14" edge="1">
          <mxGeometry relative="1" as="geometry" />
        </mxCell>
        <mxCell id="Q7GEe4TqaoBqQ411YMws-19" value="dialogdac.ui" style="rounded=0;whiteSpace=wrap;html=1;" parent="1" vertex="1">
          <mxGeometry x="1300" y="-436.96000000000004" width="170" height="30" as="geometry" />
        </mxCell>
        <mxCell id="Q7GEe4TqaoBqQ411YMws-20" value="" style="shape=image;verticalLabelPosition=bottom;labelBackgroundColor=default;verticalAlign=top;aspect=fixed;imageAspect=0;image=data:image/png,iVBORw0KGgoAAAANSUhEUgAAATUAAAGVCAYAAACfA2bqAAAAAXNSR0IArs4c6QAAAARnQU1BAACxjwv8YQUAAAAJcEhZcwAADsMAAA7DAcdvqGQAACVYSURBVHhe7d1/aCTnnefxr8YxgbB/iMsm2YVbYs+PaE+YI6sEwdrHOV6QjC2zWD6UgYNgYUg8E4dxZ2HAIktsBwcFBjaKCWic4xL53wyMIFg2M4J1vJx9IGJdAo5uZc9obfbgLsmGaP/IQkjsuef71FPdT3dXdVd1V1VXP/1+Dc10V7eqn66q/vZTVd2fZ+qJJ564JQAQgC9/+ctii9p3v/tdNwkAxtNXvvIV+eIXvygn3G0AGHsffPABRQ1AON5//32KGoBw2KJ2++23u5sAML60ln3kIx+hpwYgHJmPqU1NTQ11AYAq3Lp1K3tPzTx2oAsAVCX32U/tdOW5AECVcvXUAIzeu+++K3feeafpNESHdu677z45Pj5299aLtu/NN990t7rpfUUfniq8qNVqd/PGd+SeqXvkOzfc7USvyON9H9Mh03zTDPB8gEeL2qOPPiq/+c1vZHt7W3784x/L1taWu7defvKTn8hf3vOfEgubTtP79DFFGurLt50FTG9r0a1NYTv9pLx+63V58rS7XZSy5gtk8LnPfU6eeeYZmZ6elocfflg+/elP17an9pnPfEb+5+v/o6uwxQVN79PHFGngnlpaQQNQnY2NDfnpT39qi1tddRa2MguaGqioxQUs7pV1FjiVNK3bDfnOPa2vfTz+ik5zu2ev6C5eNP0ef1/N7vrFf/O4eXSsx7zcn7/yeOv+qegBPfRqRzzf6Dmb0195XKbu+Y5piZPa1lhSm4FsdJfzq1/9qvzgBz+wvbU68wtbmQUtlruomfdfk16PL7HO26leuSSNu162lVUvLzzgpssb0nhO5EWd/s6GSONRV5hMMTnzQ/n8O9Hjb70s8py9Q4vDGfnh599JmFfLAy+4vzN/+KXvPZfhuFZaO2Kn5cnXX5a7GpdMy0zbHhR5+fUnzVSV1lZP6usH+tOC9u1vf1tWV1fdFMQKPVGQy5lZuft7D7b3xKy7ZeNFVxxOPyl/+6U35OAdc/3G2/KWFpozrnfz4PfkDb3jxo788I0vyd/2O8ilPSn9u6kH5XtuUm8p7WjzgLxgCtaDZp7y8gvmlpPWVl/q6wf60+Node+hxfxdTn9XtCy5iprpUOS69GQPuN+SF+VR+8ZP3v26IW+/5a5aX5KXzd/EvZtbWbs3uiuodcf+3TuycbebnllnO7Lo09ZMrx9I9uqrr8odd9zhbtVX5zG0zmNsZchc1Mz7bqBLP6effF3eMVXmrbfjHssb8sMdd931wh7WenD6U3KX6WN17cadXpLP350w3ffOgbxx96yc0et2nnZqHyntaON2O3X/8kHvuFlaWxN0v36gP/0qh369o87STgqUXdgGOlGgF1/ntKTHdGnuDk7JmcZd3u7j3XLXQdR7mTrTkLuau3VmV88e2zrT/LvogH98bKs1vavX88BF2ZCGnNH7Hz2QuzL11NLaEdNjeQ/KWxsXzfQH5OLGW/Jg80RBWls9qa8f6O/ZZ5+VF1980d2qp89+9rNdBS0WFzZ9TNGmGo3GLT3g2Iu+8ZQWKne1qde01v/9KlxMzyw+J7PvjPp7YHVpB4Cs9OTJ2bNnR3iiAABKkKuoxb0vv+OVNE3p7c4eHACULVNRa57Bs5UruvSa1n07qwfkhVr8BKku7QCQF7ufAIJCUQMQFIoagKBQ1AAEhaIGICgUNQBBoagBCIr9mZTGAwPAONM6xs+kAASHogYgKBQ1AEGhqAEICkUNQFAoagCCQlEDEBSKGoCgUNQABIWiBiAoFDUAQaGoAQgKRQ1AUChqAIJCUQMQFIoagKBQ1AAEhaIGICgUNQBBoagBCApFDUBQKGoAgkJRAxAUihqAoFDUAASFogYgKBQ1AEGhqAEICkUNQFAoagCCQlEDEBSKGoCgUNQABGWq0WjceuaZZ9xNAJPoxo0b7lr5Tp8+7a4VS+vY2bNnKWoAoqJWVrHxlfk8cVFj9xNALr/4xS8GulSFogYgt49//OO5LlWiqAEICkUNQCG+/vWvu2ujRVEDMLS4oNWhsFHUAHR4W370rW/Jt+zlR+ZWb52FbNSFjaIGoM3bP7oq8shT8tRTT8kX//Ov5OqPepe1b3zjG12XUSq5qO1KY3papt2lsStytLnYvD09vSibR+ZhR5uyuNiQxmL8uCPZbF6P5mQfk/h3m7LZ0GkN82wp8weQ0dvyjwez8uefim59dOY/yMd+9S/y6+jmWCi1qG0urohcOZbj4+iysSBy8vz15u3jK7Oy9ryrWnsHMnNZp63K1so5kfj6pU050uI4dygX47/bX5btczpd/25NDpd0+oaY2afPH0B+H/3jxKL2y1/+MtelSqUWtW1ZlwtaaXx+j2tlS+TgRlSc5pfl/pPm/1MzMu9f1/uObsiBbMlK/Hdza7K3dyg39b75judImz+AwiR9F63XpUrVHlPTgjO3Lcv7cY9rPSpaWZjitR/3wOwl6pm1GWb+ALr9+l/kVx/7Y/mou5lETwx0Xkap1KK2LGvStfcX98KMo2vbshdd7e3kaZk1u5mZ9iQHmT8A51Py57MH8o/u3MCvD/9336LWeWIg6BMF5y+vy8GK2xU0l8bN83Jxdk3m3O1zh7MZe1ILsmF6Xf68phfdMTXfyUHnDyD2qb9+RORq9JWO//YPH5NH/tqdNeghLmSjLmiKlA4AudIz9MfpeY+T6cmCT3ziE6R0AEBeFDUAuXV+ZaPfpUoUNQC56G7kIJeqcEwNAHHeAFA3nCgAECSKGoCgUNQABIWiBiAoFDUAQaGoAQgKRQ1AUChqAIJCUQMQFIoagKBQ1AAEhaIGICgUNQBBoagBCApFDUBQKGoAgkJRAxAUihqAoFDUAASFogYgKBQ1AEGhqAEICkUNQFAoagCCQlEDEBSKGoCgUNRQnKNNWVzclCN3c2BFzQcTqdyiphvn9LRMu8viZudmuisNNt76Kbqo9N0OMvLblamNnduXue21Y3p6UQZtCrLwl3fD3KpGqUWtMbcty/vHcnyslysye3jT3aPb5KJ5oSuy5W6jRk6el+vXz8tJd3NoNw9l9oq3HaydG6yY5GhX+va1KldsO/RyXc4X9iLRabexImZh22W9v34gK41qylrJu5+zcrq50SzIxsaCu67b53U53l+XeXcbo7G42DC9mVbvxW53zV5Q9Enb7FnZHpfr3bT1vvr0eBY2pLXqT8lMppV+KM832+U9p23XkWyeW5O9vTWZ89vnYfsatV3Z2VqVJbfeT96/LPMHN/r0rItRalFbWt2SFd0oK6rQGMDegcxcdj2XK6uyteLvJpgPIlMYZO15M00Lifa8tXdjit3coVyMezz7y7J9rt+uoHN0Tcxc5P5+PSSvXbYJbfM/Kecvm4I1vy775v7rubpbbptMKYYoycnTMrt3KK19tfKUWtQWNtxGv7QTfeJS3Opn3iswC0tm5+xAbvyzu63MLt9l3XWYnpPt5cvR7trRDfOoVnGYntNeU5YNVouhKWmXM+xCeu2yn/KFvCFMkY4L8TC7wai1knc/HbP7oRvR6taO1wvAuDh5etZd87heUlQg9LJhSkYvuit7SWZsT89NGqmsu8EohH4Qzs+YpV6+Uovaot8zq/BFYUC7O7KlPaQ/c7ctU4zs8V6vZ2N3Jdbk+ayfUPb4W1JBM7u0i/13A4+ubcve6lJ30czbe9ttRMcMle4G7/nHfFGsBXv4acctb7sOZ08Xd/Kph1KL2vLBijvQq7so7bsd9uyU3W2JDvayZzoibvnbdaTFq+3sovaudKL2wsyu25VZWZvTY27RsbaDFfd3eunx9Qq7QZt/a3Otx0eF7KYc7s3LctIBNq9dc9vLsu+dZLLMbvFFd8w2qSgmbl+nZlptNvfN2teFsixsXBGzgqJ1uDZrNqNqlvZUo9G49cwzz7ibmDR6NvFykV/fyMP0nKZ3luS4oo0dYdM6dvbs2YqOqQEJjm4cyGp8zh8oCEVtwhX6Jduc9LtkdNJQNIoagKBQ1AAEhaIGICgUNQBBoagBCApFDUBQKGoAgkJRQ3GaeWdDKmo+mEjlFjX7Q2b3Wztzaf5GL2066qHoolLU+vbblamNu6lx8bsN0xYKZ8n0t8Pxeg89zruoeGeUI+g476igXZJVUnFLNllx3gPFO6MMkxbnrcXu0sy+XL8w46agHJMc55013hnlmKA4by1o5+RyzvhvFGJy4rz1zdGes4aKTUyc95Fc296TvbU5r82mp8dxteCUvPvpJMZ5665NneKdkSaMOG/Tu7vutVd3TfU1jDClZKIEH+dtj8dQ0Gon9DhvVGjC4rzT451ROS82O/g4b1SKOG+MhJ5NJM4bISDOGyNHnDfKQFGbcMR5IzQUNQBBoagBCApFDUBQKGoAgkJRAxAUihqAoFDUAASFogYgKBQ1AEGhqAEICkUNQFBKLWqJo/00c+ZzGORveil6fogUtVxZP9mxrLqE0VNjxRar6OWp83PZaK0stQH47Rq4jbsdw+ZpZlyrbenjafiPSx/uzQ69Zx/TZzCaToVvw1lfV5myLbOihVHUih7SbdIFMEReksRh83Z3msO4HR/vy/rBpcS2ZRruzRSmSwcu5lwDNTNHAxtFL/OMr6tMgQ6RlzDMma/tE9yv5O2fMo3X3WSlwYKd84o/5dz/m81PSy/x1H8uTUR1k9vbEM83ev5mj8I+Jucn75gIZYi8qGC5x6f0eBKHzWtrmybx+sM6xvIP96ZZcfMzCYn89jVUvczTXleZAh0ir/cwZ2blmeISf4K3Krnm1rcqvF427on+wq5Ue1ePsQ3Mhn645P5Wh3y75DYU77laG7ZOTxrqLW1oOPtHYQlhiLz7r8k5jYt27bkym3fsgmishOnpHVnqO4CMkTbcm/a2Lh7aQhsNxSdmvgnFp7JlnvN1lSmUIfJ6DnNmB2JZlwt+JdfRpuxG35repJ/KdqX2WTnePOXUTFS8Op6rqddQb2YD7RoaLkQhDJGnbxjbnqg4LGzkfQPHI00tyY7rAfk9v8XN/+ce10ccTx5VYVfMEnpIlS3z7tc1CcbnmJopSlfK2C93n/b2089eWm+IxKHhJlD9h8gzvRvbBn3z6pt+0IPSOgLSnhyaSmF3Vd1ru37+T9z9jv2Q7B7ubXdnK4on1x6b9qTm5mRNBhsWrphlHmu9rpFJWWZlqKyodQ1z1jHMWvP+k/ebnZPk4ddOmQ3tiqy0jjdkZZ9rW665P4tGNzI62tDOvAntru4QB7bHzbgOkWfm37Dz0OK2L+vzpueTcX0dbTa8davHgeal+1BYtuHeTs3My1b8INvbMvsJ/XpTJS3zbK+rTIEOkdd7mLPo2EE8zFprCK3oeIk//Jp/okCH3Zpdm8tZ2Mxz2eHdovmdO5x1x9Ta22AvzYO1ulXpJ2H8t4N++tect47Gdoi8a39kdvfcyOs9DhckDZtnaoXXLrsAEv82y3BvJ89flnVvWEg9rmbqkvmzjl2/CpZ51tdVJobIw0joGTeGyKuQ9lrPyeiWecAYIg8jxxB5KANFbcIxRF7F9CQCvbRSUdQABIWiBiAoFDUAQaGoAQgKRQ1AUChqAIJCUQMQFIoagKBQ1AAEhaIGICiTVdT0x8Q9kg0wpHFbvmwPQRrvosZGWY4Sl6sdbSll3rUdiWmCUmOL5S/H6qK7xruo8ePgcpS0XLVoXZLV9oFPYqYw1WYkJmu1OebBca8xMZAqyNGkkkf4af8U1NfZ9rj4U9F9+iaODBWLP6F7PVbvc9MYRapbJSMbGbqOL83sy/ULM25KupGPxIQCBDqaVPcIPxrf3KreetHoGT8Pvu1Tei9pZKgUiY81G7kpZIwi1UMFIxtpQYtGV+qxILW3VauRmFqDnORLWUYiG0feb6CYYpRa1LpG+EkbKcr/FF3ZEokruj8CVDwyVJqkx9rBHhhFqqfSRzY6kmvbe+Yzx8Vtx3HatmflqdVITKY4xgVwksaoCESpRS3TCD9a0HTYtP34U7RjsNmy9BiZh1Gk2g03slE8TJu76PrVv+04BlbfkZiyDr6MnkIZTaprhB9JGSnK+/RtjvRUBNvlZRSpzMoaTSqDOo3EpL3G1jFZs3dR+ejmIQh1NKmuEX4SRoq6eV4uzrZG12mN9FQEU1DtaDyd846OvUz0KFIx3RWMl4G+9LYeVNrySFt+g6vTSEx6+KL5WHtMNmuvDj5Gk8JI6FnDsRnZSA9VMBITUjCaFIAgUdQm3Fh9eVlPItBLQx8UNQBBoagBCApFDUBQKGoAgkJRAxAUihqAoFDUAARlsoqafiN9yJ/zhKbWy2OY9VX3dc22WJrxLmqj2jD0eePfEJrLxOVt5V3uJayngaO/+6nBa+tvVxqj2O5z09/ixuuput9Qj3dRG9U3zG8etoInydvqr+j1ZArJwNHfRat4G4xSoldky92uM+K8m9O8+GXzN7WM817YsIm9kTDythLXQed0uw41UdYFPfrLStn1UG3cdmr0t2dcX1sSmxJdVebgUIjzbt4euzhvm+brpbGOqcR1YN6M3eswio+yQY9mWldEdxVx29o7yhL97YzVawsVcd7jEuetG6zZeC8H8CPrpHWgG2LnOowena6KuO2s0d+xMXptfu+xraeIzEotamHHeZuCNn1JZvr15MZB6jowvQ+7bPqsw5yGjdvOFf09Zq/N71X2HKhm3BDnXRDb5S0hztt+8gdS0GJJ68C8zq51GC+PLLsSJcVt547+HqPXFg7ivJsRzeMQ5x29Mfaa89XLWO8qmMKQuA7MG7J7HbrHmw1Wd6m6Xrd5A8fzKStuO3P0txqz19aP3T21u7BRW7pOntUIcd4Yf9qDDTVuO+TXFgjivAEEiaKG4phdt2DjtkN+bYGhqAEICkUNQFAoagCCQlEDEBSKGoCgUNQABIWiBiAok1HU9NvgQ/w0BRmN23JmuwhSqUWt+Vs377L43HNeYF506fr9mkbL+I/p+QO33b7RxvpbTVm+v/XFSd2Y/fmbS9tTdNzf9hvAgttWS2W82b3llvY72YEjugtub3uopLvU+UeWtaW/h42XYTEpKFmUWtSaUS9e9Mr1//rR9igW92PfeJuxG5T+Lji+31yuyE7iAok2vv7RxjcPtaZ1fBc8tQ1mRfhRNZq4cBhlNpTRtloq+tvzWtC85ZYYqWMK08AR3QW3ty1U0lyurJrNpU+6LroFGeediW6QWlRsUu2RaKdqfb89byotwM9ufFo03e1kGivcI0BQtbVB+Y9fkA2bLlBG20aviojq3Z2DruXWS2pEt21XxZHa5u8uba3KxZCyzSoRaJx3ZjZz6lBuajLuXp8ClJfmXq0u9X9DxW0wj9QcKJtU6n+ylNG2Oig9olo37vaYpsQPbP1gyRLRXXGk9u7za+aT7ELmgowUzfdX+ep3oqDgdMxmSmoOCxtu41/aid6I8buwouTOSnkBiqXFb5u5NnfZtUfcVoicrBHdlbTXoZc2lupR1OKoX1vNW0m1wzuSGwfzkulwSFLc8MKGeSNekdWtHdktvG3jY9iI6jYn75dlP2XWyRXR3UdR7aWXVqBQ4ryz0V2DNZm9qAd6F+SCflB3pM3uNgY8c5J5pCevDXrspW23M14ZBbetjkqJqI525y/F+5Epu/G5I7pVmZHa9NKGFGqcdxo/Ftlm/UdD5Sk9wG7PlDTvn5YVST4mZs8w9og27voqhy+tDdqT8KKip73RoopsW234y0GLQdtZRFMg7ETt1QweUb2wsS/L2y46255Z7u4lZY7orqC9Zu2Jjv9JL204xHmXQL/3tLPUKpjopmcNxyaiWnvRRGojxQTEebefUgYwGQIuamaXI+vB6wk2VhHVehKBXhr6CLioAZhEFDUAQaGoAQgKRQ1AUChqAIJCUQMQFIoagKBMRlHTb6L3/FkMCjFuy5ntIkilFrXm7+y8S2Fx3rpBeo9Ji4hWlcd552hbLRX9Zm9bHukBjXWJ89Zfo4wihjo8o1mOpRa1OD+rlDjvm4cy66KCbeR2M4OrW+Vx3jnaVkuFfnM/Dmt0y0N/ZJ4U0GgKUz3ivE17F+1Kdu0VWaE3NxDivPPGeS9seD9UPyUzqbnZI4jzzty20as8HvvUTN+I89HGed+Uwz3vN8MaRFlRYmtYiPOOon4HjczulZs26jjvzJluI1J6PPZJOX/9ohzGcd5elFMb/WCpTZy3H2KpH0rdoZbIqfn+Kl/9ThTkTsd0u4tJbxRjtHHevdtWCxXEY7d2Q/ZlfX4vedeyNnHeWhg1edc91sxnLcSxKQJWj6IWp8vaap4nMlt3NzTgUT+N3aQ2o4zz7te28TFUPLbZ7dNjZRfsndprM4Xt4FJXD6xWcd7ahvhxpsjO5/4wQ5ek91dJalDUtDczQJy3PUbSp2hk3vXz2qDzbdvtjFdGwW2rozLisTsfm7IbX7s4b8sl4KalJ6MH4rxzx3nbhWT++UOvdX51YlRx3lnaVhv+ctBi0HYWUXubOlF7NWa3bKB47I7H2jPL3b2kWsV5N7+2o7uw+8mDL6Mv4rxLQJx3f3rWkDhvhIA4bwBBCriomV0O4rz7Is4boQm4qAGYRBQ1AEGhqAEICkUNQFAoagCCQlEDEBSKGoCgUNRQHP3Gf6+fHw2r7PkjCONf1NjQi1faMt2VRtt89bea8e8xE4IBsvLb27PtBT0fMhrN8qanhm4lfHPfRqFPr8iWu60Ki3vO2N5RxUtPqjDjvPVTs7NS22l+1dZq7t8XP96LYTafvJt2UI7Oah9Fw+y55AabhJE6j1YMdGNXc+jj6933N6dPgKrivDXhxGaTudu63geLez6U55vtbd9GNA6+a3toGl289GQKNM7bZpR1VmrzqXrRy1lqxW2bN1Ba5LLZSA+XdHrnbzlPyvnLrYFdrp+/2WMeLgbaRkBr1IO7Ho9L0DMmOmCVxGNnYDPPMsQ9e+21TWt73s7toUffLevzoRgVLu9Si9qB2biixFPzmrRSa4Ksub6wZN48rqrt7hzIuj6oV+SyN5+ees7DhUXqwB/+db1PJcVED/UuHRNJr7vgOO9Cee212xSFCR1Gc0xt4YKsH2iBM13UA+9NlSdyOU0R80CboeOxs6gw7tmq+vkmXYXLu9Si5kco2zTY5qhOJ+X+5QPZaezIQZxMO3DkshF/Wg8zD18cEx0X20lRejy2r1fcc3TMs19acPs25UnsvY0uXnoyBRrn7Ucod8b56q7DwZbIxeZxj5yRyzF3jE53hRY3Tw02D2XepOkx0QHr+br1RIFO1F7YEPHYhj37aXdTo+fTw6vpcc869uZ89wDUymvv3Pay7HfGGrdtD+0tGlW89KQiznuU9OzZhMZE61nD2r3ueLg8ig5ymIA4b4wrHaE971itQIyipjJ+eTNEdXzd+p02OmkYFEUNQFAoagCCQlEDEBSKGoCgUNQABIWiBiAoFDUAQaGo9dLM6UImZS8v1gcyKLeosRGOp9LW2+6I47xjne1AOQpavznRU0O3En5hUYc4b5XUDpQjyDjvSqO22+ZtLv4nd3O692mRZbqmSrjJoZqcOO9IdztQjkDjvKuL2jZvPlOA4ujw1kbbPr31aZFt+kRs/JMa541qhRLn3abMqG2bqpkQ+d0xvRkpnnH6REhatsR5Y4xVe0zNfYLaT3d7KShq++Zh8LuJoxRknDeqVeH6Lb+oxZ+kZUZtaw9jb1uude7/dDxnM/655/TWfOz06OpkCDrOG9UKNM5bd12qidqOo6bdY3R3KJ7uPWcrUrjHdG8+5w5nJ+CYWq9lawpaQHHeKqkdKAdx3mn0zFbeqG3ioDPTs4bEeSMEwcV579oR3N3Fdi54Q4wr4rwxDAZeARAEBl4BECSKGoCgUNQABIWiBiAoFDUAQaGoAQgKRQ1AUChqKE4z16wkZc8fQaCoDaKUN5f+ztL7VUTzR4n+dD/rLG16zNw/aBtLKx6dber3GjLy25up7WnLZohlhgQFrd+cKGp1sbujURguxmdf1g8u2USMtEjkXlHJQ0dWT2Cc99DLDF2CjPM2L6ut96GvKdp44mkZI72VPibx7zZl0/7uM/okSJx/h7bH2E/m6Play1zbHf1t4mOLiCnvtLAhrZ+rakrFrJw+mRaJ3DsqOU9kNXHeEWK+ixZonPfmYqtS60XftHbjcbePNcomDuXqGelt3lypUeBrcrik06OQwtT5x8wb4JzGoLjHXJnV7K2Tcv6iea44/ElzxVYvynlJeWxRMeVd4sK3I0tJoYs2xywhKyxtehbEeaMKw2yjOZVa1LYlKWLb+4RfMZ39uHrHwY9Jkd694qM747fT5h/ThWvnFb15FzZc8dCgSY30Nld3d7ailIi0x/p6tq3Ha0pk3pTX9Q27JDsZej+FiNuliPNGAKo9pqYFZ04/7eNP+Bzd/Szx0Znmb3of9u+1cOibMu6ZxEmdfrc57bEdio62tm3Zk8POd2taJHLJUcnEeWNoFa7fUovasiREPnuftJnjsm3XNWN8dL/5m8LXsF0gLVj7sj7fGsRl4YKmua7IwfqF6A3a47FFx5QfbTa8npkW1nmZOZUWiVxSVDJx3ihMSdtoBqUWNT2+4Uc+N26el4uzrTjm7HHZ0bGdvvHRGuXcb/7mDSlrc24+3i6Vve9+WZ73YqTTHtsWGT1ETLkneqp4HlpF9NiVeeUpkci9opLtyY2skdXuMfZ57dNOZpx3rmWGTIjzrgONkb40I/t1i7cukZ41JM4bISAkMoE9QXBxcgpaXRHnjWFQ1DwLG9HXTiZJ0V+yLYJ+LYdOGgZFUQMQFIoagKBQ1AAEhaIGICgUNQBBoagBCApFDUBQKGoojgYKDPATsczKnj+CQFEbRClvriiQsflbyuaPD/3pSSkh5v62tvR7fAalFY8S2qr89mZqe0c79G+a7ej/Q3pkVdD6zYmiVhc547xVlMpbQkR2jnjsrEprq8rR3qR2yM1DmW0uey+NBEMhzps47xxx3u52VwR1/ghl4ryNtmV/SmayRcegp0HX7/BKLWrEeVcU550my+OJ8253dE3Mq2ylAaMYebfdIZRa1Ijz7vGaEhHn3ZfX3uLjvLVYm5J2maSWcVbtMTUtOMR5Z6BtyRHnnaagCOXJiPPWXe1LMmN7om4SilPh+i21qBHnnV2+OO80Q0YoT2qct+3dU9CKNeS2OIRSixpx3tlFTxXPQ6tI7zhvZU9idERQ545Qdn9rn9c+rb/rpb0Xnai9MLMOAo3ztm8486+1/PsXVPRHnHcdEOddD8R5YwDEeScgzrseiPPGMChqHuK860G/lkMnDYOiqAEICkUNQFAoagCCQlEDEBSKGoCgUNQABIWiBiAoFDUUR39DOcBPxDIre/4IAkVtEKW8ufR3lq3fHvaP8877+BxKKx6mbW3zLaCtym9vprb3aoe5NJclhlPQ+s2JolYXeeO8B4j/zixHPHZWUYJwTeO8U5YlhkOcN3He+eK8B4j/TkKct5G4LN1NDGjQ9Tu8Uosacd5lx3nnfXwC4rydPssSw8m6fgtQalEjzrvHa0qUN867gPjvuF1qouO8C1iWqIVqj6lpwSHOOwNtS54477yPz2cy4rxjKcsSw6lw/ZZa1Ijzzi5vnHcx8d8dJjTOO3lZupsY0JDb4hBKLWrEeWcXPVU8D60iveO88z4+lTuobudjZ+OfRdQTBTpRe2FmHQQa5522LDEc4rzrgDjveiDOGwMgzjsBcd71QJw3hkFR8xDnXQ/EeWMYFDUAQaGoAQgKRQ1AUE78/ve/d1cBYHxpLfvtb39LTw1AWChqAIJCUQMQFIoagKBQ1AAEhaIGICgUNQBBoagBCApFDUBQKGoAgkJRAxAUihqAoFDUAASFogYgKBQ1AEGhqAEICkUNQFAoagCCQlEDEBSKGoCgnPjd737nrgLA+NJadnx8LCc+/OEPu0kAML60lk1PT7P7CSAsFDUAQaGoAQjK1BNPPHHrm9/8prsJoArT3/q/7hrSHD/1p+5aNl/72tdkeXmZnhqAsNBTA0Yg7qm9d/4j9n+0fHLz3+z/9NQAwKCoAQgKRQ1AUChqAIJCUQMmyLvff0Q++clPNi+PfP/d+A555JHvi7sl8uqavX/tVXd7jFDUgAmhBe3elx6S1957T96zly2ZefbeVmGLaYFbPZSnX3tP1u9z08YIRQ2YCK/KC8+KPP13j8kdborIfbL+2tMiL/19q4emBe3el+Sh167KY60HjhWKGjAJ3v0nOfzMQ/JXnYXqjjtl5s135J/sjZfkb8a8oCmKGoDImyIPPT0jz/6Nd2xtDFHUgElge2Qvyd93Vivbgzsjd+p17ck9ti6vPfSS3DuOZwgcihowEe6Tx5+Wjl7Yq7J277Ome/ZX3nE2U/8e+zt5+nC1+wTCmKCoARPijseuRr2w5lc6VkW23pOrXQfQ7pDHrqacGR0DFDVggmhhi77OEV2aX9m44zG5erXjzKi5v7vg1R9FDUBQKGoAgkJRAxAUQiKBESDOu7+BQyKv/viGmwQA42/qv9x9963//vLL7iYAjCftqT388MNy4k/+4i/cJAAYfyeuXv1f7ioAjL8T//Hf/au7CgDj78T/+fefdVcBYPyd+NzpP3JXAWC8TU1N8eVbAOGgqAEIDkUNQDBOnDhBUQMQDnY/AQSFnhqAoNx2221RSoe7DQBj7Qtf+IJM/exnP7v1hz/8QfTy/vvvywcffNC83Lp1y146bwNA2fxao8fK4v/tcTPdzTSX+Lr20D70oQ/J7bffLlM///nPb2kxiwua/h8Xss7/lV73nwwAqhAXNOUXtPiihe22226T/w8AlCDUuL64oQAAAABJRU5ErkJggg==;" parent="1" vertex="1">
          <mxGeometry x="-530" y="-406.96" width="219" height="287.04" as="geometry" />
        </mxCell>
        <mxCell id="Q7GEe4TqaoBqQ411YMws-21" value="" style="shape=image;verticalLabelPosition=bottom;labelBackgroundColor=default;verticalAlign=top;aspect=fixed;imageAspect=0;image=data:image/png,iVBORw0KGgoAAAANSUhEUgAAAYQAAAJaCAYAAAAvYTARAAAAAXNSR0IArs4c6QAAAARnQU1BAACxjwv8YQUAAAAJcEhZcwAADsMAAA7DAcdvqGQAAFF7SURBVHhe7d1fjFvXfS/671zg4l5cuLBgeWrcvkhOyZEz4EMbGcE5ZGBFkaMDcgR3oosQRV5m6oMOk4eWrFEBFjLo1IUCBVHhku2DMxPY1cCAHxhceWpoOIiURJFPhgkMyy0MgrWGPI704gtH0q2MGvfFRuau39prb25u7k1u/h1y5vsBFrT32n9Jkeu3/uzhmtpVQEREB97/Yv4lIqIDjgGBiIg0BgQiItIYEIiISOs4qDw1NWWWesMxayKiyRAqIPRapkssYUAgIpoMoQNCtw0F+xgGBCKiycAxBCI6cO7cuYMnn3xSV3glnTx5Eg8fPjRbx4vc361bt8xaK9km+wzCwAJC1w2BrYzznzE1lcGWye5JvYDEVAKFulknImpDAsLCwgL+4z/+A2+++SZ+8Ytf4PLly2breHn33XfxXxNf8Q0KkifbZJ9B6CkgeAv/RveQyehECvAUUFIHSJfSbm0WO20jwhYyTQW+Zz2SxfbuNrIRs05E1MZXv/pV/O3f/i0OHTqE+fl5/NEf/dHYthCOHz+OX23/siUo2MFAtsk+g9B1QAgKBl2pVVGOzyJqVqVAzybNMhHRCOXzefzbv/2bDgzjyhsUhhEMNBlUbsfaBU3/2st28ua59/VX2l1S2+L5mll3qeV34+Z8wJLa09rXvgaWljzrqp2h94nvWqczy/klZ5+m67jOH8/nXcfVdvPxxnn1aYloX/vnf/5n/X2XfyfBu+++u/u//m//u06yPGhdtRDcLQFZtpPNux4sidXdGtLFqNp/Chmnu2gLmWgR6ZqJLCXgQiGq9i1BFdxQBTd2V1c9635NizJy1XlzjiWUc5fMGIWcP4dYyTr/OopY0/nK1iXkYiXrGJV8T0tE+8pf/dVf4R/+4R+wuLhocg62PXzKKILstip8a3lUUiYo1HdQkcI8agabU2soV2vW7l1RweKcKdGT8yp4VLAj4w1y/nge9qZIdlltM6KziK+lkODINNGBIeMGMn4wCdzdRH5jCoMQOiCoSnNXKbRIFuv5ONY27GbCUmOwWdKoqup6YFpaDQueVgsR7Vc3btzA0aNHzdr48o4ZBA009ytUQLC7grpNgbYKrieG6tgslhGfjapCeQYxrOHCsGrpcv5yDpdMYV8vXGh0GRmR7DZqKkBVdJOCiPYzedxUHkEdZ0EDyEMJCqoW3pbsYie70t4ur3Xdj3eg2DWC2zSo3NhWWmq37jOo7Iwje9ZL7sFm16CyK98azCai/U6+74uLi2ZtPMk9thtAlm2yzyCE/nE72ctb62+X1/i37en3lvw9RLSK5d1VcAyZiA66PRxU3ntbl3LNfw9BRHSAhQ4Idq3fXeH3yxOy7m05jIc6Cgn75zKmkFpbQmk7C/6BMxGRKrc7dRkREdHBcKC7jIiIqIEBgYiINAYEIiLSGBCIiEhjQCAiIo0BgYiINAYEIiLSph4+fMi/QyAiIrYQiIjIwoBAREQaAwIREWkMCEREpDEgEBGRxoBAREQaAwIREWkMCEREpDEgEBGRxoBAREQaf7oiwMcff2yWaFw98cQTZomIBoEBIYAEhJmZGbNG42ZnZ4cBgWjAegoIB6X2zIAwvhgQiAav54Cw37+MbCGMNwYEosHjoDIREWkMCEREpDEgEBGRdjACwoev4PTpV/ChWR26rQympqYaKbNlNoyBegEJ170lCnWzIYDsnyjA2cu97t1GRBNt6AHhw1dO49ChQ046/crIiuU9US8kMJUCSru72DWphA2MR0jYQiZaRLpm31sJsWrNbOtBJIvt7SwiZpWIJttQA4IEgy+9+Q289/AhHur0Hr5x+yejq6mPXB2bRSBfW0XS5IjkqrWug4VTO09AV851LTuDTMLKz2zVUXCW9eHWPr7HFVDISF5GBxzf87eIYcYpwZNYXTV36ncN9XoKCzmUyzlEVX6i8LPm9eVlq4XQdC9W8r93lUyLoule2cogGgtDDAjX8Y/ngYs//A6+YHKglr6TN+vSjeO0HE5DNxxM184ruUaLIndddjbb2u6fU1e0gpB9rLPfqNQ3USy7C9xmkey202rYLcWQu2RKzXIFs+uSt4S11AJgL1+QglJq9VUs28fV0igumAJUFczVecm3Ak7g+R1JzC+tISWFcFM3VtA1Isiu5xGP51FT+dvZU83ri9PmeMW5F7m2+95ziJXs86pjZV8VJBZyMacVVYpV0Uc7hYgGZHgB4cM6ql/+Bv5bIxq4XEfuS7dxzm45vPcNvPlt08f/znncnjP5P17E5UuSH2b/PL6uVr/wnWvWPvr4WZz/RzuijEh8FlGz2MJdW06tAZUdq2CPpzEnQSQ6qwpb17Jsq++gAlOIS1IFbLlsClBVMJ9zN0WCzu+SXDWF8/yGtZ8EhnbXCMt9L+57996jiMyodopcz2rZ2C0oItpbIxpU/hCvnDa1dhnclWCBy/imXZP/0nm8885t/E/Z9csX8ZdSsos/PIYvy79h9xfulsQ3LwPV+ui6qKSgKxex6df/IYW1u//eri2HYWrk+jidfArQbs+fXFX7lbC0ZsY3wlyjW7UqymaxWRKr+hrz2NBByAoMRLS3hhcQvhDB7Dtv4ie6NP4CvnNNavYXrQJeqIK8MbYgyarhBwqzvwSDL72Jb7xn9nFfbySSOJcHctHmAm4rY9bt2r9S3ywGFJYeOsjk0NL746fT+SVouLuKdA1etWg6XcPbWgjbekjOY8kvQKr7yOhBCgkMNeTjFez4BVEiGqkhthC+jr+8CJy3u3bcdLA4j9C9Od3s7+qm+vAnb+Ida3FkpB+/lq80ul9USmEeyUgWyzFrMFbyFqqxkC0EVWiq2n4l1Tif7yBsmPNH5pCupBrnkRbFujwl1OYacl4z7qAfUXWvX76nTxtMnVfGMqL29XJWkFIBSGWaa0VRTK8jGzDuQkSjM/TfMtJPGp1vFMtfvvgern1Hldi6Nn++UWBLC+CHwLe/Dfzwmmvg2V4Ps79yPXcI0lMkvry4CFSP4Yc++3XC3zIaAvn7jI157NpPNvWBv2VENHj8cbsADAiDsZVRLaQ1s4IllAYxNqEwIBAN3ogGlemgcp5qGtRANRENDQMCERFpDAhERKR1NYYg/eoHCccQxpeMIRBRe92Os3UdEFhIEhGNv14evGCXERERaQwIRESkMSAQEZHGgEBERBoDAhERaQwIRESkMSAQEZHGgEBERBoDAhERaUP7S+WD+NMC/CtuIhoXvfyl8lADwkEqIA/a6yWi8cafriAiop4xIBARkcaAQEREGgMCERFpBysg1AtIJAqom1UiImoYj4AgBfXUFKZcKbNlto3EFjLOtTNqjYjo4BmfFkI8j9ruLnYl1fKoXBhdTX4rkwJK1rVr+QpSo41GRERjYTy7jGpVlGMziMhyU+uhUXuvFxImT1ICBYkepkuokHHt6z4+mkNZ8ppsYWNtCfNJay0yl0a8ssNuJSI6cMYnIJRziNoFd6qC/DkpobeQUYV4zKf2HsluW60JSaUYcpdMqFDnqc5L/iqSnuOl5RG39goWmUGsXEXNrBIRHRRj2mWURnGhgHp9BxWVr2ODomvvaxutNf/UGmDX6l37w3M8EREFG88uo061dAkG0SLStS5q/mHpIDKLqFklIjooxjMgbG1gTQplHRhysHuD6ptFlJfmoSv88TTm9CCDybcWm+nji9g0AwL++yUxv7SGDfc17PELIqIDZEzHEIDSdlYVykmsyhNHKSs/mouhtKrCQSSL5Vhj/4VqLKCFoI6X8YVo+/2SqyXAew0iogOGv3Y6IPy1UyIaJ/y1UyIi6hkDAhERaQwIRESkMSAQEZHGQeUBkddLRDQs9gDxo48+qv/tpJdBZQYEIqIx5y7chxkQ2GVEREQaAwIREWkMCEREpDEgEBGRxoBAREQaAwIREWkMCEREpDEgEBGRxoBAREQaAwIREWkMCEREpDEgEBGRxoBAREQaAwIREWkMCEREpDEgEBGRxoBAREQaAwIREWkMCEREpDEgEBGRNnGT7Mt5aTSG8f9HRN0b1ST7ExkQWFANH99nmnS/+MUvzFJ3vvrVr+LKlStmrTtnz541S4PFgBCABdVoyPtMNMk++ugj/N7v/Z5ZC+c///M/8Qd/8AeoVCp4+umnTW447777LmKx2NDKPQYEHwwIo9HLh4m6I9+nw4cPmzVye/DgQd+fv3/913/tKSD88R//MX72s5/1FBBOnToVusDuxqgCAgeViYhIY0AgogNJuoXCOnLkiFna3xgQiOjAsYPB8ePH9b9hHISgsL8DQr2AxNQUpjJbJsOylVF5iQLqZn3fkde9n18fjZ8Hv8b6+q/xwKyOs25aBl77PSjs/xZCfAlLlQso2KWjKiwvVOKIm1UakOs5HDp0qJFy182GCfPhKzh9+hV8aFbHihS6f//3+PumdBU13/z/G5vr3jwrrf96EortLsn/m/vzp5KffoKBbT8HhQPQZTSL+TRQ3LQiwtalHGJplWGzWxE6JZzAUS8kTF6bfKmFe2vj9rr5tyCtkakMdBvF71p6vwwyCSs/s1VHwVmWg8w+vsfZ53fvr45fyKFcziGq8hJOJByeD185jUPfBH788CEemvRjbGJCQ8J4m/4K/uyv/xp/7aQziPrm/1+YWzDLf/YVTLu2L/yXffpk05cv4j3XZ9BrEMHAtl+DwoEYQ4hmlxHLXcKWKkQvVPI4N2c2qGI6E61ieXcXu5JqaRQXrMI9kt228iSVYshdUqWtOn4hF0PJ5JdiVdSsE/lThXJ1XvZdRbLNtVCuYHZdrrOEtdQCYC9fkO3tjrPP794/gux6HvF4HjWVv52NyJ5D9CF+8iZw8b08vm5yxNfz1roOFk6t7TRekaq3roXnkDtt5eeuf4hXnGV9uKfG5z7uFbySk7ycDji+5/do2seu/fudX2155dvn8c475/EllX/6woXm1oK5/oee+5c0qQ0iq6vnKq6a1sTV2gP82ll27eO0MFSLxGQ35f/zL3HPZDfvv45xaZDI3wiEov5/O7l7965Z2l8OyKByEvNLa0hFVetgOauKTKO+gwpUvl37VtvLZVPIu2vlqTVVvdhBPTKDmN7fqvEnV6Wgb0MVyufsHdpdK57GnNxUdFYV5K5l2db2ONf57f1H7cOf4M13ZhH5gln3+MJ3rjk1toc/nsX5fzQl5ztVHPuh5C3i8je/DdjLl6QAvo7cl27jnH3ce9/Am982BbMqrG/PSb4VcALPb1Nf7m+fn3VaLz+evY3/GXj+L+A7P7yIL5ua5rVvtalJ2/cvx+vXYAWoobv3S/yzU9hKMgV0UH4Y9x7g8TOq9fAnT+GDf7kK2MtlGROo4aoq7A//idW6+LOvPMC/6EjRnK9bIfpkkn8fcdMa+es/O4bbV0c0tmACuR2k/YQJCrkvnTdL/vZrMBAHJCCowvucqjVjCfPeEtzUpHUtWydVyEswiBaRrpm8mhwrkljV+8xjQxfQpisoLL9rmU1t9XrcqHz5GP7QLLZw18S/eRmo1q2C/cvfwH+TIPKHx1QB7FqWbR/WUcVlfNM+Tn1B33lHCnJFFdZ/6W6KBJ3f9oUIZvW5rAJbt1zanT8s+57F1+ewqM5Yb7rwkITuMjL5YUwfQ1Ri32OPY9q9LNsePMADde7/ak52OHoM0x/cRs2T75B8fIB/sQOTtBzu3cf/azYPVYcuI1unoFBV5wmyn4OBODABAZEstr0FqdT4yzlIb1ALu6au1DeLKOuFAjK6T14CQw35eAU78vmwa+yKs69Xu2u10+txrnsaKilw33kTP/ErDKWw/tKb+MZ75kv6nqp9m00deb7cdougSajzfx15ffwcNnUAMDX5MOen3vQTnEZEgsLCwoJZC2e/BwNxcAKCL1Wwq9p/JWW6YyTJgLAKHssxa1BW8haqMauFoApn5KJm3yiK6XVkT2Wxnq84XTrOvi0CrmW2BuvhOLl/6SJT+w5/UPnr+EtVoTr/peYuk+s5u+Bt1KQ//MmbeMdabE8HmfPw9v746nR+FTRyeoBAAsN7uPhlVZNHh/O7Wwuu5cD7v76Jy+4Ww35y+DAO3/slfmVqFw9qt3HvKWlFSL60FFz5suDZf5zdunVLJy/5bHgdhGAg+FtG5Kvb30GRgdsvnXcVl4s/xsP811VgOATpyRFfXlxU7fFj+OEPgW/LsMG17+ALUssPWpauHOtQq0bvPs5k+57ftV3tgdyhb8Lsok7zHq59R231O785zj6n7PtDfNt5XU337z4Wi/hxDy2Mrn/LSAZrpYt/4b+g6aigfFu77e5t7ZadQeOn8Cd2jb92FX//Lx/o3OmnnlLnetxnf0VaDH7XbqPr3zLy/n8qN27c6O23jB79NX72m5kD+VtGDAjkq5cP04HhDlwmqxf8cbtg/HG7ZqMKCAe8y4iIiGwMCETd+sJ3cK3P1gHROGKXEflil9Hwscso2KC6jHphdxn1gmMIARgQJpu8z0QUXrcFdjcYEAIwIBDRuOmlwO7GqAICxxCIiEhjQCAiIo0BgYiINAYEIiLSGBCIiEhjQCAiIo0BgYiINAYEIiLSGBCIiEhjQCAiIo0BgYiINAYEIiLSGBCIiEhjQCAiIo0BgYiINAYEIiLSGBCIiEhjQCAiIo0BgYiINAYEIiLSGBCIiEhjQCAiIo0BgYiINAYEIiLSGBCIiEhjQCAiIo0BgYiINAYEIiLSGBCIiEhjQCAiIo0BgYiINAYEIiLSGBCIiEhjQCAiIo0BgYiINAYEIiLSGBCIiEhjQCAiIo0BgYiINAYEIiLSph4+fLhrljv6+OOPMTMzY9ba29nZCb1vN4Z1XqJhu3LlilmivXT27FmzNDhSLj3xxBN6+dFHH9X/DlIv53cfExYDAtGISEB4+umnzRrthXfffZcBoQ12GRERkcaAQEREGgMCERFpDAhERKQxIPStjkJiClOZLbNOA7GVwdRUAoW6WSeioWNACFIvIJEoqOLes+xRLywgFythdzVpcoaszb203TZow7iW+5zJVeyWYsgtjOj1jNqd13D2yBEc0ek8bphsor3EgBBGJIvt7SwiZrVhC5dyQP7ciIJBJ4H3OQSjuFbyHPLI4dJ+bHwdfR5Xbq7g+PEV3Lx7ESdNNnXn/fffN0ut2m0jfwwISr2QwNTUlJV0DbWOwkIO5XIOUZWXWF72rw1vbWAtnsacKRVbzyO2kLHzVJKepab97G4RUzsuZJr3beZ/X9YxGWy5a9iy7FxDpa7y/e5JnV/2s9nXatrHSvq+dX4GGelOa8m33xvFWfe8Nn0DEcyl46jsOHsTOT799FO8/vrruHbtmslpkDzZJvtQeAwIykIuhtLuLnZVKsWqqKmCKLueRzyeR03lbS9Omz2b1XcqiKfnrFqyKthazyPjCymoTJ0nSXqWItltZ113i9hVYFUYVuft/CWsXXAVnJrPfTnHrKLRTlFBKJpDzL5uTR3TMb+KZcnT+WkU7a4a3/N7BN13uYLZdVd+yhNUmnheW9aKspGZGMrVml4mcnvkkUewsrKC69evNwUFWZY82Sb7UHgMCEoMa0iZGnBytU3B105kpvU89U0UkUdLj5LUik2teSq1BlUFtgpQVRg6+0ZnTWHdgfsYW30HlW7z9b2be1JBo1yWgKb47e8VdN+u1hOS81hSV9m5a9bDkvPZ7w+RhzcoMBj0hwFBWdU143ls6AKxXS22nWS480gwiBaRrpmas1NLH6BaFWWz2CQoX6hCXWrm+p506jEwDprcc2zGaoUR+XAHBQaD/jAgKBndXy0Feg35uKrF2tVRu5YcQHdnFDet2qsq6FvOgzmk/QZF3eMOm8XgQjpIh/vStfFyEZveanVQvrRuykMevLXHW46oZdf9t7x+z2vT3XKzUbNG5M8OCgwG/WFAELmo1VUyFUUxvQ7dfR3JYnnJ6kZJXL5n7eflLmBVodp6HqtfvJKSPCtlauq8MWvgVNYXqrHuWghh7kuCkoxNRM11pQuoU75qqbjvszEo3gcVZOzXOSVDKfJUkrr/9XzF6Z5qev3u12aNamOzWEZsZh+2D+Sx0xMv4datl3CCj50OhAQCBoP+8NdO+yRPDEWry6P7O4ReyB95bcy33mNQ/iBI19gCsN7Po6lyfxdmURvVo7RDxl873Xv8tdP22ELoUyS7jnwlNXZ/qbzlegxU185NoR+UP3YkGKQqyK/vj2BANAkYEPoWQXZ7d+xaCMlV/wHioPyB6/cP1+QvlXe3re47IhoJBgQiItI4hkA0IpxCczxwDCEYAwIRUZ/2S0BglxEREWkMCEREpDEgEBGRxoBAREQaAwIREWl8yohoRPjY6XjgY6fBGBCIRoS/ZbT3+FtG7bHLiIiINAYEIiLSGBCIiEhjQCAiIo0BQUn0PTtYHYXEFKb+NON/Lpkspttr9HLMfiVzI0wloCdRI6KhYUBox10otymg64UF5GIl7F6YNTkj0i5ojDKgDONa7nPK3Agy9efCiF7PKMgUmkeO4IhOnEKTxgMDQliBE75s4VIOyJ8bs5nH+p2gphujuFbyHPLI4dJ4TUzXu6PP48rNFRw/voKbdy/ipMmm7rz//vtmqVW7beSPAUGr4pJ0+eipJe2uiToKCzmUzUTxieVl/1rw1gbW4mnMOaWh37lcpOZrT2E5lVHhxLaFjJM/hcxNky18u0z876+gp8hU53XXsJuuqVJX+ea65nzO+WU/m32tpn2spGcW1fkZZJz3xZ3vek+ddc9r0zcQwVw6jsqOszcdcJ9++ilef/11XLt2zeQ0SJ5sk30oPAYEUa5gdt2aVrKWh+maiCC7nkc8nkdN5W8vTpudm9V3Koin5xq1Y99z2VShH80hVrK3V5CySkYUEjLBsT215S5WT1hH6EJSb/JOJ+lzf6oArc7L8e6pMZuvuatuKt4xv4plcx+7tTSK9mvwPb+Hs49KpSWsXbCPbbwvOj/lCSpNPK/NvPDITAzlak0vEz3yyCNYWVnB9evXm4KCLEuebJN9KDwGBOGq4Ufm0oiXq+i52Gl3rvoOKqqQs3uX9Pa1DVWb30QRjXyH1JB14Rxy7mPXuR2eazra5WMNKVOTn1JBo2y/Br/9vdz7RGdNkFHcrajkPJbUVXbumvWw5HyVHVeApYPOGxQYDPrDgDDOVOFacloRPapVUTaLTYLyhbqu1Mx1bV6nIU7G3w2559hMozVGpLiDAoNBfxgQPOqbRZSX5hsFYIfWgu7GKG761lpbzhWZQUzV+u2BUWd7ZA7pgAHTaHYbJaRMP7qPTq0ZqY2Xi9j0Hh6U77nHobDHXY6oZdf96/fDLGue16a752ajZo2owQ4KDAb9YUAQ0jVjukiixTRqq6YIj2SxvGR1nyQu37PyvLwFa9C5tCRWa3lUUmZ7LoaS3m71mdv5ktyDysnVEmK5aGtQCHN/ck15ZDNqzi1dQJ3yXfeok3vgt1eu92VKxkTkqSR1/+vSAjL5C9VYo4vJ/dqsUW1sFsuIzeyT9oE8dnriJdy69RJO8LHTgZBAwGDQH/7a6QDUCwlEq8vYbSr8x5Q8sbQx33qvQfmDIAPjC8B6P4+myv1dmEVtVI/SDgF/7XTv8ddO22MLYQAi2XXkKylM9dPXP0RbrsdAde3cFPpB+WNHgkGqgvz65AYDoknAgDAQEWS3d8e2hZBc9R8gDsofuH7/cE3+UrnlsVsiGjQGBCIi0jiGQDQinEJzPHAMIRgDAhFRn/ZLQGCXERERaQwIRESkMSAQEZHGgEBERBoDAhERaXzKiGhEbt26ZZZoLx0/ftwsDc5+ecqIAYFoRCQgRCL8c+u9VK/XGRDaYJcREU0UqZj2kqgzBgQimji///u/31WicBgQiIhIY0Agon3hb/7mb8wS9YoBYWzUUUhMje2cCl2R+QumEgia9ZNo0OxgwKDQHwaEIDLLlz11pHt5SOqFBeRipdHNqTDM1yfzF8j0nAvDfc/Iawdvff/7+L6TXkX5gTf/LbVmC8r36vb4sOcdDG8QYFDoHQNCGP1O8NLRFi7lgPy5PZpgZxivL3kOeQx5sn7yMYuzL76IF3X674gfVsXzW1egMnXenz9zD1fesorooHyvbo8Pe95B+bu/+7uWRL1hQFBkTmRnKkldU66jsJBD2UwMn1hetmrQuiadQUa6dlR+Zst08+hl52RI2Oeyu01MDbygp6zMqOLfY2sDa/E05kyJ3Ho/YgsZ57zW9Zr2871WY99mo3h9Ecyl46jssI2wt3bwQXUWT5k/3Tl87IuYvncfDwLzvbo9PiD/QRmvvvoW3nrVajm8tfMAZWfZ2vdB+VXTqlDp1bLPvdCwMSAoC7kYSmYqyVKsippMibmeRzyeR03lbS9Omz2VcgWz62rf0hLWUjJzvFm+IAW3KrSjVSzb01LW0ija3Saq8K3OS37rVJX1nQri6Tmrhq4K19b7kYJZJj0251VJepYi2W1nXXfR2NVx51qSb9+b22heX2QmhnK1ZtZoNKq4YgrVV63+omaHH/cv+IPyvbo93p1/7x4en1cth7OzqF7ZAOzl/6EKfxUwNt6eVg0Lq2Vxdrr9vfz2t7/tKlE4DAhKDGtImZptcrXD3MJ2TT46qwpU17Jsq++gos9latBRqYVLga6owjdUj1BkpvV+6psowud4d209tQZVHbcKZ/e17HsLa5CvT46z74lGYAbPmQL1xRfPYvrtDTOGMCamv4hjh9W/EiTcy7JN/yvBzBpzmHnuOfVqgvn9rUG7ROEwICirusY7jw1d0Pl06XTD1LqdmnvXk9cnw92PBINoEemauU5N1fjNpqHq5vXVqijHZgY7NkEhHcbjroaf48F93Jt+XG31CMr36vb4sOd1gtlT+EC3cMIPRssgsjdRbxgQlIzuCJeCuIZ8vAKn29uu/YYltfty9wOpumuluGnVpFVB33I/mEPab4DWPe6wWUTZWgxvyK9Pd4XNRs0aDd3OW05/PB7cxr/fm8bjh2fw1GwVH9j99Lf/3RTQQfl6TffvW11O3R7f7rxtPCjjLXO95178czwzfQ/3Q7ZuvIPIHFTuHQOCyEWtLpCpKIrpdWSlkI1ksbxkdY8kLt+z9utIFeKqpl5JmS4VSc6gcBvJeSyVi9iUHVWh23o/Vp+/+7yZmrq/mDUoLOsL1Vh3LYShv746NotlxGbYPhiZw4/j3hUzKPujtzF91up2mXnuLGDyfyT99M9ZnTFB+RIQ7qtg8kXdp9P98cHnbUPdO97+kT7m+9//Ef79i/P6Camw7CDAYNAf/trpmJAnhqLV5dH9HcKwyR+nXZhFbaiP606Wifm1U9XS+P4HT+HFMAX5HpByqNtxARlYll/+5K+dtscWwpiIZNeRr6T2z18qpyrIrzMYTKIH9+9h1n5ulA4UBoSxEUF2e3d/tBDkL5V3t62uN5o4h+P/HWPaOHB4HyvtlCgcBgQimijSDdJLos44hkA0IpxCczxwDCEYAwIRUZ/2S0BglxEREWkMCEREpDEgEBGRxoBAREQaAwIREWl8yohoRPjY6XjgY6fBGBCIRmRifstoH+NvGbXHLiMimihSMe0lUWcMCEQ0cbwzonVKFA4DAhERaQwIRLQvcOrM/jEgKIkws5qNRB2FxBSm/jTjf08yj3K399rLMYMkcyNMJaBnBSUaEjsYMCj0hwGhHXdhOoKCtV5YQC5Wwu6FWZMzIsN8nTI3QimG3MIeBiUydvDWq2U0pipW63rKSkntJrUP2q/b/OHwBgEGhd4xIIQVyWJ7qNNBbuFSDsif2+MJcobxOpPnkEf4yflp8B6UX1WF8xVUzbrYeesKcPZFvPjii/jzZ+7hijNDf7Og/brNHxaZR9mbqDcMCFoVl6SrRk8cb3dv1FFYyKFctiayTywvWzVnXYPOIGP2z2yZbh69rE9m1bL1uVznMzXvQkbyMqr499jawFo8jTmnJPa7J5ema7jPt4WMk6/u6abJFr7dN6N4nRHMpeOo7HhfBI2KzIL24p8/g2mzLrX4D6qzsGfKPHzsi5i+d9/VerAF7ddl/oMyXn31LdVCsVoOb+08QNlZtva1gpZpWTS1ZGhUGBBEuYLZ9V3s7u6ilofp3oggu55HPJ5HTeVvLza+Ss7+pSWspRYAe/mCHKcK5GgVy+oYOd9uLY2i3V2iCt3qvOSvwtsOqO9UEE/PNWrmvvdkk2vkECvZ2ytI6VJaCu0UYPIlrZ6wjtAFtd7kndpyNK8zMhNDuVozazR2Dj8eEBA8gvYLk3/vHh6fVy2Hs7OoXtkA7OX/oQp/FTA23p5WDQurZXF2uv29+E2T2S5ROAwIwlUzj8ylES9X0bbosvePzqqC1LUs2+o7qGANKbvmrArusn0+VeiG7hFqd09yDde59Pa1DWzVN1GEzzWk9q8L79ZA1NYgX6ccV9lxBTU6cKa/iGOH1b8SJNzLsk3/W8UVM+Yw89xzaPd7BH5/a9AuUTgMCMNgatt2Ld2vRTBS6n5KTitigLp5nbUqyrGZwY5N0OA8uI97049Dyui2gvbrNr/FDJ7TrYOn8EGXg9EyiOxN1BsGBI/6ZhHlpflGwdapteAVmUFM1ci7HUDVXSrFTd8adMs9ea7hbI/MIR0weBvNbqOEFBItgxHGkF+n7hKbjZo12nszeGq2ig/s/vvb/+4quK3+/VfL0mkTtF+3+R08KOMtc73nXvxzPDN9D/fb9Rm5eAeROajcOwYEIV0qpusjWkyjtmqK3kgWy0tWt0ji8j0rr6MkVmt5VFKmK0VSmMc4k/NYKhexae8YdE9a8zWiuRhKers1HuC+tntQOblaQiwXbQ0KQ3+ddWwWy4jNsH2wV/SA7Y/exr17b+NHZiB35rmzwBVrEPdH0n//nN1J8wD3703ji7pPJ3i/bvPbOvw48PaP9DHf//6P8O9fnEe8c7PCYQcBBoP+8NdOx0i9kEC0uozdpsJ/H5Cnmy7MojbUx3bH38T82unOW/j+B0/hxTAF+R6QcqjbcQEZWJZf/uSvnbbHFsIYiWTXka+kMDXovv69JMEgVUF+/WAHg0ny4P49zNrPjdKBwoAwViLIbu/urxaC/KVyy6OuNM7kbxbGtHHg8D5W2ilROAwIRDRRpBukl0SdcQyBaEQ4heZ44BhCMAYEIqI+7ZeAwC4jIiLSGBCIiEhjQCAiIo0BgYiINAYEIiLS+JQR0Yh897vfNUu0l773ve+ZpcHZL08ZMSAQjYgEhGEURgfJJ598YpZ684Mf/IABoQ12GRHRRPnpT3/aU6LOGBCIaOKcOnWqq0ThMCAQ0cRpzNIXLlE4DAhENHH8Cv3HHnvMN18ShcOAEEa9gESYWc/aqqOQmNqbuQ463f9AXl8HMi+CPYvbpE/3oF9LAkGzkdLw/e53v2tKhw9b06vJv95tkigcBoRB6VCo1gsLyMVK+282tFC2kJFJcmpWbW01OoAA1O79HnaAkzkeSjHkFoYcRCeG+v+1p1Gdyqg1W1B+/9y1/+npaZNrkXX3dkkUDgPCSGzhUg7InzuIwUCp76CCGEY2pXIki+1hT9eZPIc8cri0jya369VWJgWUrIK3lq8gZZqAQfmD8Pnnnzvpo48+aknu7ZIoHAYEReYytrsznInipZZp50VzKOs9Pfs63QZ1FBbUPmZi/JZJ7Lc2sBZPY86UUL7Xa6pNWd0qvtcytd9CpnnfFgH335Tv0+0R+PoS7uvIvYY9Vu2rr29N4j+VWMay973yu6em1+mtXXre7+Xl5n3Nsdatu8+tUlf57e4lgrl0HJUdfdQBtoWNtSXMm7pOZC6NeGVHvZcB+U3vpZXsz5X/98Kfu/YfJlE4DAjKQi6mKjLWB6cUq6JmCrGYqd3s1vKIm30j2e3GB026DXQVMYLsutonnkdN5W975ous71QQT89ZNVb1hWi9nhS4jdqUJOlZ8r+WogrC6rydv4S1C94vT9D9S34Vy/Y5a2kUPd0ega9vWV1nw1xfAtzScsu0mP7HJrEq1zfvze72BVxoeq9qwffkvM5VdRY3z/u9OB2wb7v3ocv3x+f8kZkYytWaWSMtMoNYWT7THu58v8+v7/ci2K9+9auuEoXDgKDEdO3VqvklV9UXXro4VGHj28PjrkGm1qCqiJ7CuAP5YrRcbxNF+Fwv6Frue4vOOsHKEXT/uuvG1NQlSc3d++UNumZyHktrG/qetzbWsGRX/dx6eW/a3VPQ/4GfoNfbbX439yLvfbf//+T/+fX7Xkh+gGeffbarROEwICirulYyjw1dENhdAj6kwIsWkTaDo+6WQ3iqxhzmegO5lg/1ZdQ1dSe5vnhtr5nE/NIaNraauwIc/dxvu3vqR63a6CpzC8oX3dyLnCc2Y7X8yKKD7SyiZtURlO8I+b0w3E8QHTp0qCW5t0uicBgQlIzuKJYPZA35eAU7kOZtEZum6lffLDYKEPdYgDtf+DWVFd21UNy0apKq4Gy93hzSfgOU7a7Vjm6e+9y/zu8wENrmmslzeVRSKVTy5/wLyW7u136vwtxTkID32yGtGtf74AjK7/JedFfgbHARdzDYFQVrTf+/6yAZlB/A73vh/f9xaQTsXTx48MDkWmTdvV0ShcOAIHJRq4tgKopieh3ZiPpQSh94VPKmsFCNmWZtFssxayCzKV/INvUFkO6GlkFldwGkCp3W61l94pWUdV5JmVqba3UUcP+Sr2ru7us0Dd61e30iogJXPI60Xeq7dTrWrem9ira/pyDuc1y+ZzK9mt+HxuB6m/zQ91LHZrGM2MgenRpfydUS1H+Efr+iMg5gHq0Oyvfl+70w23x4C/z79+/rfPnXu00ShcNfOx0ReYIiWl2e7L9DkD/IujCL2rAf6RwWuf+N+db/g6D8dnp4L/hrp/2TXzuVH6p75plnTE44b7/9th5L4K+dtscWwohEsuvIV1J785fKA6IHk5cnKxhsuR5vnJIHuUyhH5QfigQD+UO79QkNjPvAZ5991lWicNhCIBoRthD6Z7cQesEWQmcMCEQjwoDQP06Qw4DQhAGBJhWn0BwPDAjBGBCIiPq0XwICB5WJiEhjQCAiIo0BgYiINAYEIiLSGBCIiEjjU0ZEI8LHTscDHzsNxoBANCL8w7T+8Q/T+NgpEZFDfrqil0SdMSAQ0cQ5depUV4nCYUAgoonjN+dBu0ThMCAQ0cTxK/Qfe+wx33xJFA4DgpIIM0OXzBkcZr+26igkpjD1pxn/c/VyjW6P6bT/QF5nBzKfgJmLYIKnh7Do15KAd5I8Gi7vnMmHDx/W+fKvd5skCocBYZA6FKb1wgJysRJ2L8yanINoCxmZXMZMxr8aHUAAave+DzvAJVexK9NxLgw5iI419X9qTzbUNDl+UH7/3LX/6elpk2uRdfd2SRQOA8LIbOFSDsifm+ApNAehvoMKYhjZVMSRLLaHPeVn8hzyCD85/36zlZEp56yCt5avIGWafUH5g/D555876aOPPmpJ7u2SKBwGBK2KS9KVo2syrua/1C7tGo4zEbtkJ8y+7v3rKCyofcrWRPMtE+1vbWAtnkZjfvqAa9rc1w6sdU0hc9Nki6Dui4DX0XyN1uMCX6e678Z3W+4n7LFqX319a3L8qcQylr3vmd89SZ6q5Rf0tJfemqbnfV9ebt7XHGvduvvcKnWV3+5eIphLx1HZ0UcdMFvYWFvCvKnnRObSiFd21PsXkN/0/lnJ/iw1fWbs/4MA7tp/mEThMCCIcgWz69YHp5aHaf5bhVfM1HB21Ya42T2S3W582KS7QFcNI8iuq33iedRU/na2uU5a36kgnp5r1FR9r2lrvnajdiWFcaPWJWn1hHWELqj0pm00XzrodUh+FcvmPLu1NIqebo/A17m8hLUN8y2WQLe07Llm0LFJrMr1zXu0u30BF5res1rwPakCvzov+avqLG6e931xOmDfdu9Dl++Pz/kjMzGUqzWzdoBFZhArV9HyTrjznfdPpZL6LF1Q76v6/C7kYurza+WXYj7ncPnVr37VVaJwGBCEq+auazLywZWuDVXI+PbwuGuOqTWoqmFTQRqK3zWtVYkeTdfW29c2VG13E0X43JPUjnXh5S0slaDXobtuTE1dkioUy94vctDrTM5jSe5HLeqJ9+1qoFsv71G7ewr6v/AT9Hq7ze/mXqKzpmZMHbnfP3nf5F8JGPr9tlpdyVWfz7KLzI/cTaJwGBC6JQVdtIi0GRR1txz2jPqClXrpo1XH6Zq6k1xfwravM4n5pTVsbDV3Czj6eY/a3VM/atVGV5lbUL7o5l7kPLGZRgvwoNIBdhZRs+oIyneo1qN+j+exoYOwt2uwmfsJokOHDrUk93ZJFA4Dgkd9s4jy0jySuolbxKap8ul8a1EVFI3afVO+8NayDd2lUNz0rUE61zTrVvO6MUjZuKc5pAMGL6PZbZSQah27CHodnmv4avM6k+fyqKRSqOTP+ReS7d4jL/s9C3NPQQLed4e0alzvgyMov8t70V2Cs8HF3f5lVw6sNf1/rQNjUH4AVYnI6M+uBIYa8vEK2g3JNIL0Lh48eGByLbLu3i6JwmFAENLlYroGosU0aqtSxKkPpvR9R638hWrMNG2zWI419nfyhWxTXwLpZmgpmL0Fj+81bVZfeyVltkvfqt5u9Zfb+ZLcg8rJ1RJiuajn2gGvw3MNndwDee1ep5DgFI8jbZf6bp2OdWt6z6Lt7ymI+xyX75lMr+b3oTG43iY/9L3UsVksIzayR6fGi3zu1Juv36PGZzU435cKwOo/wbzXURTT6y3jUm7eAv/+/fs6X/71bpNE4fDXTkdInqKIVpex2+6LMSnkiaYLs6gN+5HOYZH735hv/b8Iym8n5HvBXzvtn/zaqfxQ3TPPPGNywnn77bf1WAJ/7bQ9thBGKJJdR76SwtQAn8feK3oweXmygsGW61HHKXkiyxT6QfmhSDCQP7Rbn9DAOKE+++yzrhKFwxYC0YiwhdA/u4XQC7YQOmNAIBoRBoT+cYIcBoQmDAg0qTiF5nhgQAjGgEBE1Kf9EhA4qExERBoDAhERaQwIRESkMSAQEZHGgEBERBqfMiIakStXrpgl2ktnz541S4OzX54yYkAgGhEJCE8//bRZo73w7rvvMiC0wS4jIiLSGBCIiEhjQCAiIo0BgYiINAaEsGSe4DCzd/WljkJial/Ml9C3Qb/fMm/BVALeieyIqIEBYYzUCwvIxUqjm1GtXaE7kgA4QslV7MpUmQv76DURDRgDwtjYwqUckD83omDQSSSL7UmdHjNI8hzy6HESfxpL77//vllq1W4b+WNAUGSuY2cKRVMr9stzSO3Z3jaVUUW5yUtkkJEuH7PN6flp2j+g22JrA2vxNOw56/2vv4WMcx7r/E372ec2tfuCa2rI1l6oOgoLOZTNZP+J5WXXMeo1uVsITfevUlf5fvdk3jOX0bzfEcyl46jsNJ19b9x5DWfPnsf5s0dw5IiVzt9wbTN5R46cRyP7rLPvkbOv4Y7JP6g+/fRTvP7667h27ZrJaZA82Sb7UHgMCMpCLobS7i52VSrFqqipAqUlz+yrC+VoDrGSta2WryBll0TlCmbXrfzd0hLWUlJ4yf5VLJtz7dbSKPp0W9R3Koin56waue/1ZXxBJvw151FJepYi2W1nXXeJ2NVfVdBX5+18dS8XvNeMILueRzyeR03ts7047TpmFY12SvPr3a2pYzrmB7xe3/MrI3y/IzMxlKuNs++pW7cRffku7t5V6fK38MaiFP43cP7ESzh22cq/uXIbixIpVJB44aVjuCz7qnT5WA2/Mac5qB555BGsrKzg+vXrTUFBliVPtsk+FB4DghLDGlKm5plcVYVVZKY1T++p1HdQUYWo3bMTmUsjvrah91MlulPDR3IeS6hg52dqf30uU2NVhVu57C7wfPhdv76JIhrXdbhrw6k1qOqvVfi57hHRWVNYd+A+xuZ5vY52+UGv129/Mcr3W94L+z3aa8fP4GtHzfLJ0/gWbuM3v/wNbh9fQeaklX30a2dw/I1ruHH0SRzDG1g0LYaTFy/C7HKgeYMCg0F/GBCUVV2bnMeGLkSkUEr65PVBFWhSC9c1Vp08NeQWIa8vwSBaRLpmzuvU0geoVkXZLDYJyhfDer1htbu+3HdsZgLHRk7iom4dnMY1T1fSQecOCgwG/WFAUDK6k1kKpRrycallFlrz7updrdpsuTEwWd8sorw031rg2WMCp5r3D6K7MoqbVs1VFfQt18cc0n4Dou5xB7kXazG8Tq0VqXmXi9j0VqmD8j3vTyh+r3dI77fumpuNmrUxcuMa3pAWw1dUS+DWS1g1pf2dn1/FrW+dxsk7r+H8azJqIIHhJlaOq9bEQR9EcLGDAoNBfxgQRC5qdS9MRVFMryOrCpWWvCNmXym0VE28kpJtU4hK37f9mKgqiGSAVh8n3f36KZ3m/XXyDpoKdwGrCsGW60esPn/3eTK1LJZjjWsuVGPdtRAi6vglq3slcfmeyfRS9y9jE1FzXemC6ZQf5vW6+b3eobzfdWwWy4jNjEn7QBX8J+xB4kXg8pXncVQK/JsruL1o5Z+QcYOLJ4GjTwIvnTCDyidw9czLeN7ubiJNAgGDQX/4a6eDIt03C8B6H49qypM20ery6P4OoRfyB14b8633GJQ/LL2833KPF2ZR26PHaZt+7VSeJHoBeFkHARoV/tppe2whjJFIdh35Smrs/lJ5y/X4qq6Jm0I/KH8sSTBIVZBf35tgQDQJ2EIgGhHOh7D32EJojy0EIiLS2EIgGhFOoTke2EIIxoBARNSn/RIQ2GVEREQaAwIREWkMCEREpDEgEBGRxoBAREQanzIiGhE+djoe+NhpMAYEohHhXyrvPf6lcnvsMiIiIo0BgYiINAYEIiLSGBCIiEhjQFASnWb0ssmkLGH37VkdhcQUpv4043+tXu5hJPc9RIO+f5kbYSoBPWsnETkYEMZMvbCAXKyE3QuzJmdE2hW6kx5QvJKr2JXpPxf20WsiGgAGhLGyhUs5IH9uzGYei2SxvUfTTg5N8hzyCJ6MnybD+++/b5ZatdtG/hgQtCouSTeNng6y0ZUgcxw7U0R6a8hSa7a3TWVUUW7yEhlknHNNwZkNs2n/gO6KrQ2sxdOYc0pe//ty+N2DtoWMk6/u4abJFr7dJXUUFnIom0nrE8vLukVQ0FNkqvO6WwhN11Spq3xzXXM+5/yyn8to3vcI5tJxVHaazj46Mqfy2fM4f9ZMsq/S+RuubSbvyJHzaGSfdfY9cvY13DH5B9Wnn36K119/HdeuXTM5DZIn22QfCo8BQZQrmF3fxe7uLmp5WF0JqiBZyMVQUnmSX4pVUTO76wI3mkOsZB9TQcougVzn2i0tYS0lhZbsX8WyOdduLY2iT3dFfaeCeHquURP3uy+zKfgeZAxCJjg211Jp9YR1hC4c9aZtZJuq+xFk1/OIx/Ooqf23F6fVtXOozsvxq2i0V5qvuatuKt4xP+B1+55fGeH7HpmJoVxtnH3kbt1G9OW7uHtXpcvfwhuLUvjfwPkTL+HYZSv/5sptLEqkUEHihZeO4bLsq9LlYzX8xpzmoHrkkUewsrKC69evNwUFWZY82Sb7UHgMCMJVK4/MpREvq0IoMoMY1pAytdDkqqvgqu+gogpPu2dHH7O2ofdznwvJeSyhgp2fqf31uUxNVRVqZbmG2S2Q331Zq8H3UN9EEY18h9T+deHoKYCDuM7t8FzT0S4/6HX77S9G+b5HZxGv7LQE5pE5fgZfO2qWT57Gt3Abv/nlb3D7+AoyJ63so187g+NvXMONo0/iGN7AomkxnLx4EWaXA80bFBgM+sOAECiJVV2znMeGLlBM90SvVEEmtW9dU9UpZME8KOr6JXeNuhe1KspmsUlQvuj6dY/wfZf7js1MyNjISVzUrYPTuObpSjro3EGBwaA/DAge9c0iykvzSNYLyOgOZymgasjHVY3zrrWPrsWqGrc9IOkcY6022GMCp5r3D6K7MIqbvjXWlmsE3UNkDumAwdJodhslpJBoGYwwOrVapOZdLmLTe3hQvuceQxnh+6676GajZm2P3biGN6TF8BXVErj1ElZNaX/n51dx61uncfLOazj/mowaSGC4iZXjqjVx0AcRXOygwGDQHwYEoQoNGUyVboVoMY3aqipiVOGDXNTqapiKopheR/aI2V8Kq1oelZQ5Rvq85RjhOteU9Nfrp3Oa99fJO1gqvAWr3305gu7BGg9wX8s9qJxcLSGmXldLUIhksbxkda8kLt8zmV7qmvK4ZtScW7pgOuWHed1uI3vf69gslhGb2cP2gSr4T9iDxIvA5SvP46gU+DdXcHvRyj8h4wYXTwJHnwReOmEGlU/g6pmX8bzd3USaBAIGg/7w104HSQZtF4D1Ph7RlCdsotVl7DYV/mNKnljamG+916D8YenlfZd7vDCL2ggfp236tVN5kugF4GUdBGhU+Gun7bGFMGYi2XXkKylM9dPXP0Rb+lFRk6Qmbgr9oPyxJMEgVUF+fXTBgGgSsIVANCKcD2HvsYXQHlsIRESksYVANCKcQnM8sIUQjAGBiKhP+yUgsMuIiIg0BgQiItIYEIiISGNAICIijQGBiIg0PmVENCLf/e53zRLtpe9973tmaXD2y1NGDAhEIyIBYRiF0UHyySefmKXe/OAHP2BAaINdRkQ0UX7605/2lKgzBgQimjinTp3qKlE4DAhENHEaM+CFSxQOAwIRTRy/Qv+xxx7zzZdE4TAgdEMmYuk045dbp/27PR8Rab/73e+a0uHDh3W+/OvdJonCYUAgoj5tIWNPjjSVUWu2oPz+uWv/09PTJtci6+7tkigcBgQi6stWRqbIswreWr6ClJntLyh/ED7//HMnffTRRy3JvV0ShcOAoEgtxpl0XrpxphKwVt01nObJ6vU0jM5+Lvp4c4wz2bzizvc5TuZStq/T2F5HIaGu63yP5H58rkm0Z7awsbaEeTNjamQujXhlR31yA/JNN2nBNeWq/flu+g506Ep11/7DJAqHAUFZreWB3CX1EVYF8EIR6do2shEpjBs1HEmrJ8wB8qHWm2Q/k6epAlsFgZh9jDpv3MmvYtmcZ7eWRnGh+QMfyW4719ktxdTtyLckguzyEtY2zDdmawNrS8ueaxKNkcgMYuUqambV4c4v51Cdtz/r6vN9QX0X1HdqIRdT3ykrvxTzOYfLr371q64ShcOAICJZrEuTdiqKYnrdKnDrmygij3PeueLVhzmqC/dVtEwjX99BJe5zjORjTZ3f1H6k5eD90rhbEKk1QNeylOQ8ltY2VEiReLCGJbvKRTSp3N+R6KxVaZKAob8j1lhDctXn++Xy7LPPdpUoHAYEIzITM0sdqA9zqZf+UHVczW4B6OT6wEswiErLxGxzWhYiifmlNWxsNTfBicaSrhTNImpWHUH5jiRW9fdiHhu6YtR+ENr9BNGhQ4daknu7JAqHAUHbgjX+VUIst2D10UfmkEYOuufGI5rdRgmpxriDTTeLi9g02fXNojWGoPP9z+WIpzFnuoKc44zkuTwqqRQq+XNta01Eo2dXWKw1/dmNzSASmB9AVYoy+vskgaGGfLyCHc/Xy61RsdrFgwcPTK5F1t3bJVE4DAhKZkqigdTY1YdR+u+jUjuJILsuBbHpxlHJPaicXJXgEfUEBft4a/+FaszU9FW+qvW7z9U0aBbJYjmWQ9RsaxxnSHCKx5G2IwbRGJHvAsxnOyrjAKtWtSUo35eqNKkvjvl+uLpuA3gL/Pv37+t8+de7TRKFw187nQTyRNOFWdS2s8E1LBp7/LXT/smvncoP1T3zzDMmJ5y3335bjyXw107bYwthAujB5GUGAyLbZ5991lWicBgQJkBydRftWttEB43fo6XtEoXDLiOiEWGXUf84Qc5wu4wYEIhGhFNojgcGhGAMCEREfdovAYFjCEREpDEgEBGRxoBAREQaAwIREWkMCEREpPEpI6IR4WOn44GPnQZjQCAaEf5hWv/4h2l87JSIyCE/btdLos4YEIho4pw6daqrROEwIBDRxPGb86BdonAYEIho4vgV+o899phvviQKhwGBiCaOd87kw4cP63z517tNEoXDgEBEfdpCxkz/2jw5flB+/9y1/+npaZNrkXX3dkkUDgMCEfVlKyNzklsFby1fQSpjFf1B+YPw+eefO+mjjz5qSe7tkigcBgSlXkiYWoxK9uT39QISTu0mgcZc+u5azxQG+BknmkBb2FhbwryZ0S8yl0a8sqO+QwH58r1S37FCpvU75Ps9DOCu/YdJFA4DgrKQi6mKjPXBKcWqqEmhH61i2f5A1dIoLsgHtI5ColHrkcSpLYlcIjOIleU75OHOL+dQnTffodIS1i6o75YKFK3fw2B+02S2SxQOA4ISwxpSpo8zubqKZH0HFZ1naivRHMryYa5voog8zjEIEPUu7voORWcRl38lYHi/h5If4Nlnn+0qUTgMCMqqrpXMY0MHADP4pT60NVNbsVL7DygRKVKZis8ialYdQfmOpP/3MID7CaJDhw61JPd2SRQOA4KS0QME8oGsIR+vYAfSvM3hkvcTGZlDGj75RAdWEvNLa9gw34n6ZhHl2AwigfkB6oXW72GbQYRGRW0XDx48MLkWWXdvl0ThMCCIXNQMZkVRTK8jG1EfyloelZTpMpKkB7kiyK4353NQmQ665GoJMN+JqIwDmIG1oHxfkRmf76HZ5sNb4N+/f1/ny7/ebZIoHAYExWqqWmnb/hRGsth25e9uZ63ajSefg8pEdnePJHfXqk++fH/s75Jw1t37ur6HAbxdQpJ++9vf+uZLonAYEIho4nz22WddJQqHAYGIJo7fo6XtEoXDCXKIRoQT5PSPE+RwxrQmDAg0qTiF5nhgQAjGgEBE1Kf9EhA4hkBERBoDAhERaQwIRESkMSAQEZHGgEBERBqfMiIaET52Oh742GkwBgSiEeEfpvWPf5jGx06JiBw//elPe0rUGQMCEU2cU6dOdZUoHAYEIpo49s9kh00UDgMCEU0cv0L/scce882XROEwICgJPRsaEU0K7wQ4hw8f1vnyr3ebJAqHAYGI+rSFjJlStnly/KD8/rlr/9PT0ybXIuvu7ZIoHAYEIurLViYFlKyCt5avIGUmGg/KH4TPP//cSR999FFLcm+XROEwIGhVXErYNZkECnb/Ub2AhFPDceU31Xw40T4dZFvYWFvCvJlIOTKXRryyg3pQvnynEgUUMq3fn3oh4eRNdejGddf+wyQKhwFBlCuYXbc+OLU8kFuQD6Mq9KNVLNsfqloaRZ1fRyHRqPlI4kT7REZkBrFyFTWz6nDnl3OozpvvT2kJaxfU90oFioVcTH2trPxSzOccLn7TZLZLFA4DgoinMRexFnVNRj649R1UsIaUXWOJ5lDW+ZsoIo9zDAJEvYm7vj/RWcTlXwkY+vtmjTUkV1fR7iv27LPPdpUoHAaEdtQHt2ZqLFZq/yElOvCkIhWfRdSsOoLyHUms6u/YPDZ0Jaz9ILT7CaJDhw61JPd2SRQOA4JHfbOI8tI8krqJm8Ml76cyMoc0fPKJDqQk5pfWsGGPA8j3JzaDSGB+gHoBGT1IJ4Ghhny8gp02gwiNStouHjx4YHItsu7eLonCYUAQquCPmq6haDGNmh4UUB/MWh6VlOkykqQHuiLIrjfnc1CZDrLkagkw34eojAOYQbWgfF+qAoZc1Hynoiim15ENjB6tg8r379/X+fKvd5skCocBQdl2f3i2s41aTCTrv82Tz0FlOtjs7h5J7m5Vn3z57ni/Y3rdve8utttFA8XbJSTpt7/9rW++JAqHAYGIJs5nn33WVaJwGBCIaOL4PVraLlE4nCCHaEQ4QU7/OEEOZ0xrwoBAk4pTaI4HBoRgDAhERH3aLwGBYwhERKQxIBARkcaAQEREGgMCERFpDAhERKTxKSOiEbly5YpZor109uxZszQ4++UpIwYEohGRgPD000+bNdoL7777LgNCG+wyIiIijQGBiIg0BgQiItIYEIiISGNA2I/qBST07G7UE75/dEAxIIh2BQALh8k2rv9/N87jyJHzuGFWVQbOu9f19iONdF5tufMazp59DXfMLvY+soloEBgQOvFO+Uc0CCcv4vK33sA/vWYV73de+yfg8kWc1MtncWRRrd69i7smXcY1V/BQJDgs3sbKzbu4KAcdUO+//75ZatVuG/ljQFAKCzmUzUT7ieVlXaMsZGSy7wy23DVMWdaTgJvUVX4CBck053POL/vZ9LYMMgnrmMxWHQVn2bWPc07X8e78qHo9Jtv3HlpsIePsY12rXkg468333s39Bb9m3/O3aL2v5vOb1990fte+6n+h7f+tfaz3fCNy8uJlHHvpBbx24zW8cPUMMrpgv4OfX4Uq6K3gYDt50bUuweDEVZy5eQXPHzV5B9Cnn36K119/HdeuXTM5DZIn22QfCo8BQcmu5xGP51GTyb0XpwFVgFTnvROGq8JJFbSxkpkIvKaO6ZhfxbKZNHy3lkZxwQQK3/Mb5Qpm19W20hLWUguAvXxBjm2+Vi1fQUqXfD3cg0MK9RRgH6vSqrqpSHbbWd8txZC7ZIrKjvcX7jUHnt/hd19Br19xzi/ns+8n0uH/ts35RuIkMivAS4uqcH/5eeiy/c7PcfXWMTwZWNBfxQsMBtojjzyClZUVXL9+vSkoyLLkyTbZh8JjQPCjCpBz3pK6voNKt/lYQ8qufaqCp1yuoibb/Pa3xdOYk/6p6KwqyFzLss1zrchcGvG1DdWK6eEebPVNFOF3rKvmnFoDKjtWwd7p/sK+5qDz2/zuK+j1y4r7/Pb9+HHv1+58I3L0yWNmyeV4FE+axRa3gDMrx/DSC66xhAPMGxQYDPrDgBBWrdrohnELyheqsJGaqV3D9W0RDFsv9yCFdbSIdM0c47Q4QghzvX7Ov6/cwHkZK7jsKuCPPoljt67i50Gl/fEz+NrzF3HzzFWc4Giy5g4KDAb9YUCweWvOXsl5LJWL2GzubwnOj8wgVs6hpSekH55z1jeLKC/NI6nzG/eg82UhzD1E5pCGzz527V9xztdJN6+50/n97ivo9VurwYL+b3s934A4A8knM1jBS1jV5bvpRjrhfgJJHihqXj/6/MtYub2Is2ZQ+qCzgwKDQX8YEEQki+Ulq6sjcfmeyfRKYlX6uqOu7pBO+armW0mZfEn2YHPPms8ZzcVQkg5/zz0sVGOmxh3mHqx+dvc+mZp6P2LWQGzz+ToJ+Zrl/e54fp/72gp6/W20/b/t4XyDcuM8TjgDyUfx/MsruL1oFfpHn7+Cmyu3seh67HQRp5sGmfUxV2RQ+gSDgiGBgMGgP/y1015tZTC1MY9dbwESlE8HHn/tdO/x107bYwuhC1uuxxqn5AEYU+gH5RMRTRIGhC4kV/0HS4PyiYgmCQMCERFpHEMgGhFOoTkeOIYQjAGBiKhP+yUgsMuIiIg0BgQiItIYEIiISGNAICIijQGBiIg0BgQiItIYEIiISGNAICIijQGBiIg0BgQiItIYEIiISGNAICIijQGBiIg0BgQiItIYEIiISGNAICIijQGBiIg0BgQiItIYEIiISGNAICIijQGBiIg0BgQiItIYEIiISGNAICIijQGBiIg0BgQiItIYEIiISGNAICIijQGBiIg0BgQiItIYEIiISGNAICIijQGBiIg0BgQiItIYEIiISGNAICIijQGBiIg0BgQiItIYEIiISGNAICIijQGBiIg0BgQiItKmHj58uGuWO/r4448xMzNj1trb2dkJvW835LxEROPmiSee0P8++uij+t9BknKv2/O7jwlr4gLCJ598YpaIiMYPA4KPYQUEIqKDZlQBgWMIRESkMSAQEZHGgEBERBoDAhERaQwIRESkMSAQEZHGgEBERBoDAhERaQwIRESkMSAQEZHGgEBERBoDAhERaQwIRESkMSAQEZHGgEBERBoDAhERaQwIRESkMSAQEZHGgEBERBoDAhERaQwIRESkTT18+HDXLHf08ccfY2Zmxqy1JzP+ExHRYDzxxBP630cffVT/24mUwfYxYQ0tIHzyySdmiYiIBmUiAwIREe2dXgICxxCIiEhjQCAiIo0BgYiINAYEIiLSGBCIiEhjQCAiIo0BgYiINAYEIiLSGBCIiEhjQCAiIq3rn64gIqLJMNTfMiIiov2LXUZERKQxIBARkcaAQEREGgMCERFpDAhERKQxIBARkcaAQEREWtd/h/Czn/3MLFGQU6dOmaVWfP86a/f+7SeHvv//mCUK8vDF/9Ms+eP3qbNuvk89BYSnn37arJHXu+++2zEg8P0L1un9208YEDoLExD4fQrW7feJAWHAGBD6cxADwt3v/B/6X2o48sr/p/9lQOhPt98njiEQEZHGgEBERBoDAhERaZMZEG6cx5EjR3Q6f8PkhXHnNZw9+xrumNWJMU73PanvIdG4GqPv1N4FBHkTTKHeXeF+A+cXb2Pl5l3cvXsXF0+a7G6xYKMD6s5rZ5u+d2dfM98C73fCVLy6qnTtB64Kp04H6A3Y2xbC8RXcVIW6FOx3b67g9mKID9+d3+A2juHJo2adxtr7779vllq120bDIcHgxNUzje/d3cs49tKJRlCwSXAwFa+eK10TSAfLReCy8/7cxWVcU9XQg2F8uoyOPo8rEhT+ydRQmloQZ2F9XlXr4MRLuIU3sCj5qjbzy6bajtnPW9NpaQ3cwWsvqPPcegkn1HEtX4YRaq6t2a9Tb2i8fv2a7bzzrg+nej/Muu95zOt+7byd7w64cqwn333NTvcSwqefforXX38d165dMzkNkifbZB8alRtYfQlYefl5NOpTJ3FRfe9w9efN35cTV3Hm5hU8f6AqXnfw86vq/bl5Ub0rDScvWutD/Y6NifEaQzj6JI7dquE38kaeqOEv7Ch98wyuviAFuvXhPW63LK48j688f8WJ5HcvH8NLq87/RhtH8fzLjfNc2cNP/VHf+7cC37HLJl9es7Uz/uJbb+Ca/RJvXMMb3zqtP6z+51FU0KudtvO/hTd0wFUB8ayuBjnHXDwZ9J4H3EsIjzzyCFZWVnD9+vWmoCDLkifbZB8aEWldHz+Dr3k/7s73TlzFCwcyGCh3fo6rt4J7H4b3HRsf4zmorLuFTCtAktRKnQ+shzviLr4B3P7NWL3BHfndv/7iriDj01Q/eVp94ExEuHFNNentnYLeB/d5noxahbl88OE5f9B73uZewvAGBQaDMaeaf2dWVGE3ZgXVyByP4kmz2GJY3zGzeRyMV0DQhY/5DzG1dzu63r3b3IzT5D9I12bsiBu+9joWern/kxms3JY+zRu4dtvU9gb1PoR5z3vgDgoMBntItwSu4ufekr7pe6c+U89fxM0zV3Gi44DePhP0/ogx/44NyhgFBNM18RfP46j+j3kJoXp/XE3gOz+/2ujfdkXepny3cYjOfvfv+WA23/9RfO3MbVw7fw23z3yt0Rcc9D74Ofo1nIHn/Q16z9veS3h2UGAw2EsnkVmBp/Zvfe/g/iwpR59/WVU8Fvd0fG30zPtzwj1Op96h82Z9WN+xMbK3AUG9OTKoq5tPR/4JUeeJBmusQJ46srap1DQobEif+rHGOV6oHbOitsp/eeW20zRz8t1Mf7zss2cf+qD7l9cvfZQn/O//6NfO4LZqsf6F3ckbeJ4g1hiK+/09fyPoPW9/L92QQMBgsLekH1zX/u3/Y+uRGp9xNPUZuRLwBNI+pt8fV9khaRGncXKo37HxwR+3GzD+uF1/+ON2JPjjdoPBH7cjIqKeMCAQEZHGgEBERBrHEAYszBgCtXfQxhAoGMcQ+tPtGALnVB6Cg1KgUX8YEDrjnMr9G2pAICKi/YljCEREpDEgEBGRxoBAREQaAwIREWkMCEREpDEgEBGRxoBAREQaAwIREWkMCEREpDEgEBGRAvz/iEisHOjNQqwAAAAASUVORK5CYII=;" parent="1" vertex="1">
          <mxGeometry x="1000" y="-496.96" width="218" height="338.24" as="geometry" />
        </mxCell>
        <mxCell id="Q7GEe4TqaoBqQ411YMws-26" value="" style="shape=image;verticalLabelPosition=bottom;labelBackgroundColor=default;verticalAlign=top;aspect=fixed;imageAspect=0;image=data:image/png,iVBORw0KGgoAAAANSUhEUgAAAQQAAAFYCAYAAAC1RIKGAAAAAXNSR0IArs4c6QAAAARnQU1BAACxjwv8YQUAAAAJcEhZcwAADsMAAA7DAcdvqGQAABgZSURBVHhe7d1NiFRnvsfxvxcuudxVk5DFrKKZ7nhpXAQNgdsOGGN08GVhBF3MxsZFd7LIpBJImCYBIxgcIiTtzMKrcE1nk4WCZqHdJMYYYTQg6mxEcLrH6CYDISFmcyEkpO/znHrqOS/1nNPnnCqt5zn9/QwPXXXqJdN/n/qdt67zX9FqtRYFAJQVi4q5DWAZe+211+TfzG0AIBAAxAgEABaBAMAiEABYSwbCihUrehoAwlFqC0GfmKwzAISl9C6DXtlXGQDCwzEELCt3796VVatWqZVWe5d248aNcv/+ffOoX/T/v+vXr5t73fRj/d4t71sgVNtFmJNJ8w/SGeuPLJjH0uYm1eOTc+Ze1oIcWZ94n/VH1BIgnw6EvXv3yg8//CBnzpyRL7/8UmZmZsyjfrl27Zr89/rfOUNBL9OP6ef0U61AyH749X31eawYCmMyPb+oXqPHrKxpjXR/8BeOyMGbEzJx86B05YV6bP2KEbn1duc91PhI5FxedgDKc889J++8844MDQ3Jzp075emnn/Z2C2HdunXy1eW/dYVCJwz0Y/o5faW/y1Ck/RSJfnZuZ+8X3XabXZyQsUUVCLH56cUxmVCPxOanxxbH1JM6P2Pzi9NjsjiRfDJQ0QcffBDN0b///e9miZ/UVsDivz/yH9HP5O1+0190rLSFoD7k0ZZAZ2tAjyzXslKGt8uesePyiV3DL8i5kyJ7tg+rh/aInDwX7w4snJOTVyZk51ZzH6hI7yboL/N8+OGH0VaCz5JbCg9sy8CoFAg6CDo6weBa1hf6Qy97ROVBOyzUvXPJ3YaxURkxN4GqdBioLQQZHx83S6B5dpZhTEbNp3yhvXkgOg9UIojeSGgdThwguHJL5s1NoCp93MD3LYOO5DED1zGFfiodCJ1dhLKjsmg3YI08FSXAnBxuXZEr+kCj2uTQY0Tdl+OfqEeUrt0LoJqLFy/KypUrzT1/ZQ8g5h1o7JdSgdDZFag6ypuTyZGWrJk9JtFhgblP5PjYtMyrZFm0Y16mbQgMy6tvT8jxbSskdWJi4YgcISRQgj7dqE9B+izvbMIDDYXo8GIB/ZTO6Hw2i5Z133fRZxni56hdhdQZh9kJyZxVaNNnGyR5aiE6M5F4n7Hpxe5XAd30fBkfHzf3/KT/PxadTdCP6ef0iz7LsOQl1PTmuqaflV3rFy2Lfxa+PQBPcAk1ACmlA6Gz1k+u8F3LNH0/u+UAwH9LBoLe5O8MdS8aRcu67wMIBbsMACwCAYBFIACwCAQAFoEAwCIQAFgEAgBrxf379/ljAQDRpeXYQgBgEQgALAIBgEUgALAIBAAWgQDAIhAAWAQCAItAAGARCAAsAgGARSAAsAgEDMado7Jly1G5Y+4+MA/rv9MQzQ6E8y0ZGhqKR+u8eQBFtiRrNtSSVNVcNdUfurznIyiNDYQ7R7fI0G6RU/fvR51+9Tgl55isZTx7SG506nZKZLdZw+bW9MmX5bMbh+TZ6HXTsrn9LghQYwPh0zMih26kJ+fm6fb9aGLbNdoWOdqe7WrTsiWtLe3lrfN35Ki9Hb08syZMvu6oHG3pZe21o/P9Q7V5u4xfvS3/VJFQVNMurlp1uS1/MTVOPSdniyP/3y1d/9Tr107JVb0MpTQ2EM5cHZXhJ82djCdf/syu4e6fGpWpv5gpd/WWrP4fvWxcZna/JNK5fVivIc9La+1teaPzuhsvypmXzL7p1Sm5vV0vb384ct8/QHeOHpaZZ1fLb+98WljTtIJaJXXqrZ6jNjBkKnqOfu2UjJ7qLL8lu00i5/+7Jeuffv19veXSfhZKaO4xBD2Jzc0uyTXI7hmRWwvtyfrsi/J7PeF/u1pt/iZu68fuLMgtmZHdyTVPtOZU1KbyH5Orybz3D4X6gK01///XnnlRbnz2skQ5UFTTpKJaJXVqrDz5+xflWf0c/dpEPaPlM2ZXL/ffLVH/zOtRTWMDYfTqGfnU9SnUk2rtGXnxRo01SLSPbF4XDcfmci/v74vk79kJgyeH82vqUqZWVTShrgFobCD8UW+Crk0f8T7fMvcTa6Y7ase41D5m9IGYklJb/3Xe33ubi2uaVKVWRlSn8e2yOfNau1zfKVPXTHA1p/4PR2MDQe9vRvufnU1MNXaLnnAvyxuj8SbxS7dHS65pNsu0Wivd2h2/35Dr/Hbt9/dfbk2jtbfeLdC/tw6IkrXK7ppM6499+rVrp0bllF5euq7q9fr4wtqlngcXrroMIMJVlwGkEAgALAIBgEUgALAIBAAWgQDAIhAAWAQCAItAAGARCAAsAgGARSAAsAgEABaBAMAiEABYBAIAi0AAYBEIACwCAYBFIACwCASFLsT1UbtmIRAG7ry0zKXF6ZxcFbXrNwJhwM63onbKUTeiZB9DLI3a9R+BEBlUF+Lzcm5mXLabHmdRH8PQ+kBSu0YhEDRfuhBHbcgcTVF9Ru0ahUDQ6EJcH7VrFAKhKj2hH1QX4uiDULLleoionfcIhIyH24V4s2wfn5Fzyf/G6HC7/XqAqF34CARtgF2IN0+fEsn+N0JC7RqF7s8AInR/BpBCIACwCAQAFoEAwCIQAFgEAgCLQABg8XcIytCf/2Vuhe/+n35jbj0c7733nrkVvjfffNPcWp703yEQCIoOhMVD/2XuDc6PP/5obtWjf49BBMK7775r7g1Or7XTvweBQCBEfAqEzz//3Nyr5oUXXlj2gdBL7QgEAsHyLRA2bdpklpRz4cIFAqHH2hEI/Omy04oVK8ytwVlcXKw0EHPVp2ggjUDwkGviPvroo87leiDmqg+1K49A8NCvv/6aGo899li0XP/MPqYHYtnaULtqCIQuW2VS7TboXYf2WC9HFvTyuZzlHerx9UfELlo4IusTz1+ffnJkblI9lnyNkVyDPf7442Zpm76ffFwPb+T+zsnaTap7Hf1aHkvWJajaeYJAcJqQWTtpLsurw2ZxzvKFI+vVBN0mx9t32+ZvyZrZznNnZU1rbypAdBgcVO83Zu4n/fLLL3Z88803XSP5uB7eyPmd5ya3iSpctHx++qZsm2x/lPu1PClZl6Bq5wkCoQ+GX70si/PT6Q/31mNybKu5LSMymnhQB8jB0Xm5/MaoWZLW/kCVH95w/s5z8snxCdlplg9v3yNjN/+htor6tTzNVZ+igTQCwem4bDObpulN/bzlS1g4Jydlj2xXWxQ6DPbKR3I53uzo8tVXX1UaXkr8zinDT8maK7dk3ty1+rTcVZ+igTQCocucHLNrkOSm/tac5UtR+70j6qPx0asyrNZn505ekSutkfZ+8EhLrlxpyUjmOII+L15l+Cf5Oz9crvoUDaQRCIXSm/qxvOVZ+iDYQRmd7xxvGJZXL3dCRQ29mzE2LfOX0x+c5FFwfQHR7Eg+rodfsr9zxsI/5ObYqKpgRp+WJ+sSXu0Gj0DIUvvB9liV3uy9skae0hN7btK9PE90xL3gg1HABoYa33//vVnapu8nH9fDG87feavsnDgun5jaLZw7KVfWPKUCsF/L05J1Cap2niAQsuZvyc1t5tSW2qRfM3tMTUVlZNS9XInOMnQ2/9XjOjiiCav+1xoxr1Gj7HGH7KT97rvvouX6Z/YxPXyR9ztvPTYrYmo30lojs+bIY7+WJ2VrE0rtfEEgZKm13OXEhLFzbvhV93IlOsuQeSy7TI+uA4n6PTO7C1p2s1aPb7/91rlcD1/k/87J4y9xkPZvecxVnxBq5wsCwUM///xzpYGYqz5FA2l821EZ4uvPtfH15+bg68+GT4HQi+UeCL0gEAgES3+QmmIQgdAUBAKBAMDgAikAUggEABaBAMAiEABYBAIAi7MMCqfO6qN2zcFpR4M/rqmP2jUHgWD4NKlD+/Nbatcc/B2Cp3T3oSoDMVd9igbSCAQPtb/eW34g5qpP0UAageAh18Sl+1A5rvpQu/IIBA9lL+JB96HysrWhdtUQCF2S3YH0yHZo0pdXVMs7V0pOdSuKn9tu3tJZbkZ0Ucal3z+5BqNzE52bHiYCwSmvc5OakqmOSwtyZO9J2TNvnju7Rlp720GRvZzY7ITI2GjnGsH5768lOwsF1X2Izk3BIxAqWKrjkr4Qq/Pq7GrNefD4hLyd/eTnaH+gyg9v0LkpeASCU3eHJnfHJd1n4W251bnKcE5zkrnDLZHpNxIXBS3uAOXqMFQ0vETnpiARCF1cHZryOy79r92MnZfpsSvSOpzZjO3aOnC9v3nI0H8oU2X4R+3r07kpSARCoc5mb07HpY9ETtycljeiVb9+jgqFmwdTH/DurYMkdweo5FHw8LoP6QN/dG4KFYGQVaVDU7TZ2hK7UZB9vuvYQYn3t8GjBp2bllqelqwLnZuqIxCyCjo0dVOb/2prIX6+PuPQeb4+A+HYOijx/tlJG0r3ITo3hY9AyCro0GQlOy6lnp9cM7Z3M5zdmpZ4/+xmrR50btLylsdc9aFzU3kEgodcHYaKBmKu+hQNpBEIHnKdHisaiLnqUzSQxvUQFJ++09+L5X49hF5wPQQukGLpydAUgwiEpiAQCAQABldMApBCIACwCAQAFoEAwCIQAFicZVA4dVYftWsOTjsaelLzxzX1ULvmIBAMnyY1nZvqCbF2vuHvEDzl6jBUNBBz1adoII1A8FD7673lB2Ku+hQNpBEIHnJNXLoPleOqD7Urj0DwUPYiHnQfKi9bG2pXDYHQJdkdSI9OZ6Uyy5d59yE6NwWPQHDK66zUvZzuQwl0bgoegdATug+l0LkpeASCU15npeKOS3QfSqBzU5AIhC7JK/smOyvlLe+/ZGehMsM/al+fzk1BIhAKuTsr5S6n+5CiD/zRuSlUBEJWXmcl53K6D6XQuSl4BEJWXmelnOV0H4pFH1I6NwWNQMjK66yU23GJ7kMddG4KH4HgIVeHoaKBmKs+RQNpBIKHXKfHigZirvoUDaRxPQTFp+/092K5Xw+hF1wPgQukWHoyNMUgAqEpCAQCAYDBFZMApBAIACwCAYBFIACwCAQAFmcZFE6d1UftmoPTjoae1PxxTT3UrjkIBMOnSU3npnpCrJ1v+DsET7k6DBUNxFz1KRpIIxA81P56b/mBmKs+RQNpBIKHXBOX7kPluOpD7cojEDyUvYgH3YfKy9aG2lVDIHRJdgfSg85NpdG5KXgEghOdm2qhc1PwCISe0H0ohc5NwSMQnOjc1DM6NwWJQOiSvLIvnZvqUfv6dG4KEoFQiM5N1ekDf3RuChWBkEXnpvro3BQ8AiGLzk21RR9SOjcFjUDIonNTbXRuCh+B4CFXh6GigZirPkUDaQSCh1ynx4oGYq76FA2kcT0Exafv9PdiuV8PoRdcD4ELpFh6MjTFIAKhKQgEAgGAwRWTAKQQCAAsAgGARSAAsAgEABZnGRROndVH7ZqD046GntT8cU091K45CATDp0lN56Z6Qqydb/g7BE+5OgwVDcRc9SkaSCMQPNT+em/5gZirPkUDaQSCh1wTl+5D5bjqQ+3KIxA8lL2IB92HysvWhtpVQyB0SXYH0oPOTaXRuSl4BIITnZtqoXNT8AiEntB9KIXOTcEjEJzo3NQzOjcFiUDokryyL52b6lH7+nRuChKBUIjOTdXpA390bgoVgZBF56b66NwUPAIhi85NtUUfUjo3BY1AyKJzU210bgofgeAhV4ehooGYqz5FA2kEgodcp8eKBmKu+hQNpHE9BMWn7/T3YrlfD6EXXA+BC6RYejI0xSACoSkIBAIBgMEVkwCkEAgALAIBgEUgALAIBAAWZxkUTp3VR+2ag9OOhp7U/HFNPdSuOQgEw6dJTeemekKsnW/4OwRPuToMFQ3EXPUpGkgjEDzU/npv+YGYqz5FA2kEgodcE5fuQ+W46kPtyiMQPJS9iAfdh8rL1obaVUMgdEl2B9KDzk2l0bkpeASCE52baqFzU/AIhJ7QfSiFzk3BIxCc6NzUMzo3BYlA6JK8si+dm+pR+/p0bgoSgVCIzk3V6QN/dG4KFYGQReem+ujcFDwCIYvOTbVFH1I6NwWNQMiic1NtdG4KH4HgIVeHoaKBmKs+RQNpBIKHXKfHigZirvoUDaRxPQTFp+/092K5Xw+hF1wPgQukWHoyNMUgAqEpCAQCAYDBFZMApBAIACwCAYBFIACwCAQAFmcZFE6d1UftmoPTjoae1PxxTT3UrjkIBMOnSU3npnpCrJ1v+DsET7k6DBUNxFz1KRpIIxA81P56b/mBmKs+RQNpBIKHXBOX7kPluOpD7cojEDyUvYgH3YfKy9aG2lVDIHRJdgfSg85NpdG5KXgEghOdm2qhc1PwCISe0H0ohc5NwSMQnOjc1DM6NwWJQOiSvLIvnZvqUfv6dG4KEoFQiM5N1ekDf3RuChWBkEXnpvro3BQ8AiGLzk21RR9SOjcFjUDIonNTbXRuCh+B4CFXh6GigZirPkUDaQSCh1ynx4oGYq76FA2kcT0Exafv9PdiuV8PoRdcD4ELpFh6MjTFIAKhKQgEAgGAwRWTAKQQCAAsAgGARSAAsAgEABZnGRROndVH7ZqD046GntT8cU091K45CATDp0lN56Z6Qqydb/g7BE+5OgwVDcRc9SkaSCMQPNT+em/5gZirPkUDaQSCh1wTl+5D5bjqQ+3KIxA8lL2IB92HysvWhtpVQyB0SXYH0oPOTaXRuSl4BIITnZtqoXNT8AiEntB9KIXOTcEjEJzo3NQzOjcFiUDokryyL52b6lH7+nRuChKBUIjOTdXpA390bgoVgZBF56b66NwUPAIhi85NtUUfUjo3BY1AyKJzU210bgofgeAhV4ehooGYqz5FA2kEgodcp8eKBmKu+hQNpHE9BMWn7/T3YrlfD6EXXA+BC6RYejI0xSACoSkIBAIBgMEVkwCkEAgALAIBgEUgALAIBAAWgQDAIhAAWAQCAItAAGARCAAsAgGARSAAsAgEABaBAMAiEABYBAIAi0AAYFW+YtKFCxfMLeTZtGmTueU29Od/mVvIc/9PvzG33JiHS1tqHmbVuoSa/od45plnzD1kXbt2jUDogzKBwDzMV2YeZhEID0CVQLj38n9GPxF74uj/RT8JhN7UDQSOIQCI6MY1BAIAi0AAYIUZCBen5IknnojG1EWzrIy7J2TXrhNy19wFBsrD+Ti4QNDFMB/qah/uizI1flv2X7on9+7dk0MbzeKqlmE43D2xK1XvXSfMb5+thQncSmHbBIkVTTSWXQEGvYWwbr9cUh9q/cG+d2m/3B4vMQnvfi23ZbWsWmnuoxQdBhvO7ojrfW9GVh/YEIdChw4HE7i1wzZAUViOi8zY+tyTGflMrX6WF392GVbuk9M6FP5q1lSpLYhd0p63autgwwG5Lh/LuF6u1mp/S631zPOya7yurYG7cuJ19T7XD8gG9bquD0XjXJRjB0T2v79P4hzdKIdUveXsF+k6bTgrOy6dln3LKnDvyhdnVX0uHVJViW081L6f3rJKz7ETU53lyZWZmqf2+Wa5cz77x69jCCtXyerr8/J19MGfl1c6aX1ph5x9XX+g25N4XWfL4vQ++d2+0zbR782slgPHymT6Stn3fvw+p5s++/VW1bod8nz217T11s7K68syDJS7X8jZ6/lbnSvz5phaocxv6Sz/g3wcrczUymZXtKlhX3NoY9589o+fBxWj3QKzFaCH3iqwEzcjmbzjH4vc/trLQnvvusiO/WqyezpRH7h1I7LK3OySN8fUCmWys0mxakTW6Z86XCSxXKsynwfMr0CI1mTmHyZ5fCEa6c25iN3E7SSvWuubh5AQbQmclS+yn/RUvdUWxL5DcmnHWdmw3A6m5dVH69ccKzOfPeBRILSPD6x+Re3nRv9AB6TU1n9iU/iu2hFUK7q2RAKnlid5mtL9t1Em90tm7d+ut+x4PnFcQW8evy/7b48vg+MqSaY+G6ZUVWIXp8z9vDnmsvJ52SGZuVtlPg/YYAPBHNRrH2j5q4zYI9vtYwX6rEP7MTVSBwWNlfvkldXxe7w+v7qd3mr5+/tv2000uzxJv/YP7c245TD59X5wtPY3NXmifUjdcfxkpew7nXMGosGi+iTmjB7jskU25s2xXO3jU8m5O3Wx5Hz2AF9u6jO+3NQbvtzUH3W+3PTWW295elARwEAQCAAsAgGAxTGEPqtyDAH5OIbQm7rHELim4gNAIPSOayr27qEEAoBm4iwDgBQCAYBFIACI/PTTTwQCgLZHHnmEQAAQIxAAWAQCAItAAGARCAAsAgGARSAAMET+Hy3rtfQZk6+YAAAAAElFTkSuQmCC;" parent="1" vertex="1">
          <mxGeometry x="1480" y="-496.96" width="205.04" height="271.28" as="geometry" />
        </mxCell>
      </root>
    </mxGraphModel>
  </diagram>
</mxfile>
